{"glyphs":{"0":{"ha":806,"x_min":86,"x_max":737,"o":"m 737 592 q 705 326 737 439 q 619 138 672 213 q 495 27 565 63 q 351 -10 426 -10 q 246 15 294 -10 q 162 88 198 39 q 106 209 126 136 q 86 381 86 283 q 118 647 86 533 q 204 835 151 760 q 327 947 258 910 q 472 983 397 983 q 577 959 528 983 q 661 886 625 935 q 717 764 697 837 q 737 592 737 690 m 719 593 q 700 758 719 688 q 648 876 681 829 q 569 946 615 923 q 471 969 524 969 q 333 934 400 969 q 216 826 267 899 q 134 642 165 753 q 103 381 103 531 q 122 215 103 285 q 175 97 141 144 q 254 27 208 50 q 352 4 299 4 q 490 40 424 4 q 607 148 556 75 q 688 331 658 220 q 719 593 719 442 z "},"1":{"ha":806,"x_min":167,"x_max":614,"o":"m 614 14 l 612 0 l 167 0 l 169 14 l 385 14 l 496 914 q 503 953 498 932 l 245 726 q 232 726 238 719 l 228 732 l 510 978 l 521 978 l 402 14 l 614 14 z "},"2":{"ha":806,"x_min":70,"x_max":699,"o":"m 626 15 q 632 8 633 15 l 631 0 l 70 0 l 72 7 q 74 13 72 10 q 78 17 76 15 l 443 372 q 535 465 492 420 q 611 556 579 510 q 663 653 644 603 q 682 764 682 704 q 665 856 682 817 q 620 920 648 894 q 555 957 592 945 q 478 969 518 969 q 385 953 429 969 q 306 906 342 936 q 245 834 271 876 q 205 742 219 792 q 193 731 202 731 l 185 731 q 228 836 200 789 q 294 915 256 883 q 380 966 333 948 q 481 983 427 983 q 562 970 523 983 q 632 931 601 958 q 680 863 662 904 q 699 765 699 822 q 678 648 699 701 q 625 548 658 595 q 546 456 591 501 q 452 363 501 410 l 93 13 q 125 15 107 14 q 165 15 143 15 l 626 15 z "},"3":{"ha":806,"x_min":93,"x_max":694,"o":"m 185 731 q 227 836 199 789 q 293 915 255 883 q 378 966 331 948 q 479 983 426 983 q 560 971 522 983 q 629 934 599 959 q 676 869 658 908 q 694 775 694 829 q 673 669 694 717 q 619 587 653 622 q 544 530 586 552 q 458 501 501 508 q 546 479 508 497 q 609 433 583 461 q 647 368 634 405 q 660 289 660 331 q 635 174 660 228 q 568 78 610 119 q 468 13 526 38 q 346 -11 411 -11 q 253 1 292 -11 q 186 32 214 13 q 142 76 159 51 q 115 128 125 101 q 100 183 105 156 q 93 233 95 210 l 97 235 q 104 236 99 236 q 111 225 110 235 q 114 202 112 220 q 123 159 116 184 q 144 107 130 135 q 184 57 158 80 q 250 18 210 33 q 347 3 290 3 q 473 29 417 3 q 566 97 528 56 q 623 189 603 139 q 643 288 643 240 q 628 368 643 331 q 583 434 614 406 q 503 478 552 462 q 387 494 455 494 l 388 506 q 506 528 453 508 q 597 583 559 548 q 656 666 635 617 q 677 774 677 715 q 661 861 677 824 q 617 923 644 899 q 553 958 590 947 q 478 969 517 969 q 384 953 428 969 q 305 906 340 936 q 243 834 269 876 q 203 742 217 792 q 192 731 199 731 l 185 731 z "},"4":{"ha":806,"x_min":57,"x_max":718,"o":"m 515 314 l 589 918 q 593 943 590 931 l 76 314 l 515 314 m 718 314 l 717 308 q 706 300 716 300 l 528 300 l 491 0 l 476 0 l 513 300 l 69 300 q 60 302 62 300 q 58 307 58 303 l 57 313 l 601 974 l 611 974 l 530 314 l 718 314 z "},"5":{"ha":806,"x_min":95,"x_max":703,"o":"m 703 972 l 701 965 q 698 959 701 962 q 691 957 695 957 l 331 957 l 219 572 q 313 592 269 585 q 395 598 357 598 q 505 580 458 598 q 583 529 551 562 q 630 451 614 497 q 645 352 645 406 q 616 198 645 265 q 540 84 588 131 q 431 13 492 38 q 304 -11 369 -11 q 238 -5 269 -11 q 181 11 207 1 q 132 34 154 22 q 95 61 110 47 l 100 67 q 109 71 103 71 q 128 61 114 71 q 166 38 142 51 q 225 16 190 26 q 306 6 260 6 q 427 28 369 6 q 529 95 485 51 q 600 204 574 140 q 627 353 627 269 q 613 445 627 403 q 571 518 599 488 q 498 567 542 549 q 393 584 454 584 q 310 577 355 584 q 212 557 265 571 l 201 563 l 319 972 l 703 972 z "},"6":{"ha":741,"x_min":114,"x_max":671,"o":"m 349 3 q 475 27 418 3 q 571 93 531 51 q 633 194 611 135 q 655 320 655 252 q 640 417 655 374 q 596 490 624 460 q 527 538 567 521 q 437 554 487 554 q 310 527 367 554 q 214 456 253 500 q 152 358 174 413 q 130 248 130 303 q 145 150 130 195 q 188 73 160 106 q 257 21 216 40 q 349 3 297 3 m 284 581 q 217 491 244 531 q 170 414 189 451 q 221 478 192 450 q 286 527 251 507 q 359 557 321 547 q 438 568 398 568 q 536 549 492 568 q 609 498 579 531 q 655 419 640 465 q 671 320 671 374 q 646 185 671 246 q 577 81 621 124 q 474 13 533 37 q 347 -11 415 -11 q 251 7 294 -11 q 178 58 208 24 q 131 139 147 91 q 114 249 114 188 q 123 326 114 288 q 150 405 131 364 q 199 490 169 445 q 271 588 229 535 l 576 968 q 581 972 578 972 q 585 972 583 972 l 599 972 l 284 581 z "},"7":{"ha":806,"x_min":180,"x_max":769,"o":"m 769 972 l 768 964 q 766 959 767 962 q 764 954 765 956 l 204 8 q 188 0 199 0 l 180 0 l 741 947 q 744 952 742 950 q 748 957 747 955 l 191 957 q 184 965 183 957 l 185 972 l 769 972 z "},"8":{"ha":806,"x_min":99,"x_max":693,"o":"m 352 3 q 469 22 415 3 q 564 78 524 42 q 627 167 604 115 q 650 284 650 219 q 639 360 650 327 q 610 416 628 392 q 568 457 592 440 q 517 482 544 473 q 464 496 491 492 q 413 500 437 500 q 352 495 385 500 q 286 477 319 490 q 223 444 253 465 q 168 392 192 424 q 130 318 144 361 q 115 219 115 276 q 132 130 115 169 q 181 62 149 90 q 255 18 212 33 q 352 3 299 3 m 209 714 q 221 639 209 675 q 259 575 233 603 q 323 531 284 547 q 415 514 362 514 q 527 535 478 514 q 609 593 576 557 q 659 675 642 628 q 676 770 676 721 q 663 849 676 813 q 623 913 649 886 q 558 954 597 939 q 471 969 520 969 q 364 950 412 969 q 281 896 315 931 q 228 815 247 862 q 209 714 209 768 m 474 508 q 548 484 513 501 q 610 441 583 468 q 651 375 636 414 q 667 285 667 336 q 642 160 667 215 q 576 67 618 106 q 476 9 533 29 q 351 -11 418 -11 q 247 5 294 -11 q 168 50 201 21 q 117 122 135 80 q 99 216 99 164 q 120 338 99 286 q 177 424 142 389 q 259 480 213 460 q 354 508 305 500 q 284 536 315 517 q 234 582 254 555 q 203 642 213 608 q 192 713 192 675 q 212 817 192 768 q 269 903 232 867 q 357 962 306 940 q 472 983 408 983 q 567 967 526 983 q 636 921 608 950 q 679 853 665 892 q 693 771 693 815 q 678 678 693 722 q 634 600 663 635 q 566 541 606 565 q 474 508 525 517 z "},"9":{"ha":806,"x_min":162,"x_max":699,"o":"m 389 440 q 510 466 456 440 q 602 534 564 492 q 662 628 641 576 q 683 733 683 681 q 668 827 683 783 q 625 902 653 870 q 559 952 597 934 q 473 969 520 969 q 357 947 410 969 q 263 885 303 925 q 201 789 224 845 q 178 665 178 733 q 193 572 178 613 q 236 501 208 531 q 302 456 263 472 q 389 440 341 440 m 535 414 q 601 503 573 464 q 650 583 630 543 q 600 518 629 547 q 536 468 571 489 q 464 437 502 448 q 388 426 426 426 q 292 444 334 426 q 222 494 251 463 q 177 570 192 526 q 162 665 162 614 q 187 793 162 735 q 255 894 212 851 q 354 960 297 936 q 474 983 410 983 q 566 965 524 983 q 636 913 607 947 q 682 832 666 879 q 699 728 699 785 q 689 647 699 684 q 660 573 679 610 q 613 497 641 537 q 547 407 585 457 l 249 4 q 244 0 247 1 q 240 0 242 0 l 226 0 l 535 414 z "},"\u0000":{"ha":0,"x_min":0,"x_max":0,"o":""}," ":{"ha":372,"x_min":0,"x_max":0,"o":""},"A":{"ha":818,"x_min":-22,"x_max":739,"o":"m 631 346 l 482 921 q 478 935 480 928 q 475 949 476 942 q 468 935 472 942 q 461 921 465 928 l 171 346 l 631 346 m 739 0 l 726 0 q 718 7 720 0 l 634 332 l 164 332 l 0 7 q -11 0 -5 0 l -22 0 l 471 972 l 485 972 l 739 0 z "},"Ą":{"ha":818,"x_min":-22,"x_max":798,"o":"m 631 346 l 482 921 q 478 935 480 928 q 475 949 476 942 q 468 935 472 942 q 461 921 465 928 l 171 346 l 631 346 m 798 -194 q 753 -222 779 -212 q 700 -232 726 -232 q 636 -211 660 -232 q 612 -149 612 -190 q 622 -101 612 -124 q 649 -58 633 -78 q 684 -24 665 -39 q 720 3 703 -8 q 718 7 719 4 l 634 332 l 164 332 l 0 7 q -11 0 -5 0 l -22 0 l 471 972 l 485 972 l 739 0 l 738 0 q 704 -22 723 -8 q 668 -55 685 -36 q 639 -96 651 -73 q 627 -147 627 -119 q 648 -199 627 -180 q 703 -218 669 -218 q 738 -213 724 -218 q 763 -203 753 -208 q 780 -192 774 -197 q 790 -187 786 -187 q 792 -188 792 -187 q 794 -190 793 -189 l 798 -194 z "},"Æ":{"ha":1192,"x_min":-27,"x_max":1184,"o":"m 610 346 l 610 958 q 601 940 606 948 q 590 921 597 932 l 217 346 l 610 346 m 626 957 l 626 501 l 1051 501 l 1048 486 l 626 486 l 626 15 l 1069 15 l 1065 0 l 610 0 l 610 332 l 208 332 l -3 7 q -15 0 -8 0 l -27 0 l 605 972 l 1184 972 l 1183 957 l 626 957 z "},"B":{"ha":799,"x_min":101,"x_max":710,"o":"m 371 14 q 499 31 442 14 q 595 83 556 49 q 656 167 635 117 q 676 283 676 217 q 659 367 676 330 q 611 431 642 405 q 533 472 579 458 q 431 486 488 486 l 178 486 l 119 14 l 371 14 m 180 500 l 403 500 q 535 524 480 500 q 626 587 590 549 q 678 672 661 626 q 694 764 694 719 q 635 907 694 856 q 453 958 576 958 l 236 958 l 180 500 m 454 972 q 647 918 583 972 q 710 767 710 865 q 691 668 710 715 q 640 585 672 622 q 564 524 608 548 q 472 496 521 501 q 565 475 524 492 q 634 431 606 458 q 678 367 663 404 q 693 285 693 331 q 671 164 693 217 q 607 75 649 111 q 505 19 565 38 q 369 0 445 0 l 101 0 l 221 972 l 454 972 z "},"C":{"ha":879,"x_min":94,"x_max":863,"o":"m 457 3 q 556 12 512 3 q 635 36 601 22 q 696 67 670 51 q 739 98 722 83 q 766 122 756 113 q 780 131 776 131 q 783 130 781 131 l 789 124 q 722 69 757 94 q 645 27 686 44 q 558 -1 605 9 q 456 -11 510 -11 q 308 18 374 -11 q 194 103 241 48 q 120 235 147 158 q 94 410 94 313 q 132 643 94 538 q 237 825 170 749 q 394 942 303 900 q 590 983 485 983 q 677 976 639 983 q 747 955 715 969 q 807 919 779 941 q 863 869 835 898 l 860 865 q 851 863 857 863 q 831 879 846 863 q 787 916 817 896 q 710 953 758 936 q 589 969 662 969 q 401 930 488 969 q 249 818 314 891 q 148 642 185 745 q 111 410 111 538 q 136 241 111 316 q 208 113 162 165 q 317 31 253 60 q 457 3 381 3 z "},"Ç":{"ha":879,"x_min":94,"x_max":863,"o":"m 442 -11 q 300 22 364 -8 q 190 107 235 53 q 119 239 144 162 q 94 410 94 315 q 132 643 94 538 q 237 825 170 749 q 394 942 303 900 q 590 983 485 983 q 677 976 639 983 q 747 955 715 969 q 807 919 779 941 q 863 869 835 898 l 860 865 q 851 863 857 863 q 831 879 846 863 q 787 916 817 896 q 710 953 758 936 q 589 969 662 969 q 401 930 488 969 q 249 818 314 891 q 148 642 185 745 q 111 410 111 538 q 136 241 111 316 q 208 113 162 165 q 317 31 253 60 q 457 3 381 3 q 556 12 512 3 q 635 36 601 22 q 696 67 670 51 q 739 98 722 83 q 766 122 756 113 q 780 131 776 131 q 783 130 781 131 l 789 124 q 722 69 757 94 q 645 27 686 44 q 558 -1 605 9 q 456 -11 510 -11 l 454 -11 l 428 -76 q 473 -87 453 -81 q 508 -102 494 -93 q 531 -124 523 -111 q 539 -156 539 -137 q 530 -195 539 -178 q 507 -224 522 -212 q 472 -242 492 -236 q 428 -249 451 -249 q 377 -239 402 -249 q 340 -212 353 -228 l 344 -210 q 351 -206 348 -206 q 359 -210 353 -206 q 373 -221 364 -215 q 397 -231 383 -226 q 433 -236 411 -236 q 499 -215 475 -236 q 524 -158 524 -194 q 515 -127 524 -140 q 490 -107 506 -115 q 455 -95 475 -99 q 410 -87 434 -90 l 442 -11 z "},"D":{"ha":980,"x_min":101,"x_max":901,"o":"m 901 564 q 865 327 901 431 q 764 150 828 222 q 612 39 700 77 q 421 0 524 0 l 101 0 l 221 972 l 540 972 q 690 944 623 972 q 804 863 757 916 q 876 735 851 810 q 901 564 901 659 m 883 564 q 859 730 883 656 q 790 854 835 803 q 681 932 745 905 q 539 958 617 958 l 236 958 l 119 14 l 422 14 q 606 51 521 14 q 752 158 690 88 q 848 331 813 228 q 883 564 883 433 z "},"Ð":{"ha":983,"x_min":18,"x_max":906,"o":"m 428 14 q 611 51 526 14 q 757 158 695 88 q 853 331 818 228 q 888 564 888 433 q 863 730 888 656 q 794 854 839 803 q 686 932 749 905 q 544 958 622 958 l 240 958 l 185 501 l 456 501 l 454 488 l 183 488 l 125 14 l 428 14 m 546 972 q 694 944 628 972 q 808 863 761 916 q 880 735 855 810 q 906 564 906 659 q 869 327 906 431 q 769 150 833 222 q 617 39 705 77 q 426 0 529 0 l 107 0 l 167 488 l 18 488 l 19 501 l 169 501 l 226 972 l 546 972 z "},"E":{"ha":751,"x_min":101,"x_max":744,"o":"m 235 957 l 180 501 l 610 501 l 607 486 l 178 486 l 120 15 l 628 15 l 625 0 l 101 0 l 221 972 l 744 972 l 742 957 l 235 957 z "},"Ę":{"ha":751,"x_min":101,"x_max":744,"o":"m 235 957 l 180 501 l 610 501 l 607 486 l 178 486 l 120 15 l 628 15 l 625 0 l 553 0 q 520 -22 539 -8 q 484 -55 501 -36 q 455 -96 467 -73 q 443 -147 443 -119 q 464 -199 443 -180 q 519 -218 485 -218 q 554 -213 540 -218 q 579 -203 569 -208 q 596 -192 590 -197 q 606 -187 602 -187 q 608 -188 608 -187 q 610 -190 609 -189 l 614 -194 q 569 -222 595 -212 q 516 -232 542 -232 q 452 -211 476 -232 q 428 -149 428 -190 q 438 -102 428 -124 q 462 -61 447 -80 q 495 -27 477 -42 q 531 0 514 -12 l 101 0 l 221 972 l 744 972 l 742 957 l 235 957 z "},"F":{"ha":733,"x_min":101,"x_max":744,"o":"m 235 957 l 178 488 l 621 488 l 618 472 l 176 472 l 118 0 l 101 0 l 221 972 l 744 972 l 742 957 l 235 957 z "},"G":{"ha":953,"x_min":95,"x_max":888,"o":"m 817 96 q 743 52 781 72 q 663 18 706 32 q 573 -3 621 4 q 467 -11 524 -11 q 312 18 381 -11 q 195 103 243 48 q 121 235 147 158 q 95 408 95 313 q 132 646 95 540 q 236 827 169 752 q 396 943 303 902 q 603 983 490 983 q 694 977 653 983 q 769 957 735 970 q 833 922 803 943 q 888 872 862 901 l 884 868 q 877 864 882 864 q 866 872 874 864 q 846 891 859 880 q 812 917 833 903 q 762 942 792 931 q 693 961 733 953 q 602 969 653 969 q 403 931 493 969 q 248 819 313 892 q 148 642 183 747 q 112 408 112 538 q 137 240 112 315 q 208 113 162 165 q 321 31 255 60 q 469 3 387 3 q 569 9 524 3 q 654 29 615 16 q 730 60 694 42 q 803 102 766 78 l 841 404 l 641 404 q 635 407 638 404 q 634 411 633 409 l 634 418 l 858 418 l 817 96 z "},"H":{"ha":964,"x_min":101,"x_max":881,"o":"m 881 972 l 761 0 l 744 0 l 804 486 l 178 486 l 118 0 l 101 0 l 221 972 l 238 972 l 180 501 l 806 501 l 864 972 l 881 972 z "},"Ħ":{"ha":976,"x_min":85,"x_max":990,"o":"m 845 724 l 219 724 l 192 501 l 818 501 l 845 724 m 988 724 l 862 724 l 773 0 l 756 0 l 816 486 l 190 486 l 130 0 l 113 0 l 202 724 l 85 724 l 87 736 l 203 736 l 233 972 l 249 972 l 220 736 l 847 736 l 876 972 l 892 972 l 863 736 l 990 736 l 988 724 z "},"I":{"ha":321,"x_min":101,"x_max":238,"o":"m 118 0 l 101 0 l 221 972 l 238 972 l 118 0 z "},"Į":{"ha":322,"x_min":-7,"x_max":238,"o":"m 119 0 q 85 -22 104 -8 q 49 -55 66 -36 q 20 -96 32 -73 q 8 -147 8 -119 q 30 -199 8 -180 q 84 -218 51 -218 q 119 -213 105 -218 q 144 -203 134 -208 q 161 -192 155 -197 q 171 -187 167 -187 q 174 -188 173 -187 q 176 -190 174 -189 l 179 -194 q 134 -222 160 -212 q 81 -232 108 -232 q 17 -211 42 -232 q -7 -149 -7 -190 q 3 -100 -7 -123 q 30 -58 14 -77 q 66 -23 47 -38 q 103 4 85 -7 l 222 972 l 238 972 l 119 0 z "},"J":{"ha":531,"x_min":-26,"x_max":457,"o":"m 372 286 q 338 149 363 206 q 278 57 314 92 q 196 5 242 21 q 97 -11 150 -12 q 30 -6 60 -11 q -26 10 1 -1 l -25 14 q -22 18 -24 16 q -15 21 -21 21 q -1 18 -9 21 q 20 12 7 15 q 51 6 33 8 q 99 3 70 3 q 186 17 144 3 q 262 63 228 31 q 321 150 297 96 q 356 286 346 205 l 440 972 l 457 972 l 372 286 z "},"K":{"ha":785,"x_min":101,"x_max":808,"o":"m 180 503 l 240 503 q 261 503 252 503 q 277 507 269 504 q 291 514 284 509 q 306 526 297 519 l 774 961 q 787 970 781 969 q 799 972 792 972 l 808 972 l 319 519 q 299 503 307 508 q 279 496 291 498 q 298 489 290 494 q 313 474 305 483 l 714 0 l 707 0 q 693 2 697 0 q 685 10 689 4 l 301 461 q 290 474 295 468 q 279 482 285 479 q 264 487 273 485 q 239 489 254 489 l 178 489 l 118 0 l 101 0 l 221 974 l 238 974 l 180 503 z "},"L":{"ha":638,"x_min":101,"x_max":576,"o":"m 576 15 l 574 0 l 101 0 l 221 972 l 238 972 l 120 15 l 576 15 z "},"Ł":{"ha":651,"x_min":29,"x_max":590,"o":"m 590 15 l 587 0 l 115 0 l 167 428 l 29 354 l 31 360 q 33 368 31 365 q 40 374 35 370 l 169 443 l 234 972 l 251 972 l 187 451 l 490 615 l 490 611 q 488 604 489 607 q 481 597 487 601 l 185 437 l 133 15 l 590 15 z "},"Ľ":{"ha":638,"x_min":101,"x_max":576,"o":"m 515 1001 q 524 990 524 1001 q 520 970 524 983 q 511 937 517 958 q 494 887 504 917 q 469 817 483 858 q 466 810 467 813 q 458 807 464 807 l 454 807 l 508 1001 l 515 1001 m 576 15 l 574 0 l 101 0 l 221 972 l 238 972 l 120 15 l 576 15 z "},"M":{"ha":1147,"x_min":101,"x_max":1064,"o":"m 1064 972 l 944 0 l 931 0 l 1044 929 q 1045 934 1045 932 q 1046 940 1045 937 l 565 201 q 556 194 560 194 l 551 194 q 543 201 545 194 l 231 942 q 230 936 230 939 q 229 929 230 933 l 115 0 l 101 0 l 221 972 l 226 972 q 236 967 233 972 l 551 218 q 555 208 553 214 q 558 213 556 210 q 561 218 560 216 l 1049 967 q 1058 972 1052 972 l 1064 972 z "},"N":{"ha":964,"x_min":101,"x_max":881,"o":"m 881 972 l 761 0 l 758 0 q 749 7 753 0 l 231 946 q 230 938 230 942 q 229 929 230 933 l 115 0 l 101 0 l 221 972 l 226 972 q 235 967 231 972 l 752 30 q 752 37 752 33 q 753 44 752 41 l 867 972 l 881 972 z "},"Ŋ":{"ha":965,"x_min":101,"x_max":881,"o":"m 765 26 l 756 -49 q 699 -198 744 -146 q 578 -250 653 -250 q 536 -245 556 -250 q 497 -232 517 -241 l 499 -227 q 502 -222 500 -223 q 506 -222 504 -222 q 528 -229 510 -222 q 578 -236 547 -236 q 688 -189 646 -236 q 742 -49 730 -142 l 749 8 l 231 946 q 231 938 231 942 q 230 929 231 933 l 115 0 l 101 0 l 221 972 l 226 972 q 235 967 233 972 l 752 30 q 753 37 753 33 q 753 44 753 41 l 867 972 l 881 972 l 765 26 z "},"O":{"ha":1013,"x_min":95,"x_max":935,"o":"m 935 565 q 899 326 935 433 q 797 145 862 220 q 644 31 733 71 q 453 -10 556 -10 q 306 20 372 -10 q 193 103 240 49 q 120 235 146 158 q 95 407 95 312 q 112 572 95 494 q 159 713 128 649 q 234 827 190 776 q 331 912 277 877 q 446 965 384 947 q 576 983 508 983 q 724 954 658 983 q 838 870 791 924 q 910 738 885 815 q 935 565 935 660 m 917 565 q 893 733 917 658 q 824 861 869 808 q 716 941 779 913 q 574 969 652 969 q 450 952 510 969 q 340 901 391 935 q 246 819 288 868 q 174 708 204 770 q 128 570 144 646 q 112 408 112 495 q 136 240 112 315 q 206 113 161 165 q 315 32 251 60 q 455 4 378 4 q 638 43 553 4 q 785 154 723 81 q 882 331 847 226 q 917 565 917 435 z "},"Ø":{"ha":1013,"x_min":59,"x_max":960,"o":"m 217 101 q 322 29 262 54 q 455 4 382 4 q 638 43 553 4 q 785 154 723 81 q 882 331 847 226 q 917 565 917 435 q 894 729 917 656 q 829 855 872 802 l 217 101 m 819 866 q 713 943 774 916 q 574 969 651 969 q 450 952 510 969 q 340 901 391 935 q 246 819 288 868 q 174 708 204 770 q 128 570 144 646 q 112 408 112 495 q 137 239 112 314 q 208 112 162 165 l 819 866 m 840 868 q 910 737 885 813 q 935 565 935 660 q 899 326 935 433 q 797 145 862 220 q 644 31 733 71 q 453 -10 556 -10 q 315 15 377 -10 q 206 88 253 40 l 84 -62 q 67 -71 76 -71 l 59 -71 l 197 99 q 122 231 148 153 q 95 407 95 309 q 112 572 95 494 q 159 713 128 649 q 234 827 190 776 q 331 912 277 877 q 446 965 384 947 q 576 983 508 983 q 719 956 655 983 q 830 878 783 929 l 935 1008 q 942 1015 940 1013 q 951 1017 945 1017 l 960 1017 l 840 868 z "},"Œ":{"ha":1425,"x_min":97,"x_max":1419,"o":"m 419 6 q 586 45 509 6 q 721 157 664 84 q 810 335 778 231 q 842 572 842 440 q 821 737 842 663 q 760 862 799 810 q 664 942 720 914 q 537 969 607 969 q 371 930 448 969 q 236 817 294 890 q 146 638 179 743 q 113 401 113 533 q 135 236 113 310 q 197 112 157 163 q 293 33 237 60 q 419 6 349 6 m 915 957 l 860 501 l 1284 501 l 1283 486 l 858 486 l 800 15 l 1302 15 l 1299 0 l 781 0 l 822 326 q 757 185 797 247 q 665 80 717 123 q 550 14 613 37 q 415 -8 486 -8 q 283 20 342 -8 q 183 102 224 49 q 119 231 141 155 q 97 400 97 306 q 131 641 97 533 q 224 825 165 749 q 363 942 283 901 q 535 983 443 983 q 665 957 607 983 q 764 881 722 930 q 828 761 805 831 q 856 606 852 692 l 901 972 l 1419 972 l 1417 957 l 915 957 z "},"P":{"ha":721,"x_min":101,"x_max":696,"o":"m 357 431 q 487 454 428 431 q 589 518 546 477 q 655 614 631 558 q 679 736 679 670 q 615 901 679 844 q 422 958 551 958 l 236 958 l 171 431 l 357 431 m 424 972 q 627 914 558 972 q 696 739 696 856 q 670 608 696 667 q 599 506 644 549 q 491 440 553 463 q 356 417 428 417 l 169 417 l 118 0 l 101 0 l 221 972 l 424 972 z "},"Þ":{"ha":722,"x_min":101,"x_max":671,"o":"m 332 221 q 462 244 403 221 q 564 308 521 267 q 630 405 606 349 q 654 526 654 460 q 590 691 654 634 q 396 749 526 749 l 210 749 l 145 221 l 332 221 m 399 763 q 601 703 531 763 q 671 529 671 644 q 645 398 671 457 q 573 296 619 339 q 465 230 527 253 q 331 207 403 207 l 144 207 l 118 0 l 101 0 l 221 972 l 238 972 l 212 763 l 399 763 z "},"Q":{"ha":1013,"x_min":95,"x_max":935,"o":"m 112 408 q 136 240 112 315 q 206 113 161 165 q 315 32 251 60 q 455 4 378 4 q 638 43 553 4 q 785 154 723 81 q 882 331 847 226 q 917 565 917 435 q 893 733 917 658 q 824 861 869 808 q 716 941 779 913 q 574 969 652 969 q 450 952 510 969 q 340 901 391 935 q 246 819 288 868 q 174 708 204 770 q 128 570 144 646 q 112 408 112 495 m 658 36 q 560 2 611 14 q 453 -10 509 -10 q 306 20 372 -10 q 193 103 240 49 q 120 235 146 158 q 95 407 95 312 q 112 572 95 494 q 159 713 128 649 q 234 827 190 776 q 331 912 277 877 q 446 965 384 947 q 576 983 508 983 q 724 954 658 983 q 838 870 791 924 q 910 738 885 815 q 935 565 935 660 q 917 390 935 471 q 863 242 898 308 q 780 125 828 176 q 670 43 731 75 l 873 -226 l 863 -226 q 855 -225 858 -226 q 849 -221 851 -223 l 658 36 z "},"R":{"ha":760,"x_min":101,"x_max":692,"o":"m 178 483 l 357 483 q 487 502 428 483 q 588 558 546 522 q 652 646 629 594 q 675 764 675 698 q 612 911 675 863 q 428 958 549 958 l 236 958 l 232 922 l 178 483 m 429 972 q 624 922 557 972 q 692 765 692 871 q 668 643 692 697 q 601 551 644 590 q 498 492 558 513 q 369 469 439 472 q 379 462 374 467 q 388 451 383 458 l 681 0 l 669 0 q 660 1 664 0 q 653 8 657 2 l 374 444 q 364 456 369 451 q 353 464 359 461 q 338 468 347 467 q 315 469 328 469 l 176 469 l 118 0 l 101 0 l 221 972 l 429 972 z "},"S":{"ha":681,"x_min":35,"x_max":625,"o":"m 622 883 q 615 879 620 879 q 605 886 611 879 q 590 902 599 892 q 568 924 581 913 q 534 946 554 936 q 488 963 515 956 q 425 969 460 969 q 318 949 365 969 q 238 895 271 929 q 187 815 205 860 q 169 718 169 769 q 187 638 169 670 q 234 583 205 606 q 300 544 263 560 q 376 514 337 528 q 451 482 415 499 q 517 443 488 466 q 564 386 547 419 q 582 303 582 352 q 560 182 582 239 q 498 82 538 125 q 399 14 457 40 q 269 -11 341 -11 q 190 -2 224 -11 q 127 23 155 6 q 77 62 99 39 q 35 115 54 85 l 39 118 q 42 121 41 120 q 47 122 44 122 q 58 114 51 122 q 75 91 64 105 q 102 63 85 78 q 142 34 118 47 q 197 11 165 20 q 271 3 228 3 q 393 27 338 3 q 486 91 448 51 q 546 186 525 132 q 567 303 567 241 q 549 382 567 350 q 502 436 531 414 q 436 474 473 458 q 360 504 399 490 q 285 534 322 518 q 219 574 248 551 q 172 632 190 598 q 154 717 154 667 q 173 818 154 769 q 226 903 191 866 q 312 961 261 940 q 428 983 363 983 q 540 960 492 983 q 625 888 588 938 l 622 883 z "},"Ş":{"ha":681,"x_min":35,"x_max":625,"o":"m 622 883 q 615 879 620 879 q 605 886 611 879 q 590 902 599 892 q 568 924 581 913 q 534 946 554 936 q 488 963 515 956 q 425 969 460 969 q 318 949 365 969 q 238 895 271 929 q 187 815 205 860 q 169 718 169 769 q 187 638 169 670 q 234 583 205 606 q 300 544 263 560 q 376 514 337 528 q 451 482 415 499 q 517 443 488 466 q 564 386 547 419 q 582 303 582 352 q 561 185 582 241 q 501 86 540 129 q 407 18 463 44 q 283 -10 351 -8 l 256 -76 q 302 -87 281 -81 q 337 -102 322 -93 q 359 -124 351 -111 q 367 -156 367 -137 q 359 -195 367 -178 q 335 -224 350 -212 q 300 -242 320 -236 q 256 -249 280 -249 q 206 -239 231 -249 q 169 -212 181 -228 l 172 -210 q 179 -206 176 -206 q 187 -210 182 -206 q 202 -221 192 -215 q 225 -231 211 -226 q 262 -236 240 -236 q 328 -215 303 -236 q 352 -158 352 -194 q 343 -127 352 -140 q 319 -107 334 -115 q 283 -95 303 -99 q 239 -87 263 -90 l 271 -11 l 269 -11 q 190 -2 224 -11 q 127 23 155 6 q 77 62 99 39 q 35 115 54 85 l 39 118 q 42 121 41 120 q 47 122 44 122 q 58 114 51 122 q 75 91 64 105 q 102 63 85 78 q 142 34 118 47 q 197 11 165 20 q 271 3 228 3 q 393 27 338 3 q 486 91 448 51 q 546 186 525 132 q 567 303 567 241 q 549 382 567 350 q 502 436 531 414 q 436 474 473 458 q 360 504 399 490 q 285 534 322 518 q 219 574 248 551 q 172 632 190 598 q 154 717 154 667 q 173 818 154 769 q 226 903 191 866 q 312 961 261 940 q 428 983 363 983 q 540 960 492 983 q 625 888 588 938 l 622 883 z "},"T":{"ha":724,"x_min":82,"x_max":774,"o":"m 772 957 l 437 957 l 319 0 l 303 0 l 420 957 l 82 957 l 83 972 l 774 972 l 772 957 z "},"Ŧ":{"ha":757,"x_min":99,"x_max":790,"o":"m 453 957 l 408 589 l 635 589 l 633 575 l 407 575 l 336 0 l 319 0 l 390 575 l 160 575 l 161 589 l 392 589 l 437 957 l 99 957 l 100 972 l 790 972 l 789 957 l 453 957 z "},"U":{"ha":930,"x_min":125,"x_max":858,"o":"m 415 3 q 547 31 487 3 q 653 108 608 59 q 728 222 699 156 q 767 361 757 287 l 842 972 l 858 972 l 783 361 q 742 216 774 284 q 663 97 711 148 q 551 17 615 47 q 413 -12 488 -12 q 282 17 338 -12 q 190 97 226 47 q 140 216 154 148 q 135 361 125 284 l 210 972 l 226 972 l 151 363 q 156 223 142 288 q 202 108 169 157 q 289 31 235 59 q 415 3 343 3 z "},"Ų":{"ha":928,"x_min":125,"x_max":858,"o":"m 858 972 l 783 361 q 748 230 774 292 q 682 118 722 167 q 588 36 641 69 q 471 -8 534 3 q 437 -30 456 -16 q 401 -62 418 -44 q 372 -104 384 -81 q 360 -154 360 -127 q 382 -207 360 -187 q 436 -226 403 -226 q 472 -221 457 -226 q 497 -210 486 -216 q 513 -200 507 -205 q 523 -195 519 -195 q 526 -196 525 -195 q 528 -198 526 -197 l 531 -202 q 486 -230 513 -220 q 433 -240 460 -240 q 369 -218 394 -240 q 345 -157 345 -197 q 354 -111 345 -133 q 377 -71 363 -90 q 409 -38 392 -53 q 443 -11 426 -23 q 428 -12 435 -12 q 413 -12 420 -12 q 282 17 338 -12 q 190 97 226 47 q 140 216 154 148 q 135 361 125 284 l 210 972 l 226 972 l 151 363 q 156 223 142 288 q 202 108 169 157 q 289 31 235 59 q 415 3 343 3 q 547 31 487 3 q 653 108 608 59 q 728 222 699 156 q 767 361 757 287 l 842 972 l 858 972 z "},"V":{"ha":813,"x_min":95,"x_max":855,"o":"m 855 972 l 363 0 l 349 0 l 95 972 l 108 972 q 115 965 115 972 l 352 51 q 356 37 354 44 q 359 23 358 31 q 366 37 363 31 q 373 51 369 44 l 834 965 q 844 972 836 972 l 855 972 z "},"W":{"ha":1283,"x_min":108,"x_max":1310,"o":"m 1310 972 l 907 0 l 893 0 l 710 933 q 708 945 708 939 q 707 958 708 951 q 699 933 703 944 l 286 0 l 272 0 l 108 972 l 121 972 q 128 965 128 972 l 278 51 q 283 21 281 38 q 288 36 285 29 q 294 51 291 44 l 699 965 q 708 972 701 972 l 711 972 q 718 965 717 972 l 897 51 q 902 21 900 38 q 908 36 905 29 q 914 51 910 44 l 1288 965 q 1292 970 1289 969 q 1299 972 1295 972 l 1310 972 z "},"X":{"ha":778,"x_min":-22,"x_max":778,"o":"m 415 519 l 701 0 l 686 0 q 679 4 681 0 q 675 10 677 8 l 402 510 q 396 501 400 506 l 7 10 q 0 3 3 6 q -7 0 -3 0 l -22 0 l 392 519 l 140 972 l 154 972 q 162 969 160 972 q 168 961 165 967 l 405 528 q 411 538 406 532 l 751 965 q 758 971 755 969 q 765 972 761 972 l 778 972 l 415 519 z "},"Y":{"ha":730,"x_min":92,"x_max":775,"o":"m 374 413 l 322 0 l 306 0 l 357 413 l 92 972 l 106 972 q 114 967 112 972 l 358 446 q 363 437 360 442 q 367 427 365 433 q 373 437 370 433 q 379 446 376 442 l 751 967 q 761 972 755 972 l 775 972 l 374 413 z "},"Z":{"ha":754,"x_min":-1,"x_max":769,"o":"m 767 965 q 765 960 766 962 q 760 954 764 958 l 24 15 l 649 15 l 647 0 l -1 0 l 1 7 q 3 12 2 10 q 6 17 4 13 l 744 957 l 127 957 l 130 972 l 769 972 l 767 965 z "},"a":{"ha":678,"x_min":58,"x_max":590,"o":"m 574 649 q 520 669 548 663 q 460 675 492 675 q 363 658 410 675 q 272 610 315 640 q 192 537 228 579 q 130 444 156 494 q 89 339 103 394 q 74 226 74 283 q 83 135 74 176 q 110 66 92 94 q 156 21 128 37 q 224 6 185 6 q 312 28 269 6 q 395 94 356 51 q 470 199 435 138 q 535 336 506 260 l 574 649 m 532 299 q 471 175 505 231 q 398 78 438 119 q 315 14 358 37 q 224 -8 271 -8 q 148 9 179 -8 q 96 58 116 26 q 67 132 76 89 q 58 226 58 175 q 73 342 58 285 q 115 450 88 399 q 180 545 142 501 q 262 621 217 589 q 357 671 307 653 q 460 689 408 689 q 529 682 498 689 q 590 656 560 674 l 510 0 l 506 0 q 499 3 501 0 q 498 10 498 6 l 532 299 z "},"ą":{"ha":678,"x_min":58,"x_max":590,"o":"m 574 649 q 520 669 548 663 q 460 675 492 675 q 363 658 410 675 q 272 610 315 640 q 192 537 228 579 q 130 444 156 494 q 89 339 103 394 q 74 226 74 283 q 83 135 74 176 q 110 66 92 94 q 156 21 128 37 q 224 6 185 6 q 312 28 269 6 q 395 94 356 51 q 470 199 435 138 q 535 336 506 260 l 574 649 m 510 0 q 477 -22 496 -8 q 441 -55 458 -36 q 412 -96 424 -73 q 400 -147 400 -119 q 421 -199 400 -180 q 476 -218 442 -218 q 511 -213 497 -218 q 536 -203 526 -208 q 553 -192 547 -197 q 563 -187 559 -187 q 565 -188 565 -187 q 567 -190 566 -189 l 571 -194 q 526 -222 552 -212 q 473 -232 499 -232 q 409 -211 433 -232 q 385 -149 385 -190 q 396 -99 385 -122 q 424 -55 407 -75 q 461 -20 441 -35 q 498 6 481 -5 l 498 10 l 532 299 q 471 175 505 231 q 398 78 438 119 q 315 14 358 37 q 224 -8 271 -8 q 148 9 179 -8 q 96 58 116 26 q 67 132 76 89 q 58 226 58 175 q 73 342 58 285 q 115 450 88 399 q 180 545 142 501 q 262 621 217 589 q 357 671 307 653 q 460 689 408 689 q 529 682 498 689 q 590 656 560 674 l 510 0 z "},"æ":{"ha":1017,"x_min":36,"x_max":936,"o":"m 472 363 q 156 302 258 356 q 53 146 53 249 q 64 81 53 108 q 94 37 74 54 q 140 11 113 19 q 199 3 167 3 q 290 20 246 3 q 368 72 333 38 q 427 152 403 105 q 458 257 451 199 l 472 363 m 761 676 q 660 655 706 676 q 578 595 614 634 q 520 500 543 556 q 487 376 497 444 q 684 393 603 379 q 814 431 765 408 q 885 486 863 455 q 907 554 907 517 q 896 606 907 583 q 866 644 885 628 q 820 668 847 660 q 761 676 793 676 m 936 126 q 874 66 905 92 q 812 24 843 41 q 747 0 781 8 q 678 -8 714 -8 q 594 9 631 -8 q 531 58 558 26 q 489 135 505 90 q 469 238 474 181 q 444 154 461 191 q 405 89 428 117 q 356 43 383 62 q 301 11 329 24 q 247 -6 274 -1 q 197 -11 220 -11 q 134 -3 164 -11 q 83 24 105 6 q 49 72 61 42 q 36 143 36 101 q 62 240 36 198 q 142 312 88 283 q 278 357 195 341 q 473 376 360 374 l 482 450 q 461 617 496 558 q 342 676 426 676 q 255 661 292 676 q 191 626 217 645 q 150 592 165 608 q 129 576 134 576 q 122 581 126 576 l 121 583 q 226 664 173 636 q 343 692 278 692 q 417 677 386 692 q 467 635 448 663 q 494 568 486 608 q 499 479 501 529 q 541 568 515 528 q 600 635 567 607 q 674 677 633 663 q 761 692 715 692 q 826 682 797 692 q 877 654 856 672 q 910 611 899 636 q 922 554 922 585 q 899 478 922 513 q 823 418 875 443 q 688 378 771 392 q 485 364 605 364 q 482 324 483 344 q 481 282 481 303 q 494 165 481 217 q 534 78 508 114 q 597 24 560 43 q 679 6 633 6 q 751 15 719 6 q 809 38 783 24 q 855 68 835 52 q 890 98 875 84 q 914 121 904 112 q 928 131 923 131 q 935 128 932 131 l 936 126 z "},"b":{"ha":701,"x_min":70,"x_max":623,"o":"m 101 135 q 139 75 117 99 q 184 35 160 50 q 236 13 209 19 q 292 6 264 6 q 385 26 342 6 q 463 80 428 46 q 525 159 498 114 q 570 255 552 205 q 598 357 589 305 q 608 457 608 409 q 597 548 608 508 q 567 617 587 589 q 516 661 547 646 q 447 676 486 676 q 357 653 401 676 q 271 587 313 630 q 192 482 229 544 q 126 344 156 421 l 101 135 m 131 385 q 194 508 158 452 q 270 605 230 565 q 356 668 311 645 q 447 690 401 690 q 525 673 492 690 q 580 624 558 655 q 613 550 602 592 q 623 457 623 507 q 613 354 623 408 q 583 248 603 300 q 534 150 563 197 q 469 68 506 103 q 387 13 432 33 q 291 -8 342 -8 q 178 22 231 -8 q 97 113 126 51 l 81 10 q 80 3 80 6 q 74 0 80 0 l 70 0 l 191 1000 l 206 1000 l 131 385 z "},"c":{"ha":634,"x_min":63,"x_max":572,"o":"m 547 126 q 475 58 508 84 q 411 17 442 31 q 349 -3 380 2 q 285 -8 319 -8 q 185 12 227 -8 q 116 68 143 33 q 76 152 89 103 q 63 257 63 201 q 74 364 63 310 q 106 466 85 417 q 156 555 126 514 q 221 627 185 597 q 301 674 258 657 q 392 692 344 692 q 452 685 426 692 q 501 666 479 678 q 540 638 522 654 q 572 601 557 621 l 569 599 q 562 596 566 596 q 547 609 557 596 q 518 637 538 622 q 468 665 499 652 q 391 678 438 678 q 267 642 324 678 q 168 547 210 606 q 103 412 126 488 q 80 257 80 336 q 91 158 80 204 q 128 78 103 113 q 192 25 153 44 q 285 6 231 6 q 361 15 327 6 q 420 38 394 24 q 466 68 447 52 q 500 98 485 84 q 523 121 514 112 q 538 131 532 131 q 545 128 542 131 l 547 126 l 547 126 z "},"ç":{"ha":634,"x_min":63,"x_max":572,"o":"m 283 -8 q 184 13 226 -8 q 116 69 142 33 q 76 152 89 104 q 63 257 63 201 q 74 364 63 310 q 106 466 85 417 q 156 555 126 514 q 221 627 185 597 q 301 674 258 657 q 392 692 344 692 q 452 685 426 692 q 501 666 479 678 q 540 638 522 654 q 572 601 557 621 l 569 599 q 562 596 566 596 q 547 609 557 596 q 518 637 538 622 q 468 665 499 652 q 391 678 438 678 q 267 642 324 678 q 168 547 210 606 q 103 412 126 488 q 80 257 80 336 q 91 158 80 204 q 128 78 103 113 q 192 25 153 44 q 285 6 231 6 q 361 15 327 6 q 420 38 394 24 q 466 68 447 52 q 500 98 485 84 q 523 121 514 112 q 538 131 532 131 q 545 128 542 131 l 547 126 q 478 60 510 85 q 416 19 446 34 q 357 -2 386 4 q 295 -8 327 -8 l 267 -76 q 313 -87 292 -81 q 348 -102 333 -93 q 370 -124 363 -111 q 378 -156 378 -137 q 370 -195 378 -178 q 346 -224 361 -212 q 311 -242 331 -236 q 267 -249 291 -249 q 217 -239 242 -249 q 180 -212 192 -228 l 183 -210 q 190 -206 188 -206 q 198 -210 193 -206 q 213 -221 203 -215 q 236 -231 222 -226 q 273 -236 251 -236 q 339 -215 315 -236 q 363 -158 363 -194 q 354 -127 363 -140 q 330 -107 345 -115 q 294 -95 315 -99 q 250 -87 274 -90 l 283 -8 z "},"d":{"ha":701,"x_min":60,"x_max":653,"o":"m 582 549 q 544 609 565 585 q 498 648 523 633 q 447 670 474 663 q 391 676 419 676 q 298 656 341 676 q 220 602 256 636 q 158 523 185 568 q 113 428 131 478 q 85 326 94 378 q 76 226 76 274 q 86 135 76 176 q 117 66 97 94 q 167 21 137 37 q 237 6 197 6 q 326 28 281 6 q 411 94 370 51 q 490 199 453 138 q 556 336 526 260 l 582 549 m 653 1000 l 531 0 l 527 0 q 520 3 522 0 q 519 10 519 6 l 553 300 q 490 175 526 232 q 414 78 454 119 q 328 14 373 37 q 237 -8 283 -8 q 158 10 192 -8 q 103 59 125 28 q 71 133 81 90 q 60 226 60 176 q 70 330 60 276 q 100 435 81 383 q 149 533 120 487 q 215 614 178 579 q 296 670 251 649 q 392 690 340 690 q 451 683 422 690 q 504 661 479 676 q 550 624 529 647 q 585 572 570 602 l 638 1000 l 653 1000 z "},"ď":{"ha":701,"x_min":60,"x_max":809,"o":"m 801 1001 q 809 990 809 1001 q 806 970 809 983 q 796 937 803 958 q 779 887 790 917 q 755 817 769 858 q 751 810 753 813 q 744 807 749 807 l 740 807 l 794 1001 l 801 1001 m 582 549 q 544 609 565 585 q 498 648 523 633 q 447 670 474 663 q 391 676 419 676 q 298 656 341 676 q 220 602 256 636 q 158 523 185 568 q 113 428 131 478 q 85 326 94 378 q 76 226 76 274 q 86 135 76 176 q 117 66 97 94 q 167 21 137 37 q 237 6 197 6 q 326 28 281 6 q 411 94 370 51 q 490 199 453 138 q 556 336 526 260 l 582 549 m 653 1000 l 531 0 l 527 0 q 520 3 522 0 q 519 10 519 6 l 553 300 q 490 175 526 232 q 414 78 454 119 q 328 14 373 37 q 237 -8 283 -8 q 158 10 192 -8 q 103 59 125 28 q 71 133 81 90 q 60 226 60 176 q 70 330 60 276 q 100 435 81 383 q 149 533 120 487 q 215 614 178 579 q 296 670 251 649 q 392 690 340 690 q 451 683 422 690 q 504 661 479 676 q 550 624 529 647 q 585 572 570 602 l 638 1000 l 653 1000 z "},"đ":{"ha":701,"x_min":60,"x_max":734,"o":"m 582 549 q 544 609 565 585 q 498 648 523 633 q 447 670 474 663 q 391 676 419 676 q 298 656 341 676 q 220 602 256 636 q 158 523 185 568 q 113 428 131 478 q 85 326 94 378 q 76 226 76 274 q 86 135 76 176 q 117 66 97 94 q 167 21 137 37 q 237 6 197 6 q 326 28 281 6 q 411 94 370 51 q 490 199 453 138 q 556 336 526 260 l 582 549 m 733 813 l 631 813 l 531 0 l 527 0 q 520 3 522 0 q 519 10 519 6 l 553 300 q 490 175 526 232 q 414 78 454 119 q 328 14 373 37 q 237 -8 283 -8 q 158 10 192 -8 q 103 59 125 28 q 71 133 81 90 q 60 226 60 176 q 70 330 60 276 q 100 435 81 383 q 149 533 120 487 q 215 614 178 579 q 296 670 251 649 q 392 690 340 690 q 451 683 422 690 q 504 661 479 676 q 550 624 529 647 q 585 572 570 602 l 615 813 l 458 813 q 450 816 451 813 q 451 822 449 820 l 452 826 l 617 826 l 638 1000 l 653 1000 l 632 826 l 734 826 l 733 813 z "},"ð":{"ha":716,"x_min":65,"x_max":629,"o":"m 296 7 q 506 107 428 7 q 606 394 583 207 q 586 474 601 433 q 542 548 570 515 q 474 601 515 581 q 378 622 433 622 q 251 594 306 622 q 158 517 196 565 q 101 403 121 468 q 82 265 82 338 q 99 158 82 206 q 144 76 115 110 q 212 25 173 43 q 296 7 251 7 m 485 859 q 543 798 517 833 q 589 718 569 763 q 618 620 608 674 q 629 500 629 565 q 609 301 629 394 q 547 140 588 209 q 442 32 505 72 q 294 -7 379 -7 q 203 12 245 -7 q 131 67 162 31 q 83 152 100 102 q 65 264 65 202 q 87 407 65 340 q 149 526 108 475 q 248 607 190 577 q 379 636 306 636 q 450 625 413 636 q 519 590 487 614 q 576 526 551 565 q 611 432 601 488 q 610 570 617 507 q 585 685 603 633 q 540 778 567 738 q 476 850 512 819 l 371 743 l 367 747 q 365 751 366 748 q 367 756 365 753 l 467 858 q 380 910 427 890 q 280 939 332 930 q 272 948 270 940 l 274 953 q 379 923 327 943 q 476 867 431 902 l 578 971 l 581 967 q 582 963 582 966 q 580 956 583 959 l 485 859 z "},"e":{"ha":639,"x_min":63,"x_max":563,"o":"m 398 676 q 280 648 332 676 q 188 573 227 619 q 123 467 149 526 q 87 346 98 408 q 264 371 190 357 q 390 402 338 385 q 473 438 441 419 q 522 478 504 457 q 545 520 539 499 q 551 565 551 542 q 543 601 551 582 q 517 638 535 621 q 470 665 499 654 q 398 676 440 676 m 545 126 q 482 66 513 91 q 419 24 451 40 q 356 -1 388 7 q 287 -8 323 -8 q 189 10 231 -8 q 119 61 147 28 q 77 143 91 94 q 63 251 63 191 q 73 354 63 301 q 102 455 83 406 q 150 547 122 503 q 216 622 178 590 q 298 672 253 653 q 398 690 344 690 q 478 677 447 690 q 529 644 510 664 q 556 603 548 625 q 563 565 563 582 q 556 514 563 538 q 530 467 549 489 q 476 425 510 444 q 389 389 442 406 q 261 357 336 372 q 85 332 186 343 q 78 251 78 291 q 92 149 78 194 q 131 72 105 103 q 196 23 157 40 q 288 6 235 6 q 360 15 328 6 q 418 38 392 24 q 464 68 444 52 q 498 98 483 84 q 522 121 512 112 q 537 131 531 131 q 544 128 541 131 l 545 126 z "},"ę":{"ha":639,"x_min":63,"x_max":563,"o":"m 398 676 q 280 648 332 676 q 188 573 227 619 q 123 467 149 526 q 87 346 98 408 q 264 371 190 357 q 390 402 338 385 q 473 438 441 419 q 522 478 504 457 q 545 520 539 499 q 551 565 551 542 q 543 601 551 582 q 517 638 535 621 q 470 665 499 654 q 398 676 440 676 m 419 -194 q 374 -222 400 -212 q 321 -232 347 -232 q 257 -211 281 -232 q 233 -149 233 -190 q 241 -105 233 -126 q 264 -65 250 -83 q 294 -32 277 -47 q 328 -6 311 -17 q 308 -8 318 -7 q 287 -8 297 -8 q 189 10 231 -8 q 119 61 147 28 q 77 143 91 94 q 63 251 63 191 q 73 354 63 301 q 102 455 83 406 q 150 547 122 503 q 216 622 178 590 q 298 672 253 653 q 398 690 344 690 q 478 677 447 690 q 529 644 510 664 q 556 603 548 625 q 563 565 563 582 q 556 514 563 538 q 530 467 549 489 q 476 425 510 444 q 389 389 442 406 q 261 357 336 372 q 85 332 186 343 q 78 251 78 291 q 92 149 78 194 q 131 72 105 103 q 196 23 157 40 q 288 6 235 6 q 360 15 328 6 q 418 38 392 24 q 464 68 444 52 q 498 98 483 84 q 522 121 512 112 q 537 131 531 131 q 544 128 541 131 l 545 126 q 452 43 497 74 q 358 0 407 12 q 325 -22 344 -8 q 289 -55 306 -36 q 260 -96 272 -73 q 248 -147 248 -119 q 269 -199 248 -180 q 324 -218 290 -218 q 359 -213 344 -218 q 384 -203 374 -208 q 401 -192 394 -197 q 410 -187 407 -187 q 413 -188 413 -187 q 415 -190 414 -189 l 419 -194 z "},"f":{"ha":413,"x_min":68,"x_max":461,"o":"m 192 639 l 115 7 l 89 -167 q 85 -174 88 -172 q 81 -175 83 -175 l 78 -175 l 177 639 l 75 642 q 68 647 68 642 l 68 651 l 178 651 l 192 756 q 217 857 199 814 q 261 927 235 899 q 321 968 288 955 q 392 982 354 982 q 428 978 410 982 q 461 967 447 974 l 458 961 q 452 957 457 956 q 440 960 448 958 q 419 965 431 963 q 390 968 407 968 q 327 957 357 968 q 273 920 297 945 q 231 854 249 894 q 207 756 214 813 l 193 651 l 406 651 l 403 639 l 192 639 z "},"ﬀ":{"ha":805,"x_min":68,"x_max":842,"o":"m 574 651 l 798 651 l 796 638 l 574 638 l 497 7 l 470 -167 q 466 -174 469 -172 q 462 -175 464 -175 l 459 -175 l 558 638 l 194 638 l 117 7 l 91 -167 q 87 -174 90 -172 q 83 -175 85 -175 l 80 -175 l 179 638 l 76 640 q 68 646 68 640 l 69 651 l 181 651 l 193 749 q 218 850 200 807 q 263 920 237 892 q 322 961 289 948 q 393 975 356 975 q 430 971 411 975 q 463 960 449 967 l 460 954 q 453 951 458 950 q 440 953 449 951 q 420 958 432 956 q 392 961 408 961 q 328 950 358 961 q 274 913 298 938 q 233 847 250 888 q 208 749 215 806 l 195 651 l 560 651 l 573 756 q 598 857 580 814 q 643 927 617 899 q 702 968 669 955 q 773 982 735 982 q 810 978 791 982 q 842 967 828 974 l 840 961 q 833 958 838 957 q 820 960 828 958 q 800 965 812 963 q 772 968 788 968 q 708 957 738 968 q 654 920 678 945 q 613 854 630 894 q 588 756 595 813 l 574 651 z "},"ﬁ":{"ha":653,"x_min":68,"x_max":554,"o":"m 196 651 l 554 651 l 474 0 l 457 0 l 535 638 l 195 638 l 117 7 l 90 -167 q 86 -174 89 -172 q 82 -175 84 -175 l 79 -175 l 179 638 l 75 640 q 68 646 68 640 l 68 651 l 181 651 l 190 728 q 220 840 198 791 q 276 920 243 888 q 353 969 310 953 q 446 986 397 986 q 467 985 455 986 q 491 982 479 984 q 513 977 502 980 q 529 971 523 974 l 528 965 q 521 961 526 960 q 506 964 516 962 q 481 969 497 967 q 444 972 466 972 q 359 958 399 972 q 288 913 319 943 q 236 837 257 883 q 207 728 215 791 l 196 651 z "},"ﬃ":{"ha":1029,"x_min":68,"x_max":932,"o":"m 930 638 l 852 0 l 835 0 l 913 638 l 572 638 l 493 7 l 467 -167 q 463 -174 465 -172 q 458 -175 460 -175 l 456 -175 l 556 638 l 194 638 l 117 7 l 91 -167 q 87 -174 90 -172 q 83 -175 85 -175 l 80 -175 l 179 638 l 76 640 q 68 646 68 640 l 69 651 l 181 651 l 193 749 q 218 850 200 807 q 263 920 237 892 q 322 961 289 948 q 393 975 356 975 q 430 971 411 975 q 463 960 449 967 l 460 954 q 453 951 458 950 q 440 953 449 951 q 420 958 432 956 q 392 961 408 961 q 328 950 358 961 q 274 913 298 938 q 233 847 250 888 q 208 749 215 806 l 195 651 l 557 651 l 567 728 q 597 840 574 791 q 653 920 619 888 q 730 969 686 953 q 822 986 773 986 q 843 985 831 986 q 867 982 856 984 q 889 977 878 980 q 906 971 899 974 l 904 965 q 898 961 903 960 q 883 964 892 962 q 858 969 873 967 q 821 972 842 972 q 736 958 776 972 q 665 913 696 943 q 612 837 633 883 q 583 728 591 791 l 572 651 l 932 651 l 931 638 l 930 638 z "},"ﬂ":{"ha":691,"x_min":68,"x_max":632,"o":"m 195 639 l 117 7 l 90 -167 q 86 -174 89 -172 q 82 -175 84 -175 l 79 -175 l 179 638 l 75 640 q 68 646 68 640 l 68 651 l 181 651 l 188 704 q 218 820 195 767 q 277 909 241 872 q 361 967 313 947 q 467 988 409 988 q 549 983 508 988 q 624 978 590 978 l 632 978 l 513 0 l 496 0 l 614 967 q 541 970 581 967 q 465 974 501 974 q 366 955 411 974 q 288 900 322 935 q 232 815 254 865 q 203 704 210 765 l 196 651 l 394 651 l 393 639 l 195 639 z "},"ﬄ":{"ha":1069,"x_min":68,"x_max":1010,"o":"m 195 651 l 559 651 l 566 704 q 597 820 574 767 q 656 909 619 872 q 740 967 692 947 q 845 988 788 988 q 923 983 885 988 q 994 978 961 978 l 1010 978 l 891 0 l 874 0 l 992 967 q 920 970 960 967 q 844 974 880 974 q 745 955 790 974 q 666 900 700 935 q 611 815 633 865 q 581 704 589 765 l 574 651 l 798 651 l 796 638 l 574 638 l 495 7 l 469 -167 q 465 -174 467 -172 q 460 -175 463 -175 l 458 -175 l 558 638 l 194 638 l 117 7 l 91 -167 q 87 -174 90 -172 q 83 -175 85 -175 l 80 -175 l 179 638 l 76 640 q 68 646 68 640 l 69 651 l 181 651 l 193 749 q 218 850 200 807 q 263 920 237 892 q 322 961 289 948 q 393 975 356 975 q 430 971 411 975 q 463 960 449 967 l 460 954 q 453 951 458 950 q 440 953 449 951 q 420 958 432 956 q 392 961 408 961 q 328 950 358 961 q 274 913 298 938 q 233 847 250 888 q 208 749 215 806 l 195 651 z "},"g":{"ha":615,"x_min":-27,"x_max":616,"o":"m 494 514 q 482 585 494 555 q 449 636 470 616 q 398 666 428 656 q 331 676 367 676 q 240 657 280 676 q 173 605 200 637 q 131 531 145 572 q 116 444 116 489 q 160 319 116 361 q 277 276 204 276 q 368 297 328 276 q 436 351 408 318 q 479 427 465 385 q 494 514 494 470 m 478 -53 q 473 -9 478 -28 q 457 26 467 10 q 435 55 447 42 q 410 81 423 69 q 227 84 306 94 q 95 47 148 74 q 16 -19 42 20 q -12 -104 -11 -59 q 4 -165 -12 -139 q 49 -210 20 -192 q 118 -238 78 -228 q 205 -247 158 -247 q 317 -230 267 -247 q 403 -186 367 -213 q 458 -124 439 -158 q 478 -53 478 -89 m 616 657 l 616 651 q 614 647 616 649 q 603 644 611 644 l 460 643 q 495 588 483 621 q 508 514 508 556 q 496 438 507 472 q 470 376 485 404 q 436 323 454 347 q 402 277 417 299 q 376 232 387 254 q 366 185 366 209 q 375 148 366 165 q 399 115 385 131 q 430 82 413 99 q 461 45 447 65 q 484 1 475 25 q 494 -53 494 -23 q 472 -130 493 -92 q 412 -197 451 -167 q 320 -243 374 -226 q 203 -261 267 -261 q 111 -251 153 -261 q 38 -221 69 -241 q -10 -172 8 -201 q -27 -104 -27 -143 q 4 -10 -26 -53 q 90 60 35 33 q 224 98 146 88 q 397 95 301 108 q 365 135 378 115 q 352 185 351 156 q 355 211 352 198 q 363 238 357 224 q 381 270 369 253 q 410 310 392 288 q 345 275 379 288 q 277 263 311 263 q 205 275 238 263 q 149 310 172 287 q 114 367 126 333 q 101 444 101 401 q 116 535 101 491 q 162 614 132 579 q 234 669 192 648 q 331 690 277 690 q 444 657 399 690 l 616 657 z "},"h":{"ha":699,"x_min":70,"x_max":595,"o":"m 135 416 q 199 529 163 478 q 276 616 235 580 q 360 671 317 651 q 448 690 404 690 q 523 673 492 690 q 570 624 553 656 q 591 544 587 591 q 588 436 595 497 l 537 0 l 522 0 l 573 436 q 576 538 580 493 q 557 613 572 582 q 514 660 542 644 q 447 676 487 676 q 361 656 404 676 q 277 597 318 635 q 199 503 236 558 q 131 381 162 449 l 85 0 l 70 0 l 191 1000 l 206 1000 l 135 416 z "},"ĥ":{"ha":699,"x_min":49,"x_max":595,"o":"m 77 1074 q 70 1069 74 1070 q 63 1068 67 1068 l 49 1068 l 215 1200 l 226 1200 l 358 1068 l 344 1068 q 338 1069 342 1068 q 333 1074 335 1070 l 222 1185 l 219 1188 l 216 1185 l 77 1074 m 135 416 q 199 529 163 478 q 276 616 235 580 q 360 671 317 651 q 448 690 404 690 q 523 673 492 690 q 570 624 553 656 q 591 544 587 591 q 588 436 595 497 l 537 0 l 522 0 l 573 436 q 576 538 580 493 q 557 613 572 582 q 514 660 542 644 q 447 676 487 676 q 361 656 404 676 q 277 597 318 635 q 199 503 236 558 q 131 381 162 449 l 85 0 l 70 0 l 191 1000 l 206 1000 l 135 416 z "},"ħ":{"ha":699,"x_min":45,"x_max":595,"o":"m 135 416 q 199 529 163 478 q 276 616 235 580 q 360 671 317 651 q 448 690 404 690 q 523 673 492 690 q 570 624 553 656 q 591 544 587 591 q 588 436 595 497 l 537 0 l 522 0 l 573 436 q 576 538 580 493 q 557 613 572 582 q 514 660 542 644 q 447 676 487 676 q 361 656 404 676 q 277 597 318 635 q 199 503 236 558 q 131 381 162 449 l 85 0 l 70 0 l 168 813 l 45 813 l 47 826 l 170 826 l 191 1000 l 206 1000 l 185 826 l 352 826 l 351 821 q 337 813 349 813 l 183 813 l 135 416 z "},"i":{"ha":272,"x_min":78,"x_max":231,"o":"m 176 681 l 93 0 l 78 0 l 161 681 l 176 681 m 231 933 q 219 907 231 919 q 194 896 208 896 q 169 907 180 896 q 158 933 158 919 q 169 961 158 949 q 194 972 180 972 q 219 961 208 972 q 231 933 231 949 z "},"į":{"ha":272,"x_min":-33,"x_max":231,"o":"m 92 0 q 59 -22 78 -8 q 23 -55 40 -36 q -6 -96 6 -73 q -18 -147 -18 -119 q 3 -199 -18 -180 q 58 -218 24 -218 q 93 -213 78 -218 q 118 -203 108 -208 q 135 -192 128 -197 q 144 -187 141 -187 q 147 -188 147 -187 q 149 -190 148 -189 l 153 -194 q 108 -222 134 -212 q 55 -232 81 -232 q -9 -211 15 -232 q -33 -149 -33 -190 q -23 -99 -33 -122 q 5 -56 -12 -76 q 41 -21 22 -37 q 78 6 60 -6 l 161 681 l 176 681 l 93 0 l 92 0 m 194 972 q 219 961 208 972 q 231 933 231 949 q 219 907 231 919 q 194 896 208 896 q 169 907 180 896 q 158 933 158 919 q 169 961 158 949 q 194 972 180 972 z "},"ı":{"ha":272,"x_min":78,"x_max":176,"o":"m 176 681 l 93 0 l 78 0 l 161 681 l 176 681 z "},"j":{"ha":272,"x_min":-115,"x_max":235,"o":"m 176 681 l 78 -119 q 63 -176 74 -150 q 32 -220 51 -201 q -11 -249 13 -239 q -64 -260 -35 -260 q -93 -256 -81 -260 q -115 -244 -105 -252 l -112 -239 q -106 -234 -110 -233 q -97 -237 -102 -234 q -83 -243 -92 -240 q -62 -246 -75 -246 q 23 -211 -9 -246 q 63 -119 55 -176 l 161 681 l 176 681 m 235 933 q 224 907 235 919 q 199 896 213 896 q 173 907 184 896 q 163 933 163 919 q 173 961 163 949 q 199 972 184 972 q 224 961 213 972 q 235 933 235 949 z "},"ȷ":{"ha":272,"x_min":-115,"x_max":176,"o":"m 176 681 l 78 -119 q 63 -176 74 -150 q 32 -220 51 -201 q -11 -249 13 -239 q -64 -260 -35 -260 q -93 -256 -81 -260 q -115 -244 -105 -252 l -112 -239 q -106 -234 -110 -233 q -97 -237 -102 -234 q -83 -243 -92 -240 q -62 -246 -75 -246 q 23 -211 -9 -246 q 63 -119 55 -176 l 161 681 l 176 681 z "},"k":{"ha":576,"x_min":69,"x_max":561,"o":"m 207 1000 l 130 372 l 160 372 q 177 374 170 372 q 193 385 183 376 l 525 669 q 536 678 531 675 q 550 681 542 681 l 561 681 l 207 379 q 189 367 197 371 q 203 360 197 365 q 214 350 209 356 l 503 0 l 492 0 q 482 1 486 0 q 474 8 478 3 l 201 340 q 182 356 192 352 q 154 360 173 360 l 128 360 l 85 0 l 69 0 l 192 1000 l 207 1000 z "},"ĸ":{"ha":575,"x_min":69,"x_max":560,"o":"m 169 681 l 130 372 l 159 372 q 173 373 165 372 q 192 385 181 374 l 524 669 q 535 678 530 675 q 549 681 541 681 l 560 681 l 206 379 q 188 367 196 371 q 202 360 197 365 q 213 350 208 356 l 502 0 l 491 0 q 482 1 485 0 q 473 8 478 3 l 201 340 q 182 356 191 352 q 153 360 172 360 l 128 360 l 84 0 l 69 0 l 153 681 l 169 681 z "},"ł":{"ha":351,"x_min":44,"x_max":353,"o":"m 353 646 l 353 642 q 352 634 353 638 q 344 628 351 631 l 209 561 l 140 0 l 126 0 l 194 555 l 44 482 l 44 486 q 46 494 44 492 q 53 500 47 497 l 195 572 l 247 1000 l 263 1000 l 211 578 l 353 646 z "},"ľ":{"ha":271,"x_min":78,"x_max":391,"o":"m 383 1001 q 391 990 391 1001 q 388 970 391 983 q 378 937 385 958 q 361 887 372 917 q 337 817 351 858 q 333 810 335 813 q 326 807 331 807 l 322 807 l 376 1001 l 383 1001 m 78 0 l 199 1000 l 215 1000 l 92 0 l 78 0 z "},"m":{"ha":1075,"x_min":70,"x_max":970,"o":"m 70 0 l 152 683 l 155 683 q 162 680 160 683 q 163 674 163 677 l 133 408 q 194 525 160 473 q 267 614 228 577 q 349 670 306 651 q 435 690 391 690 q 506 673 480 690 q 544 624 532 656 q 555 544 556 591 q 548 436 555 497 q 609 548 574 500 q 683 627 644 596 q 763 675 722 659 q 842 690 804 690 q 914 673 887 690 q 955 624 942 656 q 969 544 968 591 q 963 436 970 497 l 912 0 l 897 0 l 948 436 q 954 538 955 493 q 942 613 953 582 q 906 660 931 644 q 841 676 881 676 q 764 660 803 676 q 685 611 724 644 q 611 527 647 578 q 546 405 575 476 l 498 0 l 483 0 l 534 436 q 542 538 541 493 q 532 613 542 582 q 498 660 522 644 q 434 676 475 676 q 268 599 344 676 q 130 374 192 521 l 85 0 l 70 0 z "},"n":{"ha":701,"x_min":70,"x_max":604,"o":"m 133 408 q 197 525 161 473 q 275 614 233 577 q 360 670 316 651 q 449 690 405 690 q 571 624 538 690 q 590 436 604 557 l 538 0 l 523 0 l 574 436 q 577 538 581 493 q 558 613 574 582 q 516 660 543 644 q 448 676 488 676 q 361 655 405 676 q 275 595 317 634 q 197 500 234 556 q 130 374 160 444 l 85 0 l 70 0 l 152 683 l 155 683 q 162 680 160 683 q 163 674 163 677 l 133 408 z "},"ŋ":{"ha":701,"x_min":70,"x_max":604,"o":"m 133 408 q 197 525 161 473 q 275 614 233 577 q 360 670 316 651 q 449 690 405 690 q 571 624 538 690 q 590 436 604 557 l 538 0 l 531 -60 q 473 -209 519 -157 q 350 -261 426 -261 q 308 -257 328 -261 q 269 -243 289 -252 l 271 -238 q 275 -233 272 -234 q 278 -233 277 -233 q 301 -240 283 -233 q 351 -247 319 -247 q 461 -200 418 -247 q 516 -60 505 -153 l 523 0 l 574 436 q 577 538 581 493 q 558 613 574 582 q 516 660 543 644 q 448 676 488 676 q 361 655 405 676 q 275 595 317 634 q 197 500 234 556 q 130 374 160 444 l 85 0 l 70 0 l 152 683 l 155 683 q 162 680 160 683 q 163 674 164 677 l 133 408 z "},"o":{"ha":706,"x_min":65,"x_max":624,"o":"m 300 6 q 425 41 369 6 q 522 133 482 76 q 585 265 563 191 q 607 415 607 338 q 592 525 607 476 q 548 607 576 573 q 479 658 519 640 q 389 676 439 676 q 302 661 343 676 q 228 617 262 645 q 167 550 194 589 q 121 466 140 512 q 92 370 102 421 q 82 268 82 320 q 97 158 82 207 q 141 76 113 110 q 209 24 169 42 q 300 6 249 6 m 299 -8 q 201 11 244 -8 q 127 66 158 31 q 81 153 97 102 q 65 268 65 204 q 76 374 65 322 q 106 473 86 426 q 154 559 126 519 q 218 628 182 599 q 298 674 254 658 q 390 690 341 690 q 488 671 444 690 q 561 616 531 651 q 607 529 591 580 q 624 415 624 478 q 613 310 624 363 q 583 211 603 258 q 535 124 563 164 q 471 54 507 83 q 391 8 435 25 q 299 -8 348 -8 z "},"ø":{"ha":706,"x_min":44,"x_max":638,"o":"m 150 65 q 300 6 206 6 q 425 41 369 6 q 522 133 482 76 q 585 265 563 191 q 607 415 607 338 q 593 521 607 474 q 552 602 578 568 l 150 65 m 542 614 q 475 661 514 645 q 389 678 437 678 q 302 662 343 678 q 228 618 262 646 q 167 551 194 590 q 121 467 140 513 q 92 371 102 422 q 82 268 82 320 q 97 159 82 207 q 140 76 112 110 l 542 614 m 562 615 q 608 529 592 579 q 624 415 624 478 q 613 310 624 363 q 583 211 603 258 q 535 124 563 164 q 471 54 507 83 q 391 8 435 25 q 299 -8 348 -8 q 210 7 249 -8 q 140 53 170 23 l 69 -43 q 54 -51 63 -51 l 44 -51 l 131 63 q 82 151 99 99 q 65 268 65 203 q 76 374 65 322 q 106 473 86 426 q 154 560 126 520 q 218 629 182 600 q 298 675 254 658 q 390 692 341 692 q 481 675 440 692 q 552 627 522 658 l 613 708 q 618 715 616 713 q 626 717 621 717 l 638 717 l 562 615 z "},"œ":{"ha":1124,"x_min":65,"x_max":1040,"o":"m 270 6 q 394 36 340 6 q 488 119 449 66 q 549 247 526 173 q 577 408 572 321 q 571 517 581 467 q 538 602 561 566 q 478 658 515 638 q 391 678 442 678 q 264 647 321 678 q 166 557 207 615 q 103 416 126 499 q 81 229 81 333 q 91 147 81 187 q 124 75 101 106 q 183 25 147 44 q 270 6 219 6 m 871 678 q 764 654 813 678 q 678 588 715 631 q 617 484 641 544 q 585 349 593 424 q 810 387 724 365 q 945 436 897 409 q 1010 494 993 463 q 1028 556 1028 525 q 1019 602 1028 580 q 991 641 1010 624 q 942 668 972 658 q 871 678 912 678 m 1038 126 q 975 66 1006 92 q 913 24 944 41 q 849 0 882 8 q 779 -8 815 -8 q 690 12 729 -8 q 624 69 651 32 q 584 158 598 106 q 569 277 569 211 q 526 159 553 212 q 459 69 498 106 q 372 12 421 32 q 266 -8 324 -8 q 174 11 213 -8 q 112 64 136 31 q 76 139 88 97 q 65 228 65 182 q 89 424 65 338 q 158 569 114 510 q 262 660 201 629 q 394 692 322 692 q 481 674 444 692 q 542 623 517 656 q 578 543 566 590 q 590 441 590 497 q 633 545 606 499 q 696 624 660 591 q 776 674 732 656 q 872 692 821 692 q 944 682 913 692 q 997 654 975 672 q 1029 611 1018 636 q 1040 556 1040 586 q 1033 510 1040 533 q 1006 466 1025 488 q 954 426 987 445 q 870 390 921 407 q 749 360 819 374 q 584 335 678 346 q 582 282 582 309 q 596 165 582 217 q 635 78 610 114 q 698 24 661 43 q 781 6 735 6 q 852 15 820 6 q 911 38 885 24 q 957 68 937 52 q 991 98 976 84 q 1015 121 1006 112 q 1029 131 1024 131 q 1036 128 1033 131 l 1038 126 z "},"p":{"ha":701,"x_min":39,"x_max":624,"o":"m 101 135 q 139 75 118 99 q 185 35 160 50 q 237 13 210 19 q 293 6 265 6 q 386 26 343 6 q 464 80 428 46 q 526 159 499 114 q 571 255 553 205 q 599 357 590 305 q 608 457 608 409 q 598 548 608 508 q 567 617 588 589 q 517 661 547 646 q 447 676 487 676 q 357 653 402 676 q 271 587 313 630 q 193 482 230 544 q 127 343 156 420 l 101 135 m 131 383 q 194 507 158 451 q 270 605 230 564 q 356 668 311 645 q 447 690 401 690 q 526 673 492 690 q 581 624 559 655 q 613 550 603 592 q 624 457 624 507 q 614 354 624 408 q 584 248 603 300 q 535 150 564 197 q 469 68 506 103 q 388 13 433 33 q 292 -8 343 -8 q 180 21 232 -8 q 99 113 128 51 l 54 -250 l 39 -250 l 153 683 l 156 683 q 163 680 161 683 q 164 674 164 677 l 131 383 z "},"þ":{"ha":701,"x_min":39,"x_max":624,"o":"m 101 135 q 139 75 118 100 q 185 35 160 50 q 237 13 210 19 q 293 6 265 6 q 386 26 343 6 q 464 80 428 46 q 526 159 499 114 q 571 255 553 205 q 599 357 590 305 q 608 457 608 409 q 598 548 608 508 q 567 617 588 589 q 517 661 547 646 q 447 676 487 676 q 357 653 402 676 q 271 587 313 630 q 192 482 229 544 q 126 342 156 419 l 101 135 m 131 384 q 194 508 158 451 q 270 605 230 565 q 356 668 311 645 q 447 690 401 690 q 526 673 492 690 q 581 624 559 655 q 613 550 603 592 q 624 457 624 507 q 614 354 624 408 q 584 248 603 300 q 535 150 564 197 q 469 68 506 103 q 388 13 433 33 q 292 -8 343 -8 q 180 21 232 -8 q 99 113 128 51 l 56 -237 q 44 -250 53 -250 l 39 -250 l 192 1000 l 207 1000 l 131 384 z "},"q":{"ha":678,"x_min":58,"x_max":590,"o":"m 574 649 q 520 669 548 663 q 460 675 492 675 q 363 658 410 675 q 272 610 315 640 q 192 537 228 579 q 130 444 156 494 q 89 339 103 394 q 74 226 74 283 q 83 135 74 176 q 110 66 92 94 q 156 21 128 37 q 224 6 185 6 q 312 28 269 6 q 395 94 356 51 q 470 198 435 137 q 535 335 506 258 l 574 649 m 529 293 q 468 171 502 226 q 396 76 435 116 q 314 14 357 36 q 224 -8 270 -8 q 148 9 179 -8 q 96 58 116 26 q 67 132 76 89 q 58 226 58 175 q 73 342 58 285 q 115 450 88 399 q 180 545 142 501 q 262 621 217 589 q 357 671 307 653 q 460 689 408 689 q 529 682 498 689 q 590 656 560 674 l 480 -250 l 477 -250 q 466 -245 469 -250 q 465 -226 463 -241 l 529 293 z "},"r":{"ha":440,"x_min":70,"x_max":448,"o":"m 135 422 q 199 556 164 499 q 274 645 234 612 q 358 686 314 678 q 448 678 401 695 l 445 665 q 352 672 397 683 q 268 622 308 660 q 194 524 228 585 q 131 381 159 463 l 85 0 l 70 0 l 152 683 l 155 683 q 162 680 160 683 q 163 674 163 677 l 135 422 z "},"s":{"ha":538,"x_min":26,"x_max":478,"o":"m 476 619 q 469 615 474 615 q 455 625 464 615 q 428 645 446 634 q 383 667 411 657 q 313 676 356 676 q 238 663 274 676 q 174 625 201 649 q 130 569 146 601 q 113 504 113 538 q 127 450 113 472 q 164 413 141 428 q 215 387 186 398 q 274 365 244 376 q 333 342 304 354 q 385 313 363 330 q 422 270 408 295 q 435 208 435 244 q 419 128 435 167 q 372 57 402 88 q 299 8 342 26 q 205 -11 257 -11 q 145 -5 172 -11 q 99 11 119 1 q 60 37 78 22 q 26 71 42 52 l 30 75 q 37 79 34 79 q 50 67 40 79 q 79 40 60 55 q 130 14 99 26 q 208 1 160 1 q 294 18 255 1 q 362 63 334 35 q 406 128 390 91 q 422 208 422 166 q 408 266 422 242 q 371 306 394 290 q 319 333 349 322 q 260 355 290 344 q 201 377 230 365 q 150 405 172 389 q 113 445 127 422 q 99 504 99 469 q 116 575 99 541 q 163 634 133 608 q 232 675 192 660 q 316 690 271 690 q 408 675 369 690 q 478 624 446 659 l 476 619 z "},"ş":{"ha":538,"x_min":26,"x_max":478,"o":"m 30 75 q 37 79 34 79 q 50 67 40 79 q 79 40 60 55 q 130 14 99 26 q 208 1 160 1 q 294 18 255 1 q 362 63 334 35 q 406 128 390 91 q 422 208 422 166 q 408 266 422 242 q 371 306 394 290 q 319 333 349 322 q 260 355 290 344 q 201 377 230 365 q 150 405 172 389 q 113 445 127 422 q 99 504 99 469 q 116 575 99 541 q 163 634 133 608 q 232 675 192 660 q 316 690 271 690 q 408 675 369 690 q 478 624 446 659 l 476 619 q 469 615 474 615 q 455 625 464 615 q 428 645 446 634 q 383 667 411 657 q 313 676 356 676 q 238 663 274 676 q 174 625 201 649 q 130 569 146 601 q 113 504 113 538 q 127 450 113 472 q 164 413 141 428 q 215 387 186 398 q 274 365 244 376 q 333 342 304 354 q 385 313 363 330 q 422 270 408 295 q 435 208 435 244 q 419 128 435 167 q 373 58 403 89 q 300 8 342 27 q 206 -11 258 -11 l 180 -76 q 225 -87 205 -81 q 260 -102 246 -93 q 283 -124 275 -111 q 291 -156 291 -137 q 282 -195 291 -178 q 259 -224 274 -212 q 224 -242 244 -236 q 180 -249 203 -249 q 130 -239 154 -249 q 92 -212 105 -228 l 96 -210 q 103 -206 100 -206 q 111 -210 106 -206 q 125 -221 116 -215 q 149 -231 135 -226 q 185 -236 163 -236 q 251 -215 227 -236 q 276 -158 276 -194 q 267 -127 276 -140 q 242 -107 258 -115 q 207 -95 227 -99 q 163 -87 186 -90 l 194 -11 q 140 -4 164 -10 q 95 13 115 2 q 59 38 76 24 q 26 71 42 53 l 30 75 z "},"ß":{"ha":715,"x_min":65,"x_max":663,"o":"m 181 651 q 217 780 190 720 q 285 885 244 840 q 376 956 326 930 q 482 982 427 982 q 557 969 524 982 q 614 933 590 956 q 650 882 638 911 q 663 822 663 853 q 643 736 663 772 q 595 672 624 700 q 532 622 566 644 q 469 577 498 599 q 421 529 440 554 q 401 471 401 504 q 418 420 401 438 q 461 388 435 401 q 516 364 486 375 q 571 335 546 353 q 614 289 597 317 q 631 215 631 261 q 614 128 631 169 q 568 56 598 87 q 495 7 538 25 q 400 -11 453 -11 q 340 -5 366 -11 q 293 11 314 1 q 254 37 272 22 q 219 71 236 52 l 224 75 q 227 78 226 77 q 232 79 228 79 q 247 67 237 79 q 276 41 257 56 q 325 15 295 26 q 401 3 356 3 q 491 19 451 3 q 558 65 531 36 q 601 131 586 93 q 615 213 615 169 q 598 283 615 257 q 556 326 581 310 q 501 355 531 343 q 445 380 471 366 q 403 414 420 393 q 386 469 386 434 q 406 532 386 505 q 454 581 425 558 q 517 626 483 604 q 581 675 551 648 q 629 736 610 701 q 649 818 649 770 q 640 865 649 839 q 612 914 632 891 q 560 952 592 937 q 479 968 528 968 q 385 945 432 968 q 300 881 339 923 q 234 781 261 840 q 197 651 206 723 l 117 7 l 90 -167 q 86 -174 89 -172 q 82 -175 84 -175 l 79 -175 l 179 638 l 75 640 q 68 646 65 640 l 68 651 l 181 651 z "},"ſ":{"ha":313,"x_min":65,"x_max":463,"o":"m 193 756 q 218 857 200 814 q 263 927 237 899 q 322 968 289 955 q 393 982 356 982 q 431 978 412 982 q 463 967 450 974 l 461 961 q 455 957 460 956 q 442 960 450 958 q 421 965 433 963 q 392 968 408 968 q 329 957 359 968 q 275 920 299 945 q 234 854 251 894 q 210 756 217 813 l 117 7 l 90 -167 q 86 -174 89 -172 q 82 -175 84 -175 l 79 -175 l 178 638 l 75 640 q 68 646 65 640 l 68 651 l 181 651 l 193 756 z "},"t":{"ha":458,"x_min":66,"x_max":408,"o":"m 115 101 q 115 111 115 105 q 116 130 115 118 q 120 161 117 142 q 126 210 122 181 l 178 638 l 74 638 q 66 644 66 638 l 67 649 l 179 651 l 217 925 q 220 932 218 928 q 226 935 222 935 l 230 935 l 195 651 l 408 651 l 406 638 l 193 638 l 141 208 q 135 161 138 180 q 132 130 133 142 q 130 111 131 117 q 130 101 130 104 q 136 56 130 75 q 155 26 143 38 q 183 8 167 14 q 217 3 199 3 q 266 12 244 3 q 302 31 287 21 q 328 51 318 42 q 341 60 338 60 q 347 57 345 60 l 348 54 q 289 7 325 26 q 216 -11 253 -11 q 141 15 168 -11 q 115 101 115 42 z "},"ť":{"ha":458,"x_min":66,"x_max":423,"o":"m 415 1001 q 423 990 423 1001 q 420 970 423 983 q 410 937 417 958 q 393 887 403 917 q 369 817 383 858 q 365 810 367 813 q 358 807 363 807 l 353 807 l 408 1001 l 415 1001 m 115 101 q 115 111 115 105 q 116 130 115 118 q 120 161 117 142 q 126 210 122 181 l 178 638 l 74 638 q 66 644 66 638 l 67 649 l 179 651 l 217 925 q 220 932 218 928 q 226 935 222 935 l 230 935 l 195 651 l 408 651 l 406 638 l 193 638 l 141 208 q 135 161 138 180 q 132 130 133 142 q 130 111 131 117 q 130 101 130 104 q 136 56 130 75 q 155 26 143 38 q 183 8 167 14 q 217 3 199 3 q 266 12 244 3 q 302 31 287 21 q 328 51 318 42 q 341 60 338 60 q 347 57 345 60 l 348 54 q 289 7 325 26 q 216 -11 253 -11 q 141 15 168 -11 q 115 101 115 42 z "},"ŧ":{"ha":467,"x_min":42,"x_max":416,"o":"m 123 101 q 123 111 123 105 q 125 130 124 118 q 128 161 126 142 q 134 210 131 181 l 165 464 l 53 464 q 44 465 47 464 q 43 472 42 467 l 44 478 l 167 478 l 186 638 l 83 638 q 74 644 74 638 l 76 649 l 188 651 l 226 925 q 228 932 226 928 q 234 935 231 935 l 238 935 l 203 651 l 416 651 l 415 638 l 201 638 l 182 478 l 378 478 l 375 464 l 180 464 l 149 208 q 143 161 146 180 q 140 130 141 142 q 139 111 139 117 q 138 101 138 104 q 145 56 138 75 q 163 26 151 38 q 191 8 175 14 q 226 3 207 3 q 274 12 253 3 q 311 31 295 21 q 336 51 326 42 q 349 60 346 60 q 355 57 353 60 l 356 54 q 297 7 333 26 q 224 -11 261 -11 q 150 15 176 -11 q 123 101 123 42 z "},"u":{"ha":701,"x_min":85,"x_max":613,"o":"m 613 681 l 531 0 l 526 0 q 519 3 521 0 q 518 10 518 6 l 550 274 l 550 277 q 486 160 522 213 q 409 69 450 107 q 323 12 367 32 q 233 -8 278 -8 q 159 9 189 -8 q 111 59 128 26 q 90 139 94 92 q 93 247 85 187 l 144 681 l 160 681 l 108 247 q 105 145 101 190 q 124 69 109 101 q 167 22 140 38 q 235 6 194 6 q 322 27 278 6 q 407 88 366 48 q 486 183 449 127 q 553 309 523 240 l 597 681 l 613 681 z "},"ų":{"ha":701,"x_min":85,"x_max":613,"o":"m 531 0 q 497 -22 516 -8 q 461 -55 478 -36 q 432 -96 444 -73 q 420 -147 420 -119 q 441 -199 420 -180 q 496 -218 463 -218 q 531 -213 517 -218 q 556 -203 546 -208 q 573 -192 567 -197 q 583 -187 579 -187 q 585 -188 585 -187 q 588 -190 586 -189 l 591 -194 q 546 -222 572 -212 q 493 -232 519 -232 q 429 -211 453 -232 q 405 -149 405 -190 q 416 -99 405 -122 q 444 -55 427 -75 q 481 -20 461 -35 q 518 6 501 -5 l 518 10 l 550 274 l 550 277 q 486 160 522 213 q 409 69 450 107 q 323 12 367 32 q 233 -8 278 -8 q 159 9 189 -8 q 111 59 128 26 q 90 139 94 92 q 93 247 85 187 l 144 681 l 160 681 l 108 247 q 105 145 101 190 q 124 69 109 101 q 167 22 140 38 q 235 6 194 6 q 322 27 278 6 q 407 88 366 48 q 486 183 449 127 q 553 309 523 240 l 597 681 l 613 681 l 531 0 z "},"v":{"ha":625,"x_min":68,"x_max":624,"o":"m 624 681 l 268 0 l 257 0 l 68 681 l 76 681 q 84 677 82 681 q 88 671 86 674 l 260 47 q 265 19 263 35 q 270 33 267 26 q 276 47 273 40 l 601 671 q 615 681 606 681 l 624 681 z "},"w":{"ha":958,"x_min":76,"x_max":947,"o":"m 947 681 l 650 0 l 643 0 q 636 7 636 0 l 513 640 q 510 662 510 651 q 501 640 507 652 l 221 7 q 214 0 219 0 l 207 0 l 76 681 l 83 681 q 94 671 92 681 l 211 47 q 213 33 213 40 q 215 19 214 26 q 226 47 219 32 l 503 678 q 511 685 505 685 l 514 685 q 519 678 519 685 l 642 47 q 644 33 643 40 q 645 19 644 26 q 652 33 649 26 q 658 47 655 40 l 926 671 q 939 681 931 681 l 947 681 z "},"x":{"ha":572,"x_min":-18,"x_max":546,"o":"m 290 360 l 490 0 l 482 0 q 468 7 472 0 l 278 351 q 272 343 276 348 l 6 6 q -7 0 0 0 l -18 0 l 272 362 l 93 681 l 101 681 q 114 675 110 681 l 283 372 q 286 375 285 374 q 289 379 288 377 l 524 675 q 533 681 527 681 l 546 681 l 290 360 z "},"y":{"ha":627,"x_min":70,"x_max":627,"o":"m 627 681 l 142 -239 q 127 -250 137 -250 l 119 -250 l 258 12 l 70 681 l 78 681 q 90 671 88 681 l 263 53 q 266 39 265 46 q 268 26 267 33 q 280 53 274 41 l 606 674 q 617 681 610 681 l 627 681 z "},"z":{"ha":562,"x_min":-2,"x_max":545,"o":"m 545 681 l 544 674 q 538 665 544 671 l 20 14 l 444 14 l 442 0 l -2 0 l -2 4 q 0 10 -2 8 q 3 14 1 12 l 522 667 l 101 667 l 103 681 l 545 681 z "},"ª":{"ha":473,"x_min":122,"x_max":416,"o":"m 390 782 q 199 748 260 778 q 137 663 137 718 q 143 629 137 643 q 161 606 150 615 q 185 593 172 597 q 215 589 199 589 q 263 595 241 589 q 305 612 285 601 q 342 637 324 623 q 376 667 359 651 l 390 782 m 174 918 q 238 965 206 949 q 310 981 271 981 q 364 969 342 981 q 398 938 385 957 q 413 893 410 918 q 412 840 416 867 l 380 582 l 374 582 q 370 583 371 582 q 369 589 370 585 l 374 650 q 298 595 336 615 q 212 575 260 575 q 178 580 194 575 q 149 595 162 585 q 129 622 137 606 q 122 660 122 638 q 186 757 122 720 q 391 796 251 794 l 397 840 q 382 936 405 906 q 308 967 359 967 q 256 958 278 967 q 219 939 234 949 q 194 920 203 928 q 181 911 185 911 q 176 914 178 911 l 174 918 z "},"º":{"ha":524,"x_min":133,"x_max":478,"o":"m 331 981 q 395 968 367 981 q 441 934 422 956 q 469 881 460 912 q 478 811 478 849 q 465 714 478 758 q 426 639 451 670 q 364 591 401 608 q 281 574 328 574 q 217 586 244 574 q 170 620 189 598 q 142 673 151 642 q 133 742 133 703 q 146 839 133 795 q 185 915 160 883 q 247 963 210 946 q 331 981 284 981 m 283 585 q 361 601 327 585 q 418 648 395 618 q 454 719 442 678 q 466 811 466 761 q 457 875 466 846 q 432 925 449 904 q 389 958 415 946 q 330 969 364 969 q 251 952 285 969 q 193 905 217 935 q 158 833 170 875 q 147 742 147 792 q 155 678 147 707 q 180 628 163 649 q 223 596 197 608 q 283 585 248 585 z "},"ⁿ":{"ha":393,"x_min":97,"x_max":389,"o":"m 144 903 q 209 957 174 937 q 285 978 244 978 q 365 944 342 978 q 381 849 389 910 l 355 631 l 340 631 l 366 849 q 353 935 374 904 q 281 965 333 965 q 208 945 243 965 q 143 890 173 925 l 112 631 l 97 631 l 138 972 l 145 972 q 151 965 151 972 l 144 903 z "},"`":{"ha":511,"x_min":269,"x_max":397,"o":"m 285 983 q 301 981 296 983 q 311 968 306 978 l 397 804 l 388 804 q 379 810 381 804 l 269 983 l 285 983 z "},"´":{"ha":511,"x_min":306,"x_max":474,"o":"m 474 983 l 325 810 q 315 804 322 804 l 306 804 l 428 968 q 441 981 435 978 q 457 983 447 983 l 474 983 z "},"ˆ":{"ha":511,"x_min":206,"x_max":488,"o":"m 488 813 l 476 813 q 472 814 474 813 q 467 818 469 815 l 367 954 q 365 957 365 956 q 363 959 365 958 q 359 954 362 957 l 228 818 q 218 813 224 813 l 206 813 l 360 972 l 370 972 l 488 813 z "},"ˇ":{"ha":511,"x_min":224,"x_max":506,"o":"m 506 972 l 352 813 l 342 813 l 224 972 l 235 972 q 245 967 242 972 l 345 831 q 349 826 346 830 q 353 831 350 828 l 483 967 q 494 972 489 972 l 506 972 z "},"̕":{"ha":0,"x_min":333,"x_max":403,"o":"m 394 1001 q 403 991 403 1001 q 400 971 403 983 q 390 938 397 958 q 373 888 383 917 q 349 817 363 858 q 345 810 347 813 q 338 807 343 807 l 333 807 l 387 1001 l 394 1001 z "},"˜":{"ha":511,"x_min":208,"x_max":511,"o":"m 428 863 q 478 885 460 863 q 501 942 496 908 l 511 942 q 503 906 509 923 q 486 876 497 889 q 461 856 476 864 q 427 849 446 849 q 390 861 406 849 q 358 889 373 874 q 327 917 342 904 q 292 929 311 929 q 265 923 277 929 q 243 906 252 917 q 227 881 233 895 q 219 850 222 866 l 208 850 q 217 886 210 869 q 234 915 224 903 q 260 935 245 928 q 294 943 275 943 q 331 931 315 943 q 363 903 348 918 q 394 875 378 888 q 428 863 409 863 z "},"¯":{"ha":511,"x_min":188,"x_max":523,"o":"m 190 896 l 523 896 l 521 882 l 188 882 l 190 896 z "},"˘":{"ha":511,"x_min":227,"x_max":499,"o":"m 347 814 q 287 826 311 814 q 249 861 263 839 q 231 911 235 883 q 231 972 227 940 l 244 972 q 244 918 240 944 q 260 872 248 892 q 293 840 272 852 q 349 828 315 828 q 407 840 382 828 q 448 872 431 852 q 474 918 465 892 q 486 972 483 944 l 499 972 q 485 911 496 940 q 456 861 474 883 q 410 826 437 839 q 347 814 383 814 z "},"˚":{"ha":511,"x_min":260,"x_max":453,"o":"m 262 896 q 274 935 264 917 q 298 967 283 953 q 330 988 312 981 q 368 996 348 996 q 404 988 388 996 q 432 967 420 981 q 448 935 443 953 q 451 896 453 917 q 439 856 449 874 q 415 825 430 838 q 383 803 401 811 q 345 796 365 796 q 309 803 325 796 q 281 825 292 811 q 265 856 270 838 q 262 896 260 874 m 276 896 q 278 861 274 877 q 291 833 282 845 q 315 815 301 822 q 347 808 329 808 q 379 815 364 808 q 407 833 394 822 q 427 861 419 845 q 437 896 435 877 q 435 931 439 915 q 421 958 431 947 q 397 977 411 970 q 366 983 383 983 q 333 977 349 983 q 306 958 318 970 q 286 931 294 947 q 276 896 278 915 z "},"˝":{"ha":511,"x_min":263,"x_max":579,"o":"m 428 983 l 283 810 q 272 804 278 804 l 263 804 l 387 968 q 399 981 393 978 q 415 983 404 983 l 428 983 m 579 983 l 419 810 q 408 804 414 804 l 399 804 l 535 968 q 547 981 542 978 q 563 983 552 983 l 579 983 z "},"˙":{"ha":511,"x_min":325,"x_max":397,"o":"m 397 933 q 386 907 397 919 q 361 896 375 896 q 336 907 347 896 q 325 933 325 919 q 336 961 325 949 q 361 972 347 972 q 386 961 375 972 q 397 933 397 949 z "},"¸":{"ha":511,"x_min":147,"x_max":346,"o":"m 235 -76 q 280 -87 260 -81 q 315 -102 301 -93 q 338 -124 330 -111 q 346 -156 346 -137 q 337 -195 346 -178 q 314 -224 328 -212 q 278 -242 299 -236 q 235 -249 258 -249 q 184 -239 209 -249 q 147 -212 160 -228 l 151 -210 q 158 -206 155 -206 q 166 -210 160 -206 q 180 -221 171 -215 q 204 -231 190 -226 q 240 -236 218 -236 q 306 -215 282 -236 q 331 -158 331 -194 q 322 -127 331 -140 q 297 -107 313 -115 q 261 -95 282 -99 q 217 -87 241 -90 l 254 0 l 266 0 l 235 -76 z "},"˛":{"ha":511,"x_min":149,"x_max":335,"o":"m 327 -187 q 330 -188 329 -187 q 332 -190 331 -189 l 335 -194 q 290 -222 317 -212 q 238 -232 264 -232 q 174 -211 198 -232 q 149 -149 149 -190 q 161 -97 149 -122 q 191 -52 173 -72 q 230 -16 209 -32 q 268 10 250 -1 l 275 0 q 241 -22 260 -8 q 205 -55 222 -36 q 176 -96 188 -73 q 165 -147 165 -119 q 186 -199 165 -180 q 240 -218 207 -218 q 276 -213 261 -218 q 301 -203 290 -208 q 317 -192 311 -197 q 327 -187 324 -187 z "},"Γ":{"ha":700,"x_min":101,"x_max":744,"o":"m 742 957 l 235 957 l 118 0 l 101 0 l 221 972 l 744 972 l 742 957 z "},"Δ":{"ha":818,"x_min":-22,"x_max":739,"o":"m 482 921 q 478 935 480 928 q 475 949 476 942 q 468 935 472 942 q 461 921 465 928 l 3 14 l 716 14 l 482 921 m 739 0 l -22 0 l 471 972 l 485 972 l 739 0 z "},"Θ":{"ha":1013,"x_min":95,"x_max":935,"o":"m 313 508 l 711 508 l 709 492 l 311 492 l 313 508 m 935 565 q 899 326 935 433 q 797 145 862 220 q 644 31 733 71 q 453 -10 556 -10 q 306 20 372 -10 q 193 103 240 49 q 120 235 146 158 q 95 407 95 312 q 112 572 95 494 q 159 713 128 649 q 234 827 190 776 q 331 912 277 877 q 446 965 384 947 q 576 983 508 983 q 724 954 658 983 q 838 870 791 924 q 910 738 885 815 q 935 565 935 660 m 917 565 q 893 733 917 658 q 824 861 869 808 q 716 941 779 913 q 574 969 652 969 q 450 952 510 969 q 340 901 391 935 q 246 819 288 868 q 174 708 204 770 q 128 570 144 646 q 112 408 112 495 q 136 240 112 315 q 206 113 161 165 q 315 32 251 60 q 455 4 378 4 q 638 43 553 4 q 785 154 723 81 q 882 331 847 226 q 917 565 917 435 z "},"Λ":{"ha":817,"x_min":-22,"x_max":738,"o":"m 738 0 l 726 0 q 719 7 720 0 l 482 921 q 475 949 478 935 q 461 921 469 935 l 0 7 q -4 2 -1 3 q -10 0 -7 0 l -22 0 l 470 972 l 485 972 l 738 0 z "},"Ξ":{"ha":779,"x_min":17,"x_max":788,"o":"m 788 972 l 785 957 l 135 957 l 136 972 l 788 972 m 669 15 l 668 0 l 17 0 l 19 15 l 669 15 m 236 508 l 569 508 l 567 492 l 234 492 l 236 508 z "},"Π":{"ha":965,"x_min":101,"x_max":881,"o":"m 762 0 l 745 0 l 863 957 l 235 957 l 118 0 l 101 0 l 221 972 l 881 972 l 762 0 z "},"Σ":{"ha":768,"x_min":3,"x_max":773,"o":"m 190 957 q 164 958 176 957 q 138 962 151 958 q 156 938 148 949 q 173 909 163 927 l 413 496 q 415 491 414 494 q 415 486 416 489 q 410 476 414 480 l 67 63 q 41 33 52 45 q 19 12 29 21 q 46 14 33 13 q 74 15 59 15 l 655 15 l 653 0 l 3 0 l 3 6 q 5 11 3 8 q 8 15 7 13 l 401 485 l 124 958 q 121 967 121 962 l 122 972 l 773 972 l 771 957 l 190 957 z "},"Φ":{"ha":1017,"x_min":74,"x_max":961,"o":"m 474 66 q 605 84 543 66 q 719 133 667 101 q 813 208 772 164 q 884 304 855 251 q 929 416 913 356 q 944 540 944 476 q 920 684 944 615 q 848 804 895 752 q 733 886 801 856 q 578 917 665 917 l 474 66 m 561 917 q 370 878 457 916 q 222 775 284 840 q 125 624 160 710 q 91 442 91 538 q 116 298 91 366 q 187 178 140 230 q 302 97 234 127 q 457 66 370 66 l 561 917 m 580 930 q 745 898 674 930 q 864 813 816 866 q 936 689 912 759 q 961 541 961 618 q 946 414 961 476 q 901 298 931 352 q 829 199 872 244 q 732 121 786 153 q 613 71 678 89 q 472 53 547 53 l 456 -83 l 439 -83 l 456 53 q 291 84 362 53 q 172 169 219 116 q 99 293 124 223 q 74 441 74 363 q 90 569 74 507 q 136 685 106 631 q 210 784 167 739 q 307 861 253 829 q 426 912 361 894 q 563 930 490 930 l 578 1056 l 595 1056 l 580 930 z "},"Ψ":{"ha":997,"x_min":100,"x_max":981,"o":"m 981 972 l 939 631 q 893 472 928 542 q 800 352 858 401 q 664 275 742 302 q 487 249 585 249 l 456 0 l 439 0 l 469 249 q 299 275 372 249 q 182 352 227 302 q 118 472 136 401 q 111 631 100 542 l 153 972 l 163 972 q 168 970 167 972 q 169 964 169 967 l 128 631 q 135 477 117 545 q 196 361 152 408 q 309 288 240 313 q 471 262 378 262 l 558 972 l 576 972 l 488 262 q 657 288 581 262 q 788 361 733 313 q 877 477 843 408 q 922 631 912 545 l 963 964 q 966 970 964 967 q 972 972 967 972 l 981 972 z "},"Ω":{"ha":993,"x_min":41,"x_max":931,"o":"m 551 17 l 862 17 l 862 8 q 858 2 862 5 q 852 0 854 0 l 534 0 l 559 207 q 703 261 638 226 q 816 349 769 297 q 889 472 863 401 q 915 632 915 542 q 887 779 915 716 q 813 885 860 842 q 702 948 765 927 q 569 969 640 969 q 458 957 513 969 q 355 921 404 945 q 264 860 306 897 q 192 775 222 824 q 144 664 161 726 q 127 529 127 603 q 145 412 127 465 q 198 319 164 360 q 282 250 233 278 q 391 207 331 222 l 366 0 l 48 0 q 41 8 41 0 l 41 17 l 353 17 l 375 198 q 271 240 319 212 q 187 309 223 267 q 131 406 151 351 q 110 531 110 462 q 128 668 110 605 q 177 781 146 731 q 251 869 208 831 q 345 932 294 907 q 453 970 397 958 q 570 983 510 983 q 711 961 645 983 q 825 894 776 938 q 903 785 874 850 q 931 633 931 719 q 902 465 931 539 q 824 338 873 392 q 709 249 774 284 q 574 199 644 215 l 551 17 z "},"α":{"ha":742,"x_min":61,"x_max":683,"o":"m 231 6 q 323 31 279 6 q 407 101 367 57 q 482 205 447 145 q 547 333 517 265 q 547 418 547 376 q 543 498 547 460 q 530 569 539 537 q 505 626 522 602 q 461 664 488 651 q 395 678 434 678 q 311 660 351 678 q 235 612 271 643 q 171 539 200 581 q 122 448 142 497 q 89 345 101 399 q 78 236 78 291 q 119 64 78 122 q 231 6 160 6 m 683 681 q 627 500 656 588 q 563 334 597 413 q 563 215 563 273 q 568 112 563 157 q 591 39 574 67 q 640 12 607 12 l 659 12 l 658 5 q 634 -2 656 -2 q 583 23 600 -2 q 558 91 565 49 q 549 188 550 133 q 548 301 548 242 q 480 176 516 233 q 405 78 444 119 q 321 14 365 37 q 228 -8 277 -8 q 105 53 149 -8 q 61 235 61 115 q 73 348 61 292 q 107 455 85 404 q 159 549 128 506 q 226 624 189 592 q 306 674 263 656 q 396 692 349 692 q 463 679 435 692 q 509 644 490 667 q 538 591 527 622 q 553 525 548 560 q 560 449 558 489 q 563 367 562 408 q 610 494 588 430 q 650 622 632 559 q 659 654 656 642 q 666 672 663 666 q 670 679 668 678 q 675 681 672 681 l 683 681 z "},"β":{"ha":691,"x_min":40,"x_max":599,"o":"m 103 134 q 185 39 133 73 q 305 6 238 6 q 420 29 369 6 q 508 93 472 53 q 564 189 544 134 q 584 306 584 243 q 566 399 584 357 q 515 472 549 442 q 433 519 481 503 q 323 536 384 536 l 285 536 l 286 549 l 324 549 q 416 563 369 549 q 499 607 462 577 q 558 683 535 637 q 581 794 581 729 q 570 863 581 831 q 536 918 558 895 q 483 955 515 942 q 409 968 451 968 q 318 948 359 968 q 247 886 278 928 q 194 776 215 843 q 161 613 173 708 l 109 190 l 103 134 m 144 613 q 178 780 156 710 q 232 894 199 849 q 309 961 265 940 q 409 982 353 982 q 491 968 456 982 q 549 928 526 953 q 585 869 573 903 q 597 794 597 835 q 579 695 597 738 q 533 620 562 651 q 465 570 503 589 q 384 543 426 551 q 475 516 435 535 q 542 465 515 496 q 585 394 570 435 q 599 306 599 354 q 579 182 599 240 q 521 82 559 124 q 429 16 483 40 q 305 -8 374 -8 q 244 -1 274 -8 q 187 22 214 7 q 138 60 160 38 q 100 114 115 83 l 78 -68 l 51 -242 q 47 -249 49 -247 q 42 -250 44 -250 l 40 -250 l 92 191 l 144 613 z "},"γ":{"ha":651,"x_min":69,"x_max":639,"o":"m 639 681 q 564 477 600 565 q 490 315 528 390 q 406 173 451 241 q 303 28 361 104 l 269 -250 l 253 -250 l 288 36 q 249 333 268 213 q 207 528 229 454 q 156 635 184 603 q 92 668 128 668 l 69 668 l 70 674 q 74 680 71 678 q 94 682 78 682 q 162 651 132 682 q 217 547 192 621 q 262 351 242 474 q 299 44 282 228 q 394 178 350 110 q 476 321 438 246 q 549 480 515 396 q 615 664 583 565 q 623 677 619 674 q 631 681 626 681 l 639 681 z "},"δ":{"ha":688,"x_min":61,"x_max":599,"o":"m 297 6 q 406 28 354 6 q 498 93 458 51 q 560 197 537 136 q 583 333 583 257 q 566 439 583 392 q 524 523 550 485 q 464 590 498 560 q 397 645 431 619 q 272 594 330 626 q 170 515 214 562 q 102 406 127 468 q 77 262 77 343 q 90 165 77 212 q 131 83 103 119 q 199 27 158 48 q 297 6 240 6 m 593 956 q 591 950 592 951 q 584 949 590 949 q 566 952 581 949 q 529 958 551 955 q 480 965 507 962 q 424 968 452 968 q 341 958 375 968 q 284 931 306 948 q 253 892 263 915 q 243 846 243 870 q 258 789 243 815 q 299 740 274 763 q 356 693 324 716 q 421 644 388 670 q 486 589 454 619 q 543 522 518 559 q 583 439 568 485 q 599 335 599 393 q 575 191 599 254 q 510 83 551 127 q 414 15 469 39 q 296 -8 358 -8 q 192 14 236 -8 q 119 73 148 35 q 75 159 90 110 q 61 261 61 208 q 83 399 61 336 q 147 511 106 461 q 249 596 189 560 q 386 653 310 632 q 327 698 356 676 q 276 742 298 719 q 241 790 254 765 q 228 845 228 815 q 237 894 228 869 q 269 938 247 919 q 331 970 292 958 q 426 982 369 982 q 463 980 442 982 q 506 976 483 978 q 550 969 528 973 q 594 960 573 965 l 593 956 z "},"ε":{"ha":574,"x_min":50,"x_max":526,"o":"m 471 81 q 438 50 458 65 q 390 21 417 34 q 330 0 363 8 q 260 -8 297 -8 q 173 5 212 -8 q 107 42 134 19 q 65 97 80 65 q 50 167 50 129 q 63 236 50 203 q 102 296 76 269 q 168 340 128 322 q 263 365 208 358 q 191 385 220 370 q 144 421 162 401 q 119 464 126 441 q 111 510 111 488 q 126 576 111 543 q 169 634 140 608 q 242 676 199 660 q 345 692 286 692 q 453 672 408 692 q 526 621 497 652 l 522 617 q 516 614 519 614 q 501 624 512 614 q 471 646 491 634 q 420 668 451 658 q 344 678 389 678 q 247 663 288 678 q 179 625 206 649 q 139 571 152 601 q 126 510 126 541 q 139 456 126 481 q 175 411 151 431 q 234 382 199 392 q 312 371 269 371 l 415 371 l 413 357 l 310 357 q 208 343 253 357 q 131 303 163 328 q 83 244 99 278 q 66 168 66 209 q 80 102 66 132 q 119 51 94 72 q 181 17 145 29 q 262 6 217 6 q 350 18 314 6 q 410 46 387 31 q 447 74 434 61 q 463 86 459 86 q 468 83 465 86 l 471 81 z "},"ζ":{"ha":466,"x_min":64,"x_max":553,"o":"m 553 972 l 553 965 q 552 962 553 964 q 545 955 551 960 q 529 939 540 949 q 498 910 518 928 q 397 818 447 865 q 300 719 347 770 q 214 615 253 669 q 144 505 174 562 q 98 389 115 449 q 81 265 81 328 q 95 178 81 214 q 133 118 109 143 q 191 77 158 93 q 263 50 224 61 q 351 17 317 34 q 402 -18 384 -1 q 426 -52 420 -35 q 432 -83 432 -69 q 427 -128 432 -108 q 413 -168 422 -149 q 394 -205 405 -187 q 372 -241 383 -223 l 360 -233 q 399 -165 381 -201 q 416 -86 416 -130 q 410 -56 416 -72 q 389 -26 405 -41 q 343 5 372 -10 q 265 33 313 19 q 183 64 219 47 q 119 109 146 82 q 78 174 93 136 q 64 265 64 212 q 100 449 64 362 q 199 620 136 536 q 349 787 263 703 q 534 960 435 870 q 402 959 474 959 q 256 958 330 958 l 192 958 q 187 964 186 958 l 188 972 l 553 972 z "},"η":{"ha":720,"x_min":43,"x_max":624,"o":"m 153 407 q 217 524 181 472 q 295 614 253 576 q 381 670 336 651 q 469 690 425 690 q 591 624 558 690 q 610 436 624 557 l 526 -250 l 509 -250 l 593 436 l 594 436 q 598 538 601 493 q 578 613 594 582 q 536 660 563 644 q 468 676 508 676 q 380 655 424 676 q 295 594 336 634 q 216 499 253 555 q 149 372 179 442 l 104 0 l 89 0 l 155 537 q 141 640 164 608 q 61 672 118 672 l 43 672 l 44 676 q 48 684 45 682 q 63 686 51 686 q 115 678 93 686 q 150 653 137 671 q 169 607 164 635 q 169 537 174 578 l 153 407 z "},"θ":{"ha":760,"x_min":103,"x_max":672,"o":"m 125 482 q 121 420 122 451 q 120 356 120 390 q 133 211 120 276 q 172 101 146 147 q 239 30 199 55 q 333 6 278 6 q 457 39 402 6 q 552 135 512 73 q 617 285 592 197 q 651 482 642 373 l 125 482 m 652 496 q 656 614 656 552 q 643 761 656 695 q 605 872 631 826 q 539 943 578 918 q 448 968 500 968 q 323 935 378 968 q 227 840 267 901 q 161 691 186 778 q 126 496 136 603 l 652 496 m 448 982 q 544 957 503 982 q 614 884 586 931 q 657 768 642 836 q 672 613 672 699 q 649 354 672 469 q 582 158 626 239 q 475 35 538 78 q 333 -8 413 -8 q 233 17 276 -8 q 161 89 190 42 q 118 203 133 135 q 103 357 103 272 q 126 617 103 501 q 193 814 149 733 q 302 939 238 895 q 448 982 366 982 z "},"ι":{"ha":294,"x_min":72,"x_max":238,"o":"m 147 681 l 164 681 l 99 147 q 115 41 90 78 q 201 5 140 5 l 238 5 l 238 -2 q 231 -7 238 -5 q 198 -9 225 -9 q 102 31 131 -9 q 82 147 72 70 l 147 681 z "},"λ":{"ha":662,"x_min":7,"x_max":615,"o":"m 615 9 l 614 3 q 609 -3 613 -1 q 585 -5 604 -5 q 547 -1 565 -5 q 515 16 529 3 q 490 49 501 28 q 470 104 478 70 l 350 610 q 347 623 349 616 q 345 635 346 629 q 335 613 341 624 l 33 10 q 27 2 31 5 q 15 0 23 0 l 7 0 l 338 652 l 281 887 q 269 922 276 907 q 251 948 263 938 q 223 963 240 958 q 180 968 206 968 l 145 968 l 146 975 q 151 980 146 978 q 178 982 156 982 q 227 977 207 982 q 261 961 247 972 q 283 934 274 951 q 297 897 291 918 l 488 105 q 523 30 501 51 q 581 9 546 9 l 615 9 z "},"μ":{"ha":742,"x_min":39,"x_max":685,"o":"m 685 8 l 684 1 q 654 -6 683 -6 q 605 3 628 -6 q 566 29 582 11 q 542 74 549 47 q 539 141 534 102 q 418 30 486 70 q 275 -11 349 -11 q 151 31 193 -11 q 102 150 109 72 q 94 77 99 115 q 86 7 90 38 l 55 -250 l 47 -250 q 41 -248 42 -250 q 39 -242 39 -245 l 153 681 l 169 681 l 113 225 q 144 61 105 120 q 277 3 184 3 q 417 44 350 3 q 540 160 483 85 l 603 681 l 620 681 l 554 144 q 556 83 550 108 q 577 41 563 57 q 615 16 592 24 q 667 8 638 8 l 685 8 z "},"ν":{"ha":634,"x_min":69,"x_max":622,"o":"m 622 681 q 570 536 596 603 q 519 412 545 470 q 465 301 492 353 q 406 199 437 249 q 341 100 376 149 q 267 0 306 51 l 257 0 l 69 681 l 78 681 q 89 671 86 681 l 260 47 q 266 19 264 33 q 364 158 318 88 q 450 306 409 228 q 527 472 490 383 q 599 667 565 561 q 605 678 602 675 q 613 681 608 681 l 622 681 z "},"ξ":{"ha":478,"x_min":58,"x_max":512,"o":"m 511 966 q 501 957 510 957 l 453 957 q 341 936 393 957 q 250 881 288 915 q 189 800 211 846 q 167 706 167 755 q 180 640 167 671 q 220 585 193 608 q 286 549 247 563 q 380 536 326 536 l 420 536 l 419 522 l 365 522 q 239 502 293 522 q 148 447 185 482 q 93 364 112 412 q 75 258 75 315 q 92 176 75 210 q 136 116 108 142 q 202 73 165 91 q 281 40 240 54 q 348 11 322 25 q 388 -18 374 -3 q 407 -47 402 -32 q 413 -78 413 -61 q 407 -124 413 -103 q 394 -166 402 -146 q 374 -204 385 -185 q 351 -240 363 -222 l 339 -231 q 360 -198 350 -215 q 379 -162 371 -181 q 392 -123 387 -144 q 397 -78 397 -103 q 392 -51 397 -65 q 374 -25 387 -38 q 337 0 360 -12 q 276 25 313 13 q 193 58 233 40 q 124 103 154 76 q 76 168 94 131 q 58 258 58 206 q 74 356 58 310 q 120 438 89 401 q 197 498 151 474 q 303 531 242 523 q 235 557 264 540 q 187 598 206 574 q 159 649 168 621 q 150 706 150 676 q 167 790 150 749 q 214 865 183 831 q 286 924 244 899 q 382 960 329 949 q 345 959 363 959 q 307 958 327 958 q 264 958 287 958 q 214 958 241 958 l 147 958 q 142 963 142 958 l 144 972 l 512 972 l 511 966 z "},"π":{"ha":744,"x_min":15,"x_max":720,"o":"m 719 658 q 708 651 719 651 l 585 651 q 565 501 574 564 q 549 393 556 438 q 538 315 542 347 q 530 258 533 283 q 525 210 526 233 q 524 160 524 188 q 529 86 524 115 q 546 41 535 58 q 575 18 558 24 q 614 12 592 12 l 628 12 l 627 5 q 622 0 627 2 q 599 -2 616 -2 q 560 4 577 -2 q 531 27 542 10 q 512 74 519 44 q 506 149 506 103 q 512 248 506 193 q 528 367 519 303 q 550 502 538 431 q 571 651 561 574 l 258 651 q 204 350 235 475 q 141 147 173 226 q 78 33 108 69 q 27 -3 48 -3 q 15 1 15 -3 l 17 14 l 29 14 q 70 49 44 14 q 128 159 97 83 q 190 357 159 235 q 242 651 220 478 l 86 651 l 87 657 q 90 664 88 660 q 99 667 93 667 l 720 667 l 719 658 z "},"ρ":{"ha":704,"x_min":30,"x_max":620,"o":"m 95 150 q 136 87 113 114 q 186 42 160 60 q 242 15 213 24 q 299 6 270 6 q 389 21 348 6 q 465 63 431 36 q 524 128 499 90 q 567 210 550 165 q 594 306 585 256 q 603 410 603 357 q 588 526 603 476 q 545 610 573 576 q 480 661 518 644 q 394 678 441 678 q 299 659 344 678 q 218 603 254 640 q 158 510 183 566 q 124 381 133 455 l 95 150 m 107 381 q 143 518 117 460 q 207 615 169 576 q 293 673 245 653 q 394 692 341 692 q 487 674 445 692 q 558 621 528 656 q 604 533 588 586 q 620 411 620 481 q 598 249 620 326 q 535 116 576 173 q 434 25 494 58 q 299 -8 374 -8 q 237 1 267 -8 q 180 28 207 10 q 130 71 153 46 q 92 127 108 96 l 47 -250 l 30 -250 l 107 381 z "},"σ":{"ha":722,"x_min":67,"x_max":720,"o":"m 422 660 q 270 630 334 660 q 165 549 206 601 q 104 427 124 498 q 84 276 84 357 q 99 162 84 212 q 142 77 114 112 q 212 24 171 42 q 307 6 253 6 q 435 35 379 6 q 530 118 491 65 q 588 244 568 171 q 608 405 608 317 q 597 500 608 456 q 564 578 586 544 q 509 632 542 611 q 433 660 476 653 l 422 660 m 720 674 l 719 671 q 716 663 719 667 q 706 660 713 660 l 480 660 q 543 623 516 647 q 589 564 571 598 q 616 490 607 531 q 625 403 625 449 q 603 239 625 314 q 540 109 581 164 q 440 23 499 53 q 306 -8 381 -8 q 206 11 250 -8 q 131 67 162 31 q 84 157 101 104 q 67 277 67 210 q 90 436 67 363 q 156 562 112 509 q 267 644 200 615 q 422 674 333 674 l 720 674 z "},"ς":{"ha":575,"x_min":70,"x_max":558,"o":"m 553 617 q 551 615 552 615 q 547 614 549 614 q 533 624 543 614 q 504 646 523 634 q 457 668 485 658 q 387 678 428 678 q 263 650 319 678 q 169 574 208 623 q 109 459 130 526 q 88 315 88 393 q 107 203 88 249 q 160 126 127 158 q 236 75 193 95 q 325 38 278 54 q 392 10 366 24 q 432 -17 417 -3 q 452 -47 447 -31 q 457 -79 457 -62 q 452 -126 457 -104 q 438 -167 447 -147 q 418 -205 429 -187 q 396 -241 407 -224 l 383 -233 q 404 -199 394 -216 q 423 -164 415 -182 q 435 -125 431 -145 q 440 -80 440 -104 q 435 -52 440 -65 q 417 -26 431 -39 q 381 -1 404 -14 q 319 24 357 11 q 218 65 264 42 q 139 121 172 88 q 88 202 106 155 q 70 315 70 249 q 92 465 70 396 q 156 584 115 534 q 256 663 197 635 q 387 692 315 692 q 487 672 444 692 q 558 621 530 652 l 553 617 z "},"τ":{"ha":566,"x_min":58,"x_max":558,"o":"m 558 660 q 555 654 557 656 q 547 651 552 651 l 293 651 l 233 154 q 249 48 224 85 q 335 12 274 12 l 373 12 l 372 5 q 365 0 372 2 q 332 -2 359 -2 q 236 38 265 -2 q 216 154 206 77 l 276 651 l 58 651 l 60 660 q 69 667 60 667 l 558 667 l 558 660 z "},"υ":{"ha":692,"x_min":85,"x_max":597,"o":"m 588 681 q 592 631 590 656 q 594 581 593 606 q 597 532 596 556 q 597 489 597 509 q 572 261 597 356 q 503 106 546 166 q 406 17 460 45 q 293 -11 351 -11 q 200 6 241 -11 q 133 56 160 24 q 96 136 107 89 q 92 244 85 184 l 146 681 l 163 681 l 109 244 q 112 143 102 188 q 146 67 122 98 q 208 19 170 35 q 294 3 246 3 q 361 14 327 3 q 426 48 394 24 q 486 110 458 72 q 534 202 514 148 q 567 327 555 256 q 579 488 579 398 q 578 529 579 506 q 577 578 578 553 q 574 627 576 603 q 571 671 573 651 q 573 678 570 676 q 578 681 575 681 l 588 681 z "},"φ":{"ha":847,"x_min":67,"x_max":765,"o":"m 379 6 q 541 40 472 6 q 656 131 610 74 q 725 263 702 188 q 748 419 748 338 q 737 518 748 472 q 705 601 726 565 q 653 657 683 636 q 583 678 622 678 q 487 638 522 678 q 442 519 452 598 l 379 6 m 426 519 q 474 647 435 602 q 583 692 513 692 q 661 670 627 692 q 717 612 694 649 q 752 526 740 575 q 765 420 765 476 q 740 255 765 333 q 666 119 715 178 q 545 27 617 61 q 378 -8 472 -8 l 348 -250 l 331 -250 l 361 -8 q 230 17 285 -8 q 138 84 174 42 q 85 180 102 126 q 67 294 67 235 q 84 425 67 364 q 133 536 101 486 q 209 625 165 587 q 310 688 254 664 l 313 681 q 312 675 314 678 q 307 671 310 672 q 209 605 251 645 q 139 515 167 565 q 98 409 112 465 q 84 295 84 353 q 100 188 84 240 q 150 95 116 135 q 236 31 183 55 q 363 6 289 6 l 426 519 z "},"χ":{"ha":569,"x_min":-33,"x_max":541,"o":"m 397 -144 q 433 -218 412 -197 q 490 -240 455 -240 l 508 -240 l 507 -247 q 503 -251 507 -249 q 488 -253 500 -253 q 456 -250 472 -253 q 427 -235 441 -246 q 402 -204 414 -224 q 381 -152 390 -184 l 267 228 q 253 200 260 214 q 239 174 246 186 l -9 -238 q -14 -244 -10 -241 q -23 -248 -17 -248 l -33 -248 l 260 239 l 156 589 q 142 624 150 609 q 122 650 134 640 q 91 665 109 660 q 48 670 74 670 l 30 670 l 31 677 q 34 682 31 680 q 50 684 38 684 q 130 663 103 684 q 171 599 158 642 l 273 253 q 287 282 279 267 q 302 309 294 297 l 517 671 q 523 677 519 674 q 531 681 526 681 l 541 681 l 280 243 l 397 -144 z "},"ψ":{"ha":906,"x_min":87,"x_max":813,"o":"m 804 681 q 808 631 806 656 q 810 581 809 606 q 813 533 812 556 q 813 490 813 509 q 796 319 813 393 q 749 190 778 245 q 679 97 719 135 q 595 37 640 60 q 503 3 550 14 q 411 -8 456 -8 l 381 -250 l 365 -250 l 394 -8 q 268 12 326 -8 q 168 69 209 31 q 107 163 127 106 q 97 293 87 219 l 144 681 l 154 681 q 159 678 158 681 q 160 672 160 675 l 113 293 q 123 177 106 229 q 177 86 140 124 q 270 27 215 49 q 396 6 326 6 l 515 972 l 531 972 l 413 6 q 494 16 451 6 q 580 47 538 26 q 662 103 623 68 q 731 191 701 139 q 778 315 760 244 q 796 481 796 386 q 795 524 796 499 q 793 574 794 549 q 791 625 792 600 q 787 671 789 651 q 788 678 786 676 q 794 681 790 681 l 804 681 z "},"ω":{"ha":901,"x_min":66,"x_max":810,"o":"m 749 681 q 792 535 774 613 q 810 374 810 456 q 786 195 810 268 q 726 76 763 122 q 645 9 690 30 q 557 -11 600 -11 q 509 -3 533 -11 q 465 24 485 5 q 432 76 445 44 q 419 157 419 108 q 386 76 406 108 q 341 24 365 44 q 291 -3 317 5 q 242 -11 265 -11 q 177 4 208 -11 q 120 50 145 19 q 81 130 96 81 q 66 246 66 178 q 78 373 66 315 q 111 482 90 431 q 159 582 131 533 q 217 681 186 630 l 226 681 q 232 678 231 681 q 231 671 234 675 q 166 561 194 613 q 119 457 138 508 q 91 355 101 406 q 81 247 81 303 q 97 130 81 177 q 138 55 113 83 q 190 15 162 27 q 242 3 218 3 q 306 18 276 3 q 358 60 335 33 q 397 127 381 88 q 418 216 412 167 l 447 449 l 463 449 l 435 216 q 434 127 428 167 q 456 60 440 88 q 497 18 472 33 q 558 3 523 3 q 603 10 578 3 q 655 34 629 17 q 706 80 681 51 q 751 149 731 108 q 782 246 770 190 q 794 374 794 301 q 778 519 794 442 q 733 671 763 596 q 734 678 731 675 q 740 681 736 681 l 749 681 z "},"΄":{"ha":511,"x_min":340,"x_max":442,"o":"m 340 805 l 420 1008 l 432 1008 q 440 1002 438 1008 q 438 989 442 997 l 354 805 l 340 805 z "},"΅":{"ha":511,"x_min":213,"x_max":549,"o":"m 340 805 l 420 1008 l 432 1008 q 440 1002 438 1008 q 438 989 442 997 l 354 805 l 340 805 m 547 868 q 542 854 547 860 q 533 842 538 847 q 520 834 527 837 q 507 831 513 831 q 483 842 492 831 q 475 868 474 853 q 489 895 477 884 q 515 907 501 907 q 539 895 529 907 q 547 868 549 884 m 286 868 q 282 854 285 860 q 272 842 278 847 q 259 834 266 837 q 246 831 253 831 q 223 842 232 831 q 215 868 213 853 q 228 895 217 884 q 255 907 240 907 q 278 895 269 907 q 286 868 288 884 z "},"ʹ":{"ha":237,"x_min":151,"x_max":244,"o":"m 244 1038 q 237 973 242 1006 q 222 906 232 939 q 195 842 212 873 q 155 783 179 810 l 152 787 q 153 793 151 789 q 203 883 184 833 q 219 983 222 933 l 224 1027 q 227 1034 225 1031 q 234 1038 229 1038 l 244 1038 z "},"͵":{"ha":237,"x_min":51,"x_max":145,"o":"m 145 156 q 138 91 143 124 q 123 24 133 57 q 96 -40 113 -9 q 56 -99 80 -72 l 53 -95 q 53 -89 51 -93 q 104 1 85 -49 q 119 101 123 51 l 125 145 q 128 152 126 149 q 135 156 130 156 l 145 156 z "},"Б":{"ha":775,"x_min":101,"x_max":734,"o":"m 180 500 l 119 14 l 358 14 q 486 33 430 14 q 580 89 542 52 q 639 178 619 125 q 659 299 659 231 q 598 450 659 399 q 419 500 537 500 l 180 500 m 236 958 l 181 514 l 421 514 q 611 459 546 514 q 676 300 676 404 q 654 174 676 230 q 592 80 633 118 q 492 20 551 41 q 356 0 432 0 l 101 0 l 221 972 l 734 972 l 733 958 l 236 958 z "},"Г":{"ha":688,"x_min":101,"x_max":731,"o":"m 729 957 l 235 957 l 118 0 l 101 0 l 221 972 l 731 972 l 729 957 z "},"Ґ":{"ha":688,"x_min":101,"x_max":759,"o":"m 729 957 l 235 957 l 118 0 l 101 0 l 221 972 l 716 972 l 744 1201 l 759 1201 l 729 957 z "},"Д":{"ha":942,"x_min":-70,"x_max":862,"o":"m 862 15 l 830 -242 q 822 -250 828 -250 l 813 -250 l 844 0 l -24 0 l -54 -242 q -62 -250 -54 -250 l -70 -250 l -40 0 l -37 15 l 37 15 q 92 50 65 24 q 147 124 119 76 q 202 244 174 172 q 257 420 229 317 q 312 660 284 524 q 368 972 340 797 l 816 972 l 699 15 l 862 15 m 681 15 l 797 957 l 383 957 q 331 669 356 797 q 279 443 305 542 q 228 272 253 344 q 176 148 202 199 q 124 65 150 97 q 70 15 97 33 l 681 15 z "},"Ж":{"ha":1247,"x_min":-15,"x_max":1272,"o":"m 890 551 q 850 515 870 528 q 801 497 830 502 q 847 478 828 492 q 878 444 865 465 l 1163 0 l 1153 0 q 1139 8 1144 0 l 863 437 q 826 475 848 461 q 766 489 805 489 l 642 489 l 582 0 l 565 0 l 625 489 l 502 489 q 438 475 463 489 q 392 437 413 460 l 12 8 q 4 2 8 4 q -4 0 0 0 l -15 0 l 378 444 q 418 478 397 465 q 469 497 440 492 q 424 515 442 502 q 392 551 407 528 l 115 972 l 126 972 q 140 963 135 972 l 409 555 q 432 528 420 538 q 456 513 443 518 q 483 505 468 507 q 515 503 497 503 l 627 503 l 685 972 l 701 972 l 644 503 l 757 503 q 789 505 774 503 q 818 513 804 507 q 846 528 832 518 q 874 555 860 538 l 1244 963 q 1252 969 1248 967 q 1260 972 1256 972 l 1272 972 l 890 551 z "},"З":{"ha":722,"x_min":18,"x_max":642,"o":"m 153 885 q 269 958 208 934 q 409 981 330 981 q 509 965 465 981 q 582 921 552 949 q 626 855 611 893 q 642 773 642 817 q 622 675 642 718 q 572 602 603 633 q 503 552 542 571 q 428 527 465 534 q 509 499 474 519 q 568 449 544 479 q 603 383 592 419 q 615 305 615 346 q 593 183 615 240 q 528 83 571 126 q 424 15 485 40 q 282 -10 362 -10 q 194 -1 233 -10 q 124 24 156 8 q 67 64 92 40 q 18 117 41 87 l 22 119 q 25 123 24 122 q 30 124 26 124 q 42 115 34 124 q 62 93 49 106 q 93 64 74 79 q 139 35 112 49 q 201 13 166 22 q 283 4 237 4 q 416 28 357 4 q 515 93 474 52 q 577 188 556 133 q 599 302 599 242 q 585 386 599 347 q 543 455 571 426 q 474 502 515 485 q 377 519 432 519 l 264 519 l 266 535 l 388 535 q 472 551 429 535 q 548 598 514 567 q 603 672 582 628 q 625 773 625 717 q 610 850 625 815 q 568 912 596 886 q 501 953 541 938 q 410 967 460 967 q 301 953 346 967 q 228 922 257 939 q 184 891 200 906 q 162 877 169 877 q 156 881 158 877 l 153 885 z "},"И":{"ha":965,"x_min":101,"x_max":881,"o":"m 881 972 l 762 0 l 745 0 l 854 888 q 858 916 856 902 q 863 945 860 931 q 847 924 854 933 q 833 906 840 915 l 122 5 q 109 0 118 0 l 101 0 l 221 972 l 238 972 l 128 85 q 120 27 126 57 q 135 48 128 39 q 150 67 142 57 l 860 967 q 866 972 864 971 q 871 972 868 972 l 881 972 z "},"К":{"ha":790,"x_min":101,"x_max":808,"o":"m 421 550 q 382 515 401 528 q 337 497 364 502 q 377 480 362 492 q 406 448 392 468 l 714 0 l 703 0 q 691 3 695 0 q 681 13 687 6 l 391 441 q 376 462 383 453 q 358 477 368 471 q 335 486 348 483 q 302 489 322 489 l 178 489 l 118 0 l 101 0 l 221 972 l 238 972 l 180 503 l 293 503 q 325 505 310 503 q 352 512 339 506 q 378 527 365 517 q 406 554 391 538 l 777 963 q 797 972 786 972 l 808 972 l 421 550 z "},"Л":{"ha":884,"x_min":-54,"x_max":801,"o":"m 682 0 l 665 0 l 782 957 l 368 957 q 305 610 336 759 q 242 355 273 462 q 180 178 211 248 q 116 67 148 108 q 49 9 83 26 q -21 -7 15 -7 q -31 -7 -25 -7 q -42 -6 -37 -6 q -51 -3 -47 -5 q -54 -1 -54 -2 l -53 9 l -19 9 q 46 26 15 9 q 108 85 78 43 q 169 198 139 127 q 230 376 199 269 q 291 630 260 483 q 353 972 322 777 l 801 972 l 682 0 z "},"Љ":{"ha":1322,"x_min":-54,"x_max":1245,"o":"m 928 14 q 1055 33 999 14 q 1150 89 1111 52 q 1208 178 1188 125 q 1228 299 1228 231 q 1167 450 1228 399 q 988 500 1106 500 l 743 500 l 683 14 l 928 14 m 990 514 q 1180 459 1115 514 q 1245 300 1245 404 q 1224 174 1245 230 q 1161 80 1202 118 q 1061 20 1121 41 q 926 0 1001 0 l 665 0 l 782 957 l 368 957 q 305 610 336 759 q 242 355 273 462 q 180 178 211 248 q 116 67 148 108 q 49 9 83 26 q -21 -7 15 -7 q -31 -7 -25 -7 q -42 -6 -37 -6 q -51 -3 -47 -5 q -54 -1 -54 -2 l -53 9 l -19 9 q 46 26 15 9 q 108 85 78 43 q 169 198 139 127 q 230 376 199 269 q 291 630 260 483 q 353 972 322 777 l 801 972 l 745 514 l 990 514 z "},"Њ":{"ha":1392,"x_min":101,"x_max":1315,"o":"m 997 14 q 1125 33 1069 14 q 1219 89 1181 52 q 1278 178 1258 125 q 1298 299 1298 231 q 1237 450 1298 399 q 1058 500 1176 500 l 822 500 l 763 14 l 997 14 m 1060 514 q 1250 459 1185 514 q 1315 300 1315 404 q 1293 174 1315 230 q 1231 80 1272 118 q 1131 20 1190 41 q 995 0 1071 0 l 744 0 l 804 486 l 178 486 l 118 0 l 101 0 l 221 972 l 238 972 l 180 501 l 806 501 l 864 972 l 881 972 l 824 514 l 1060 514 z "},"Ѳ":{"ha":1013,"x_min":95,"x_max":935,"o":"m 116 492 q 112 408 112 451 q 136 240 112 315 q 206 113 161 165 q 315 32 251 60 q 455 4 378 4 q 626 38 547 4 q 767 134 706 71 q 866 288 828 197 q 915 492 905 378 l 116 492 m 915 508 q 917 565 917 535 q 893 733 917 658 q 824 861 869 808 q 716 941 779 913 q 574 969 652 969 q 410 938 487 969 q 272 847 333 906 q 171 701 211 787 q 117 508 131 616 l 915 508 m 576 983 q 724 954 658 983 q 838 870 791 924 q 910 738 885 815 q 935 565 935 660 q 899 326 935 433 q 797 145 862 220 q 644 31 733 71 q 453 -10 556 -10 q 306 20 372 -10 q 193 103 240 49 q 120 235 146 158 q 95 407 95 312 q 112 572 95 494 q 159 713 128 649 q 234 827 190 776 q 331 912 277 877 q 446 965 384 947 q 576 983 508 983 z "},"П":{"ha":920,"x_min":101,"x_max":837,"o":"m 717 0 l 701 0 l 818 957 l 235 957 l 118 0 l 101 0 l 221 972 l 837 972 l 717 0 z "},"У":{"ha":749,"x_min":101,"x_max":785,"o":"m 785 972 l 309 106 q 240 20 276 47 q 155 -7 204 -7 q 131 -5 140 -7 q 122 2 121 -2 l 122 9 l 156 9 q 233 34 199 9 q 294 111 267 60 l 376 264 l 101 972 l 115 972 q 123 967 120 972 l 372 317 q 380 297 376 308 q 385 275 383 285 q 396 297 390 286 q 408 318 402 307 l 760 967 q 770 972 763 972 l 785 972 z "},"Ѵ":{"ha":852,"x_min":96,"x_max":897,"o":"m 747 885 q 798 950 767 928 q 861 972 830 972 q 891 970 885 972 q 896 964 897 968 l 895 959 l 861 959 q 834 953 848 959 q 808 938 820 948 q 784 913 795 927 q 765 881 773 899 l 364 0 l 350 0 l 96 972 l 108 972 q 115 965 114 972 l 352 51 q 356 37 354 44 q 359 22 358 30 q 366 37 363 30 q 373 51 369 44 l 747 885 z "},"Ф":{"ha":948,"x_min":86,"x_max":886,"o":"m 448 136 q 565 152 510 136 q 667 196 620 168 q 751 264 714 224 q 815 350 789 303 q 855 450 841 397 q 869 561 869 504 q 847 690 869 628 q 783 797 825 751 q 680 871 741 844 q 542 899 619 899 l 448 136 m 525 899 q 354 864 431 899 q 221 772 276 830 q 134 636 165 713 q 103 474 103 559 q 125 344 103 406 q 189 237 147 283 q 292 164 231 191 q 431 136 353 136 l 525 899 m 543 912 q 691 883 627 912 q 799 806 756 854 q 864 694 842 758 q 886 562 886 631 q 855 393 886 473 q 767 254 824 314 q 628 158 710 194 q 447 122 547 122 l 431 0 l 415 0 l 430 122 q 282 151 346 122 q 174 227 217 179 q 108 339 131 276 q 86 472 86 402 q 101 587 86 531 q 142 691 115 642 q 208 780 169 740 q 296 850 247 821 q 403 895 345 879 q 526 912 461 912 l 540 1025 l 557 1025 l 543 912 z "},"Ц":{"ha":958,"x_min":101,"x_max":876,"o":"m 876 15 l 844 -242 q 836 -250 843 -250 l 828 -250 l 859 0 l 101 0 l 221 972 l 238 972 l 120 15 l 703 15 l 820 972 l 837 972 l 719 15 l 876 15 z "},"Џ":{"ha":920,"x_min":101,"x_max":837,"o":"m 837 972 l 717 0 l 417 0 l 388 -242 q 379 -250 386 -250 l 371 -250 l 401 0 l 101 0 l 221 972 l 238 972 l 120 15 l 703 15 l 820 972 l 837 972 z "},"Ч":{"ha":807,"x_min":99,"x_max":724,"o":"m 724 972 l 604 0 l 588 0 l 649 498 q 506 457 576 474 q 372 435 435 440 q 256 437 308 429 q 168 471 203 445 q 116 544 132 497 q 108 663 99 591 l 146 972 l 163 972 l 125 663 q 131 556 117 599 q 176 488 144 513 q 257 454 208 463 q 366 450 305 445 q 499 471 427 455 q 651 513 572 488 l 707 972 l 724 972 z "},"Ш":{"ha":1360,"x_min":101,"x_max":1276,"o":"m 1276 972 l 1157 0 l 101 0 l 221 972 l 238 972 l 120 15 l 619 15 l 737 972 l 753 972 l 636 15 l 1142 15 l 1259 972 l 1276 972 z "},"Щ":{"ha":1397,"x_min":101,"x_max":1315,"o":"m 1315 15 l 1284 -242 q 1276 -250 1283 -250 l 1267 -250 l 1299 0 l 101 0 l 221 972 l 238 972 l 120 15 l 619 15 l 737 972 l 753 972 l 636 15 l 1142 15 l 1259 972 l 1276 972 l 1159 15 l 1315 15 z "},"Ъ":{"ha":887,"x_min":77,"x_max":809,"o":"m 492 14 q 619 33 563 14 q 714 89 675 52 q 772 178 752 125 q 792 299 792 231 q 731 450 792 399 q 552 500 670 500 l 313 500 l 253 14 l 492 14 m 554 514 q 744 459 679 514 q 809 300 809 404 q 788 174 809 230 q 725 80 766 118 q 625 20 685 41 q 490 0 565 0 l 235 0 l 352 957 l 77 957 l 79 972 l 371 972 l 315 514 l 554 514 z "},"Ы":{"ha":1080,"x_min":101,"x_max":997,"o":"m 358 14 q 486 33 430 14 q 580 89 542 52 q 639 178 619 125 q 659 299 659 231 q 598 450 659 399 q 419 500 537 500 l 179 500 l 119 14 l 358 14 m 421 514 q 611 459 546 514 q 676 300 676 404 q 654 174 676 230 q 592 80 633 118 q 492 20 551 41 q 356 0 432 0 l 101 0 l 221 972 l 238 972 l 181 514 l 421 514 m 877 0 l 860 0 l 980 972 l 997 972 l 877 0 z "},"Ь":{"ha":753,"x_min":101,"x_max":676,"o":"m 358 14 q 486 33 430 14 q 580 89 542 52 q 639 178 619 125 q 659 299 659 231 q 598 450 659 399 q 419 500 537 500 l 179 500 l 119 14 l 358 14 m 421 514 q 611 459 546 514 q 676 300 676 404 q 654 174 676 230 q 592 80 633 118 q 492 20 551 41 q 356 0 432 0 l 101 0 l 221 972 l 238 972 l 181 514 l 421 514 z "},"Э":{"ha":890,"x_min":30,"x_max":813,"o":"m 140 869 q 280 954 207 925 q 443 983 352 983 q 598 952 529 983 q 714 866 666 922 q 787 732 762 810 q 813 560 813 654 q 775 324 813 430 q 673 144 738 218 q 520 29 608 69 q 331 -11 432 -11 q 230 -1 275 -11 q 149 27 185 9 q 84 69 113 44 q 30 124 55 94 l 37 129 q 42 131 39 131 q 47 128 44 131 q 101 75 72 98 q 164 35 130 51 q 239 11 198 19 q 332 3 281 3 q 500 36 421 3 q 642 133 580 70 q 743 287 703 197 q 793 492 783 378 l 257 492 l 258 508 l 794 508 q 795 534 795 521 q 796 560 796 547 q 771 729 796 653 q 700 858 746 804 q 588 940 653 911 q 442 969 523 969 q 320 953 373 969 q 231 916 268 936 q 174 879 194 896 q 149 863 153 863 q 142 865 143 863 l 140 869 z "},"Є":{"ha":892,"x_min":95,"x_max":863,"o":"m 789 124 q 722 69 757 94 q 646 27 687 44 q 558 -1 606 9 q 456 -11 511 -11 q 308 19 374 -11 q 194 103 242 49 q 121 235 147 158 q 95 409 95 313 q 132 643 95 538 q 235 825 169 749 q 390 942 301 900 q 584 983 479 983 q 741 955 673 983 q 863 869 808 926 l 859 865 q 852 863 857 863 q 831 879 847 863 q 782 916 814 896 q 701 953 749 936 q 583 969 652 969 q 416 938 495 969 q 276 845 338 906 q 172 700 214 785 q 117 508 131 615 l 656 508 l 653 492 l 116 492 q 112 410 112 453 q 137 241 112 317 q 208 113 163 165 q 317 31 253 60 q 457 3 381 3 q 551 11 508 3 q 632 34 594 19 q 704 74 669 50 q 773 128 739 97 q 779 131 777 131 q 783 129 781 131 l 789 124 l 789 124 z "},"Ю":{"ha":1301,"x_min":101,"x_max":1222,"o":"m 238 972 l 118 0 l 101 0 l 221 972 l 238 972 m 783 6 q 949 44 872 6 q 1083 157 1026 83 q 1173 335 1140 230 q 1206 572 1206 440 q 1184 737 1206 663 q 1123 862 1163 810 q 1027 942 1083 914 q 901 969 971 969 q 735 930 813 969 q 601 817 658 890 q 511 638 544 743 q 478 401 478 532 q 499 236 478 309 q 561 112 521 163 q 657 33 601 60 q 783 6 713 6 m 466 497 q 516 700 478 610 q 613 852 555 790 q 744 949 670 915 q 903 983 819 983 q 1035 954 976 983 q 1135 871 1094 925 q 1200 741 1177 817 q 1222 571 1222 665 q 1188 330 1222 438 q 1094 148 1153 223 q 954 32 1035 73 q 781 -8 874 -8 q 649 20 708 -8 q 548 102 590 49 q 484 231 506 156 q 461 401 461 307 q 462 442 461 422 q 465 482 463 462 l 192 482 l 194 497 l 466 497 z "},"Я":{"ha":818,"x_min":-35,"x_max":735,"o":"m 657 472 l 717 958 l 478 958 q 256 888 333 958 q 178 679 178 817 q 239 525 178 578 q 417 472 299 472 l 657 472 m 615 0 l 599 0 l 655 458 l 463 458 q 427 456 444 458 q 392 444 410 453 q 357 420 375 435 q 317 380 338 405 l -8 8 q -23 0 -14 0 l -35 0 l 303 387 q 356 436 332 419 q 403 460 379 453 q 222 521 283 464 q 161 679 161 578 q 182 804 161 749 q 244 896 203 858 q 344 953 285 933 q 480 972 403 972 l 735 972 l 615 0 z "},"Ђ":{"ha":910,"x_min":83,"x_max":835,"o":"m 581 514 q 770 459 706 514 q 835 300 835 404 q 814 174 835 230 q 752 80 792 118 q 651 20 711 41 q 516 0 592 0 l 442 0 l 443 14 l 518 14 q 645 33 590 14 q 740 89 701 52 q 799 178 778 125 q 819 299 819 231 q 758 450 819 399 q 579 500 697 500 l 327 500 l 265 0 l 249 0 l 366 957 l 83 957 l 85 972 l 724 972 l 722 957 l 383 957 l 328 514 l 581 514 z "},"Ћ":{"ha":925,"x_min":84,"x_max":846,"o":"m 328 509 q 469 550 401 533 q 597 572 538 567 q 705 570 656 578 q 785 536 753 562 q 832 463 817 510 q 837 344 846 416 l 794 0 l 778 0 l 820 344 q 815 451 828 408 q 773 520 803 494 q 698 554 743 545 q 595 558 653 563 q 470 537 538 553 q 327 494 402 520 l 266 0 l 249 0 l 367 957 l 84 957 l 86 972 l 725 972 l 723 957 l 384 957 l 328 509 z "},"Ѣ":{"ha":899,"x_min":88,"x_max":819,"o":"m 502 14 q 630 33 574 14 q 724 89 685 52 q 783 178 763 125 q 803 299 803 231 q 742 450 803 399 q 563 500 681 500 l 323 500 l 263 14 l 502 14 m 565 514 q 755 459 690 514 q 819 300 819 404 q 798 174 819 230 q 736 80 776 118 q 635 20 695 41 q 500 0 576 0 l 245 0 l 340 771 l 88 771 l 90 786 l 342 786 l 365 972 l 381 972 l 358 786 l 669 786 l 667 771 l 356 771 l 325 514 l 565 514 z "},"б":{"ha":727,"x_min":101,"x_max":694,"o":"m 442 672 q 314 641 373 672 q 210 557 254 610 q 142 435 167 504 q 117 292 117 367 q 170 77 117 150 q 318 5 224 5 q 405 22 364 5 q 481 70 447 40 q 544 141 516 100 q 591 229 572 182 q 621 327 610 276 q 631 429 631 378 q 617 533 631 488 q 578 609 603 578 q 518 656 553 640 q 442 672 483 672 m 694 1007 l 694 1002 q 685 992 694 994 l 512 965 q 369 919 430 951 q 266 841 309 887 q 195 740 223 796 q 150 624 167 684 q 126 502 133 564 q 115 383 118 440 q 165 511 131 455 q 243 606 199 567 q 339 665 287 644 q 444 685 390 685 q 523 669 485 685 q 587 622 560 653 q 631 542 615 590 q 647 429 647 494 q 636 324 647 377 q 605 223 625 272 q 556 132 585 174 q 491 59 527 90 q 410 10 454 28 q 317 -8 367 -8 q 236 7 275 -8 q 167 58 197 22 q 119 156 137 95 q 101 310 101 217 q 106 442 101 372 q 126 581 111 512 q 170 716 142 651 q 243 835 198 781 q 353 926 288 888 q 509 978 419 963 l 694 1007 z "},"в":{"ha":641,"x_min":60,"x_max":552,"o":"m 85 325 q 76 233 76 278 q 89 144 76 185 q 127 71 102 102 q 189 23 152 40 q 276 5 226 5 q 369 23 324 5 q 449 70 415 40 q 504 140 483 100 q 524 225 524 180 q 511 291 524 260 q 469 341 499 321 q 391 366 440 360 q 269 359 342 372 l 85 325 m 247 369 q 400 409 342 386 q 488 458 457 433 q 529 511 519 484 q 539 564 539 538 q 532 600 539 581 q 510 637 526 620 q 467 665 494 653 q 400 676 440 676 q 285 647 338 676 q 193 572 233 619 q 126 464 153 524 q 87 339 99 403 l 247 369 m 349 378 q 435 370 399 381 q 494 340 471 360 q 529 291 518 320 q 540 225 540 261 q 517 134 540 176 q 459 59 495 91 q 375 9 422 28 q 275 -9 327 -9 q 182 10 222 -9 q 115 62 142 29 q 74 139 88 94 q 60 232 60 183 q 71 340 60 285 q 102 446 82 395 q 152 541 123 497 q 220 618 182 585 q 303 670 258 651 q 401 690 349 690 q 473 677 444 690 q 519 647 501 665 q 544 606 537 628 q 552 564 552 584 q 543 511 552 538 q 511 461 534 485 q 449 416 488 438 q 349 378 410 395 z "},"г":{"ha":558,"x_min":36,"x_max":483,"o":"m 108 613 q 155 647 128 632 q 209 671 181 661 q 267 686 238 681 q 323 692 296 692 q 384 684 356 692 q 435 661 413 676 q 470 624 457 646 q 483 573 483 601 q 464 510 483 540 q 415 453 446 480 q 346 400 385 426 q 267 350 308 375 q 188 300 226 325 q 119 248 149 275 q 70 192 88 222 q 51 131 51 163 q 65 80 51 103 q 102 40 78 57 q 157 15 125 24 q 227 6 190 6 q 309 17 271 6 q 376 41 347 28 q 424 66 405 55 q 448 78 442 78 q 460 70 456 78 q 350 13 410 34 q 227 -8 290 -8 q 147 3 183 -8 q 87 33 112 14 q 49 77 63 52 q 36 130 36 102 q 55 195 36 165 q 103 253 73 225 q 173 306 134 281 q 252 357 211 332 q 331 407 292 382 q 400 458 369 431 q 449 512 431 484 q 467 572 467 540 q 457 615 467 595 q 427 648 447 634 q 381 670 408 663 q 321 678 354 678 q 243 667 278 678 q 182 643 208 656 q 139 618 156 630 q 117 606 123 607 q 110 609 113 605 l 108 613 z "},"ґ":{"ha":490,"x_min":-23,"x_max":533,"o":"m 495 667 l 496 667 l 380 667 q 258 609 303 667 q 192 427 214 551 l 144 152 q 95 34 131 71 q 5 -3 59 -3 q -17 -1 -11 -3 q -22 5 -23 1 l -22 12 l 2 12 q 84 45 51 12 q 129 152 117 79 l 177 427 q 205 539 188 492 q 246 618 222 587 q 304 665 271 649 q 381 681 337 681 l 484 681 l 517 842 q 521 858 520 854 q 528 862 522 862 l 533 862 l 495 667 z "},"д":{"ha":701,"x_min":65,"x_max":610,"o":"m 274 7 q 389 39 332 7 q 490 135 445 70 q 564 298 535 199 q 594 531 592 397 q 565 591 583 564 q 520 638 546 618 q 462 668 494 657 q 390 678 429 678 q 299 661 341 678 q 222 614 256 644 q 160 544 187 584 q 116 457 134 503 q 89 361 98 411 q 80 262 80 311 q 94 152 80 199 q 135 72 109 104 q 197 23 161 40 q 274 7 232 7 m 203 980 q 383 960 306 986 q 510 880 460 935 q 585 742 560 825 q 610 552 610 659 q 581 303 610 408 q 504 128 551 197 q 395 26 456 60 q 271 -7 334 -7 q 185 12 224 -7 q 120 67 147 31 q 79 152 94 102 q 65 265 65 202 q 75 367 65 315 q 104 466 85 418 q 151 555 123 513 q 216 626 179 596 q 296 675 252 657 q 392 692 340 692 q 520 656 466 692 q 597 549 574 620 q 573 735 597 655 q 501 869 549 816 q 380 948 453 923 q 206 967 307 973 q 202 969 203 967 q 201 973 201 971 l 203 980 z "},"ж":{"ha":1193,"x_min":17,"x_max":1158,"o":"m 1024 684 q 1060 690 1042 690 q 1109 684 1087 690 q 1158 661 1131 678 l 1155 658 q 1152 655 1153 656 q 1149 653 1151 654 q 1139 657 1146 653 q 1121 665 1132 660 q 1095 674 1110 669 q 1061 678 1081 678 q 1000 660 1029 678 q 944 612 970 643 q 897 538 918 581 q 860 443 876 494 q 837 333 845 391 q 828 213 828 274 q 857 55 828 103 q 941 6 885 6 q 995 15 972 6 q 1034 36 1018 24 q 1058 57 1049 47 q 1070 67 1067 67 q 1078 66 1076 68 l 1081 65 q 1046 29 1064 43 q 1010 7 1028 15 q 975 -4 992 -1 q 943 -7 958 -7 q 847 44 881 -7 q 813 210 813 96 q 821 328 813 271 q 844 436 829 385 q 880 531 859 488 q 928 608 901 575 q 836 514 885 569 q 740 391 788 458 q 648 251 692 324 q 571 104 604 178 l 560 -1 l 545 -1 l 601 546 q 556 462 584 511 q 491 357 528 413 q 413 245 455 301 q 326 139 370 188 q 239 53 283 90 q 157 2 196 17 l 151 -1 q 115 -7 132 -7 q 66 -1 88 -7 q 17 22 44 6 l 19 26 q 25 30 23 29 q 35 27 28 31 q 53 18 42 23 q 79 10 64 14 q 113 6 94 6 q 203 43 161 6 q 277 145 246 81 q 327 294 309 210 q 346 470 346 378 q 318 629 346 580 q 233 678 290 678 q 179 668 202 678 q 141 648 156 659 q 116 626 125 636 q 104 616 107 617 q 96 617 99 615 l 94 619 q 128 654 110 640 q 164 676 146 668 q 199 687 182 684 q 231 690 217 690 q 327 639 293 690 q 361 473 361 588 q 353 355 361 413 q 330 247 345 298 q 294 152 315 196 q 247 75 273 108 q 338 170 290 114 q 435 294 387 227 q 527 434 483 360 q 604 582 571 508 l 615 681 l 630 681 l 575 140 q 620 225 592 175 q 685 330 649 274 q 764 441 722 385 q 849 546 806 497 q 936 631 893 594 q 1017 681 979 667 l 1024 684 z "},"з":{"ha":577,"x_min":13,"x_max":490,"o":"m 108 599 q 145 635 123 619 q 194 665 167 652 q 254 684 222 677 q 322 692 286 692 q 399 679 367 692 q 451 647 431 667 q 481 602 472 627 q 490 551 490 577 q 481 497 490 525 q 452 443 472 468 q 399 398 432 417 q 319 372 367 379 q 388 355 359 369 q 436 319 417 340 q 465 272 456 298 q 474 217 474 245 q 455 131 474 172 q 400 59 435 90 q 318 10 365 28 q 214 -8 270 -8 q 146 -1 178 -8 q 89 18 115 6 q 44 43 63 29 q 13 69 24 56 l 15 72 q 22 76 17 76 q 40 65 27 76 q 76 41 53 53 q 132 17 99 28 q 212 6 166 6 q 313 23 267 6 q 391 69 358 40 q 441 137 423 98 q 458 219 458 176 q 446 280 458 253 q 409 326 433 307 q 347 356 384 345 q 259 367 309 367 q 221 366 239 367 q 181 363 203 365 q 181 372 181 367 q 183 380 181 376 q 260 378 221 378 q 349 389 310 376 q 417 425 389 402 q 460 481 445 449 q 475 551 475 513 q 467 597 475 574 q 442 638 460 620 q 395 667 424 656 q 323 678 366 678 q 232 665 269 678 q 170 636 194 651 q 133 607 146 620 q 116 594 121 594 q 112 597 115 594 l 108 599 z "},"и":{"ha":701,"x_min":85,"x_max":613,"o":"m 613 681 l 531 0 l 526 0 q 519 3 521 0 q 518 10 518 6 l 550 274 l 550 277 q 486 160 522 213 q 409 69 450 107 q 323 12 367 32 q 233 -8 278 -8 q 159 9 189 -8 q 111 59 128 26 q 90 139 94 92 q 93 247 85 187 l 144 681 l 160 681 l 108 247 q 105 145 101 190 q 124 69 109 101 q 167 22 140 38 q 235 6 194 6 q 322 27 278 6 q 407 88 366 48 q 486 183 449 127 q 553 309 523 240 l 597 681 l 613 681 z "},"к":{"ha":592,"x_min":70,"x_max":591,"o":"m 484 626 q 504 648 492 638 q 528 666 515 658 q 555 678 541 674 q 581 683 569 683 l 591 683 l 590 676 q 580 669 588 671 q 558 664 571 667 q 529 650 544 660 q 499 621 514 641 l 338 416 q 301 378 319 392 q 253 356 283 363 q 303 331 282 349 q 340 285 324 313 l 511 0 l 502 0 q 488 6 492 0 l 328 275 q 284 326 310 306 q 223 347 258 347 l 125 331 l 85 0 l 70 0 l 152 681 l 167 681 l 126 345 l 230 363 q 281 382 259 367 q 321 419 303 396 l 484 626 z "},"л":{"ha":720,"x_min":-8,"x_max":633,"o":"m 226 353 q 282 505 251 442 q 354 606 312 567 q 453 663 396 645 q 588 681 510 681 l 633 681 l 550 0 l 535 0 l 616 667 l 587 667 q 458 649 512 667 q 364 594 404 632 q 296 497 324 556 q 244 352 267 437 q 191 183 215 251 q 140 72 166 114 q 84 11 114 30 q 16 -7 54 -7 q -7 1 -8 -7 l -6 8 l 17 8 q 81 28 53 8 q 132 90 108 48 q 179 197 156 131 q 226 353 201 262 z "},"љ":{"ha":1090,"x_min":-8,"x_max":1015,"o":"m 586 124 q 591 78 583 99 q 617 40 599 56 q 662 15 635 24 q 726 6 690 6 q 826 28 777 6 q 913 89 875 51 q 975 175 951 126 q 999 278 999 224 q 991 334 999 307 q 968 381 984 360 q 927 414 952 402 q 865 426 901 426 q 806 416 836 426 q 746 389 775 406 q 690 347 717 371 q 643 294 664 322 q 609 235 622 266 q 591 172 595 203 l 586 124 m 600 242 q 643 314 615 278 q 706 377 671 349 q 782 423 742 406 q 864 440 823 440 q 931 427 902 440 q 978 393 959 415 q 1006 341 997 371 q 1015 278 1015 311 q 1003 206 1015 241 q 972 139 992 170 q 925 80 952 107 q 866 33 898 53 q 798 3 833 14 q 726 -8 763 -8 q 654 2 685 -8 q 604 32 624 13 q 576 74 585 50 q 571 125 567 99 l 638 667 l 601 667 q 469 649 526 667 q 371 594 413 632 q 298 497 329 556 q 244 352 267 437 q 191 183 215 251 q 140 72 166 114 q 84 11 114 30 q 16 -7 54 -7 q -7 1 -8 -7 l -6 8 l 17 8 q 81 28 53 8 q 132 90 108 48 q 179 197 156 131 q 226 353 201 262 q 284 505 251 442 q 361 606 316 567 q 465 663 406 645 q 602 681 524 681 l 654 681 l 600 242 z "},"м":{"ha":917,"x_min":29,"x_max":831,"o":"m 831 685 l 747 0 l 733 0 l 810 634 q 814 649 811 640 l 427 39 q 424 34 426 37 q 419 32 422 32 l 417 32 q 414 34 415 32 q 411 39 413 37 l 200 654 q 200 646 200 650 q 199 638 199 642 q 132 309 169 466 q 47 8 94 151 q 34 0 45 0 l 29 0 q 65 115 49 60 q 96 224 82 170 q 123 331 110 277 q 148 440 136 384 q 171 557 160 497 q 194 685 183 617 l 200 685 q 206 681 205 685 l 417 62 q 419 56 418 59 q 421 51 419 53 q 424 56 422 53 q 427 62 425 59 l 819 681 q 826 685 822 685 l 831 685 z "},"н":{"ha":695,"x_min":69,"x_max":608,"o":"m 608 681 l 525 0 l 510 0 l 553 355 l 128 355 l 85 0 l 69 0 l 152 681 l 167 681 l 129 369 l 554 369 l 592 681 l 608 681 z "},"њ":{"ha":1044,"x_min":69,"x_max":968,"o":"m 540 124 q 545 78 537 99 q 570 40 553 56 q 616 15 588 24 q 680 6 643 6 q 780 28 731 6 q 867 89 828 51 q 928 175 905 126 q 952 278 952 224 q 945 334 952 307 q 922 381 938 360 q 880 414 906 402 q 819 426 855 426 q 759 416 790 426 q 699 389 728 406 q 644 347 670 371 q 597 294 617 322 q 562 235 576 266 q 544 172 549 203 l 540 124 m 553 242 q 597 314 569 278 q 660 377 624 349 q 736 423 695 406 q 817 440 776 440 q 884 427 856 440 q 931 393 913 415 q 959 341 950 371 q 968 278 968 311 q 957 206 968 241 q 926 139 946 170 q 878 80 906 107 q 819 33 851 53 q 751 3 787 14 q 679 -8 716 -8 q 608 2 638 -8 q 558 32 577 13 q 530 74 538 50 q 524 125 521 99 l 553 362 l 128 362 l 85 0 l 69 0 l 152 681 l 167 681 l 131 376 l 555 376 l 592 681 l 608 681 l 553 242 z "},"ѳ":{"ha":706,"x_min":65,"x_max":624,"o":"m 86 333 q 82 268 82 300 q 97 158 82 207 q 141 76 113 110 q 209 24 169 42 q 300 6 249 6 q 410 32 359 6 q 499 104 460 59 q 564 208 538 149 q 601 333 590 267 l 86 333 m 602 347 q 606 381 605 364 q 607 415 607 398 q 592 524 607 476 q 548 606 576 572 q 479 658 519 640 q 389 676 439 676 q 278 650 329 676 q 189 577 228 623 q 124 472 149 532 q 88 347 98 413 l 602 347 m 390 690 q 488 671 444 690 q 561 615 531 651 q 607 528 591 579 q 624 415 624 478 q 613 310 624 363 q 583 211 603 258 q 535 124 563 164 q 471 54 507 83 q 391 8 435 25 q 299 -8 348 -8 q 201 11 244 -8 q 127 66 158 31 q 81 153 97 102 q 65 268 65 204 q 88 424 65 348 q 154 559 111 499 q 256 654 197 618 q 390 690 316 690 z "},"п":{"ha":701,"x_min":70,"x_max":604,"o":"m 133 408 q 197 525 161 473 q 275 614 233 577 q 360 670 316 651 q 449 690 405 690 q 571 624 538 690 q 590 436 604 557 l 538 0 l 523 0 l 574 436 q 577 538 581 493 q 558 613 574 582 q 516 660 543 644 q 448 676 488 676 q 361 655 405 676 q 275 595 317 634 q 197 500 234 556 q 130 374 160 444 l 85 0 l 70 0 l 152 683 l 155 683 q 162 680 160 683 q 163 674 163 677 l 133 408 z "},"т":{"ha":1075,"x_min":70,"x_max":970,"o":"m 70 0 l 152 683 l 155 683 q 162 680 160 683 q 163 674 163 677 l 133 408 q 194 525 160 473 q 267 614 228 577 q 349 670 306 651 q 435 690 391 690 q 506 673 480 690 q 544 624 532 656 q 555 544 556 591 q 548 436 555 497 q 609 548 574 500 q 683 627 644 596 q 763 675 722 659 q 842 690 804 690 q 914 673 887 690 q 955 624 942 656 q 969 544 968 591 q 963 436 970 497 l 912 0 l 897 0 l 948 436 q 954 538 955 493 q 942 613 953 582 q 906 660 931 644 q 841 676 881 676 q 764 660 803 676 q 685 611 724 644 q 611 527 647 578 q 546 405 575 476 l 498 0 l 483 0 l 534 436 q 542 538 541 493 q 532 613 542 582 q 498 660 522 644 q 434 676 475 676 q 268 599 344 676 q 130 374 192 521 l 85 0 l 70 0 z "},"ѵ":{"ha":658,"x_min":67,"x_max":660,"o":"m 535 606 q 561 647 548 631 q 588 672 574 663 q 614 683 601 680 q 639 685 626 685 q 655 684 649 685 q 660 681 660 683 l 658 672 l 642 672 q 590 656 610 672 q 551 603 569 640 l 260 0 l 248 0 l 67 681 l 77 681 q 85 677 83 681 q 88 671 88 674 l 251 47 q 254 34 253 41 q 257 21 256 28 q 262 34 259 28 q 268 47 265 40 l 535 606 z "},"ф":{"ha":958,"x_min":63,"x_max":878,"o":"m 444 58 q 502 17 468 29 q 571 4 535 4 q 658 23 618 4 q 731 74 699 42 q 788 150 763 106 q 829 243 813 193 q 854 345 846 292 q 863 451 863 399 q 850 557 863 514 q 816 627 838 600 q 764 665 794 653 q 700 676 734 676 q 640 668 670 676 q 582 646 609 660 q 535 610 556 631 q 505 563 514 589 l 444 58 m 497 623 q 439 665 473 652 q 370 678 406 678 q 282 659 322 678 q 210 608 242 640 q 153 532 178 576 q 112 439 128 489 q 87 336 95 390 q 78 231 78 283 q 91 125 78 168 q 125 55 103 82 q 177 17 147 28 q 241 6 207 6 q 301 14 271 6 q 359 36 332 22 q 406 72 385 51 q 436 119 426 93 l 497 623 m 509 593 q 542 632 522 614 q 588 663 563 649 q 643 683 614 676 q 702 690 673 690 q 773 676 740 690 q 828 633 805 663 q 865 559 852 604 q 878 451 878 513 q 869 342 878 397 q 842 236 860 288 q 798 141 824 185 q 738 63 772 97 q 661 11 703 30 q 570 -8 619 -8 q 495 6 527 -8 q 442 44 463 21 l 408 -240 q 396 -250 406 -250 l 391 -250 l 432 89 q 399 50 419 68 q 353 19 378 33 q 298 -1 327 6 q 239 -8 268 -8 q 168 6 200 -8 q 113 49 136 19 q 76 123 89 78 q 63 231 63 169 q 72 340 63 285 q 99 445 81 394 q 143 541 117 497 q 203 619 169 585 q 280 671 238 652 q 371 690 322 690 q 447 676 415 690 q 499 638 478 661 l 542 990 q 553 1000 544 1000 l 558 1000 l 509 593 z "},"ц":{"ha":725,"x_min":85,"x_max":646,"o":"m 646 14 l 587 -242 q 578 -250 586 -250 l 572 -250 l 631 0 l 526 0 q 519 3 521 0 q 518 10 518 6 l 550 274 l 550 277 q 486 160 522 213 q 409 69 450 107 q 323 12 367 32 q 233 -8 278 -8 q 159 9 189 -8 q 111 59 128 26 q 90 139 94 92 q 93 247 85 187 l 144 681 l 160 681 l 108 247 q 105 145 101 190 q 124 69 109 101 q 167 22 140 38 q 235 6 194 6 q 322 27 278 6 q 407 88 366 48 q 486 183 449 127 q 553 309 523 240 l 597 681 l 613 681 l 532 14 l 646 14 z "},"џ":{"ha":701,"x_min":85,"x_max":613,"o":"m 613 681 l 531 0 l 526 0 q 519 3 521 0 q 518 10 518 6 l 550 274 l 550 277 q 493 170 525 219 q 425 86 462 122 q 350 26 389 49 q 270 -5 310 3 l 241 -242 q 233 -250 240 -250 l 226 -250 l 256 -7 q 245 -8 251 -8 q 233 -8 239 -8 q 159 9 189 -8 q 111 59 128 26 q 90 139 94 92 q 93 247 85 187 l 144 681 l 160 681 l 108 247 q 105 145 101 190 q 124 69 109 101 q 167 22 140 38 q 235 6 194 6 q 322 27 278 6 q 407 88 366 48 q 486 183 449 127 q 553 309 523 240 l 597 681 l 613 681 z "},"ч":{"ha":617,"x_min":72,"x_max":530,"o":"m 530 681 l 447 0 l 432 0 l 483 417 q 438 349 465 382 q 376 291 410 317 q 302 250 342 265 q 218 235 263 235 q 144 251 174 235 q 98 294 115 267 q 77 360 82 322 q 78 442 72 398 l 105 681 l 120 681 l 93 442 q 93 366 89 401 q 111 305 97 331 q 152 264 126 278 q 218 249 178 249 q 304 265 263 249 q 379 309 344 281 q 440 372 413 336 q 486 448 467 408 l 515 681 l 530 681 z "},"ш":{"ha":1075,"x_min":86,"x_max":987,"o":"m 987 681 l 905 0 l 902 0 q 895 3 897 0 q 894 10 893 6 l 924 274 q 863 158 897 210 q 790 69 828 106 q 708 12 751 32 q 622 -8 666 -8 q 551 9 576 -8 q 513 59 525 26 q 501 139 501 92 q 509 247 501 187 q 448 135 483 183 q 374 55 413 87 q 294 8 335 24 q 215 -8 253 -8 q 142 9 169 -8 q 102 59 115 26 q 88 139 89 92 q 94 247 86 187 l 145 681 l 160 681 l 109 247 q 103 145 102 190 q 115 69 103 101 q 151 22 126 38 q 216 6 175 6 q 293 22 253 6 q 372 71 333 38 q 446 156 410 104 q 511 278 482 207 l 559 681 l 574 681 l 523 247 q 515 145 516 190 q 525 69 515 101 q 559 22 535 38 q 623 6 582 6 q 789 84 713 6 q 927 309 865 163 l 972 681 l 987 681 z "},"щ":{"ha":1094,"x_min":86,"x_max":1009,"o":"m 1009 14 l 950 -242 q 942 -250 949 -250 l 935 -250 l 993 0 l 902 0 q 895 3 897 0 q 894 10 893 6 l 924 274 q 863 158 897 210 q 790 69 828 106 q 708 12 751 32 q 622 -8 666 -8 q 551 9 576 -8 q 513 59 525 26 q 501 139 501 92 q 509 247 501 187 q 448 135 483 183 q 374 55 413 87 q 294 8 335 24 q 215 -8 253 -8 q 142 9 169 -8 q 102 59 115 26 q 88 139 89 92 q 94 247 86 187 l 145 681 l 160 681 l 109 247 q 103 145 102 190 q 115 69 103 101 q 151 22 126 38 q 216 6 175 6 q 293 22 253 6 q 372 71 333 38 q 446 156 410 104 q 511 278 482 207 l 559 681 l 574 681 l 523 247 q 515 145 516 190 q 525 69 515 101 q 559 22 535 38 q 623 6 582 6 q 789 84 713 6 q 927 309 865 163 l 972 681 l 987 681 l 906 14 l 1009 14 z "},"ъ":{"ha":670,"x_min":55,"x_max":593,"o":"m 319 6 q 413 26 367 6 q 495 83 459 47 q 555 168 532 119 q 577 272 577 217 q 570 332 577 303 q 546 381 563 360 q 505 414 530 401 q 443 426 479 426 q 379 417 412 426 q 315 391 347 408 q 257 351 284 374 q 209 300 230 328 q 176 241 188 272 q 165 176 165 209 q 176 103 165 135 q 208 49 188 71 q 257 17 228 28 q 319 6 285 6 m 338 672 q 260 563 292 619 q 207 451 228 507 q 176 341 186 394 q 165 243 166 288 q 210 320 181 284 q 276 382 239 356 q 356 425 314 409 q 442 440 399 440 q 509 427 481 440 q 556 392 538 415 q 584 339 575 369 q 593 274 593 309 q 570 167 593 218 q 510 77 548 116 q 422 15 472 38 q 317 -8 372 -8 q 250 3 281 -8 q 197 42 219 15 q 161 112 174 69 q 148 218 148 156 q 158 325 148 269 q 190 439 169 381 q 242 555 210 497 q 317 667 274 613 l 55 667 l 56 671 q 68 681 57 681 l 338 681 l 338 672 z "},"ы":{"ha":817,"x_min":76,"x_max":729,"o":"m 729 681 l 647 0 l 631 0 l 714 681 l 729 681 m 95 124 q 100 78 92 99 q 126 40 108 56 q 171 15 144 24 q 235 6 199 6 q 335 28 286 6 q 422 89 384 51 q 484 175 460 126 q 508 278 508 224 q 500 334 508 307 q 477 381 493 360 q 436 414 461 402 q 374 426 410 426 q 315 416 345 426 q 255 389 284 406 q 199 347 226 371 q 152 294 173 322 q 118 235 131 266 q 100 172 104 203 l 95 124 m 109 242 q 152 314 124 278 q 215 377 180 349 q 291 423 251 406 q 373 440 332 440 q 440 427 411 440 q 487 393 468 415 q 515 341 506 371 q 524 278 524 311 q 513 206 524 241 q 481 139 501 170 q 434 80 461 107 q 375 33 407 53 q 307 3 342 14 q 235 -8 272 -8 q 163 2 194 -8 q 113 32 133 13 q 85 74 94 50 q 80 125 76 99 l 148 681 l 163 681 l 109 242 z "},"ь":{"ha":599,"x_min":76,"x_max":524,"o":"m 95 124 q 100 78 92 99 q 126 40 108 56 q 171 15 144 24 q 235 6 199 6 q 335 28 286 6 q 422 89 384 51 q 484 175 460 126 q 508 278 508 224 q 500 334 508 307 q 477 381 493 360 q 436 414 461 402 q 374 426 410 426 q 315 416 345 426 q 255 389 284 406 q 199 347 226 371 q 152 294 173 322 q 118 235 131 266 q 100 172 104 203 l 95 124 m 109 242 q 152 314 124 278 q 215 377 180 349 q 291 423 251 406 q 373 440 332 440 q 440 427 411 440 q 487 393 468 415 q 515 341 506 371 q 524 278 524 311 q 513 206 524 241 q 481 139 501 170 q 434 80 461 107 q 375 33 407 53 q 307 3 342 14 q 235 -8 272 -8 q 163 2 194 -8 q 113 32 133 13 q 85 74 94 50 q 80 125 76 99 l 148 681 l 163 681 l 109 242 z "},"э":{"ha":632,"x_min":39,"x_max":547,"o":"m 84 612 q 138 649 113 633 q 188 674 163 664 q 237 688 212 683 q 290 692 262 692 q 405 668 356 692 q 485 603 453 644 q 532 508 517 563 q 547 392 547 453 q 526 244 547 316 q 465 116 505 172 q 366 26 424 60 q 235 -8 308 -8 q 174 -2 203 -8 q 119 17 144 5 q 74 45 94 29 q 39 82 53 62 l 42 85 q 49 88 44 88 q 64 75 51 88 q 99 47 76 62 q 156 18 122 31 q 236 6 190 6 q 350 33 299 6 q 438 107 401 60 q 499 214 476 153 q 528 341 522 274 l 151 341 l 153 355 l 529 355 q 530 373 530 364 q 531 391 531 382 q 516 501 531 449 q 473 593 502 553 q 399 655 444 632 q 293 678 354 678 q 206 666 242 678 q 147 640 170 654 q 110 615 124 626 q 90 605 97 604 q 85 609 88 606 l 84 612 z "},"є":{"ha":637,"x_min":63,"x_max":572,"o":"m 547 126 q 475 58 508 84 q 411 17 442 31 q 349 -3 380 2 q 285 -8 319 -8 q 185 12 227 -8 q 116 68 143 33 q 76 152 89 103 q 63 257 63 201 q 74 364 63 310 q 106 466 85 417 q 156 555 126 514 q 221 627 185 597 q 301 674 258 657 q 392 692 344 692 q 452 685 426 692 q 501 666 479 678 q 540 638 522 654 q 572 601 557 621 l 569 599 q 562 596 566 596 q 547 609 557 596 q 518 637 538 622 q 468 665 499 652 q 391 678 438 678 q 284 652 334 678 q 195 581 235 626 q 129 478 156 537 q 89 355 101 420 l 456 355 l 455 341 l 87 341 q 82 299 83 320 q 80 257 80 278 q 91 158 80 204 q 128 78 103 113 q 192 25 153 44 q 285 6 231 6 q 361 15 327 6 q 420 38 394 24 q 466 68 447 52 q 500 98 485 84 q 523 121 514 112 q 538 131 532 131 q 545 128 542 131 l 547 126 l 547 126 z "},"ю":{"ha":917,"x_min":69,"x_max":835,"o":"m 533 6 q 613 22 575 6 q 682 67 651 38 q 739 135 714 96 q 782 220 765 174 q 809 317 799 266 q 818 419 818 367 q 804 527 818 479 q 765 608 790 574 q 703 659 740 641 q 621 676 667 676 q 541 660 578 676 q 472 616 503 644 q 415 549 440 588 q 372 464 390 510 q 345 367 354 418 q 335 264 335 316 q 349 156 335 204 q 388 75 363 108 q 450 24 414 42 q 533 6 487 6 m 325 347 q 360 477 335 415 q 424 587 385 540 q 513 663 463 635 q 624 690 563 690 q 711 671 672 690 q 778 617 751 652 q 820 531 806 581 q 835 419 835 481 q 825 314 835 366 q 797 214 815 261 q 752 125 778 166 q 691 55 725 85 q 616 8 657 25 q 530 -8 576 -8 q 442 11 481 -8 q 375 65 403 30 q 333 151 348 101 q 319 264 319 201 q 323 333 319 298 l 126 333 l 85 0 l 69 0 l 153 681 l 169 681 l 128 347 l 325 347 z "},"я":{"ha":653,"x_min":-19,"x_max":567,"o":"m 509 336 l 550 667 l 347 667 q 250 650 290 667 q 186 609 211 634 q 151 552 162 583 q 140 492 140 522 q 153 429 140 458 q 192 380 167 401 q 253 348 217 359 q 336 336 290 336 l 509 336 m 567 681 l 483 0 l 468 0 l 508 322 l 364 322 q 326 318 342 322 q 295 307 309 315 q 271 287 282 299 q 249 260 260 276 l 114 56 q 69 10 93 25 q 8 -6 44 -6 q -14 -3 -8 -6 q -19 3 -19 -1 l -18 8 l 6 8 q 57 20 34 8 q 101 63 81 33 l 239 270 q 269 303 251 288 q 315 326 288 318 q 228 342 264 328 q 169 379 192 356 q 136 430 147 401 q 126 491 126 459 q 138 558 126 524 q 176 619 149 592 q 245 664 203 647 q 347 681 287 681 l 567 681 z "},"ђ":{"ha":687,"x_min":24,"x_max":592,"o":"m 138 424 q 198 508 165 468 q 268 577 231 547 q 345 625 305 608 q 426 643 385 643 q 502 626 470 643 q 553 578 533 608 q 583 506 574 547 q 592 415 592 464 q 575 249 592 329 q 523 90 558 169 q 435 -71 488 10 q 314 -240 383 -152 l 302 -231 q 416 -73 365 -151 q 502 85 467 6 q 557 245 538 164 q 576 413 576 326 q 567 499 576 459 q 539 567 558 538 q 492 613 520 596 q 424 629 463 629 q 347 610 386 629 q 269 558 307 590 q 197 484 231 526 q 134 397 162 442 l 85 0 l 69 0 l 167 796 l 24 796 l 26 811 l 169 811 l 192 1000 l 208 1000 l 185 811 l 459 811 l 458 796 l 183 796 l 138 424 z "},"ѣ":{"ha":699,"x_min":52,"x_max":624,"o":"m 195 124 q 200 78 192 99 q 226 40 208 56 q 271 15 244 24 q 335 6 299 6 q 435 28 386 6 q 522 89 484 51 q 584 175 560 126 q 608 278 608 224 q 600 334 608 307 q 577 381 593 360 q 536 414 561 402 q 474 426 510 426 q 415 416 445 426 q 355 389 384 406 q 299 347 326 371 q 252 294 273 322 q 218 235 231 266 q 200 172 204 203 l 195 124 m 209 242 q 252 314 224 278 q 315 377 280 349 q 391 423 351 406 q 473 440 432 440 q 540 427 511 440 q 587 393 568 415 q 615 341 606 371 q 624 278 624 311 q 613 206 624 241 q 581 139 601 170 q 534 80 561 107 q 475 33 507 53 q 407 3 442 14 q 335 -8 372 -8 q 263 2 294 -8 q 213 32 233 13 q 185 74 194 50 q 180 125 176 99 l 224 489 l 240 616 l 247 667 l 52 667 l 54 681 l 248 681 l 276 905 l 291 905 l 263 681 l 488 681 l 486 667 l 262 667 l 240 489 l 209 242 z "},"!":{"ha":311,"x_min":70,"x_max":231,"o":"m 231 972 l 183 575 q 175 518 178 544 q 167 463 172 491 q 159 403 163 435 q 148 331 154 372 l 137 331 q 144 403 141 372 q 150 463 147 435 q 157 518 153 491 q 163 575 160 544 l 212 972 l 231 972 m 70 33 q 83 66 70 52 q 115 79 96 79 q 147 66 133 79 q 160 33 160 52 q 147 2 160 15 q 115 -11 133 -11 q 83 2 96 -11 q 70 33 70 15 z "},"?":{"ha":544,"x_min":122,"x_max":511,"o":"m 122 888 q 161 923 140 906 q 209 953 183 940 q 265 975 235 967 q 329 983 295 983 q 398 971 365 983 q 456 936 431 959 q 496 881 481 914 q 511 808 511 849 q 493 709 511 751 q 449 637 476 668 q 389 583 422 606 q 328 540 357 560 q 279 498 300 519 q 254 450 258 476 l 235 331 l 224 331 l 239 451 q 263 502 242 480 q 311 545 283 524 q 372 589 340 566 q 431 641 404 611 q 476 711 458 671 q 494 807 494 751 q 481 875 494 845 q 444 926 467 906 q 391 958 422 947 q 328 969 361 969 q 247 956 281 969 q 188 925 212 942 q 149 895 163 909 q 131 881 135 881 q 126 884 128 881 l 122 888 m 168 33 q 181 66 168 52 q 213 79 194 79 q 245 66 231 79 q 258 33 258 52 q 245 2 258 15 q 213 -11 231 -11 q 181 2 194 -11 q 168 33 168 15 z "},"‽":{"ha":561,"x_min":147,"x_max":534,"o":"m 191 79 q 223 66 210 79 q 237 33 237 52 q 223 2 237 15 q 191 -11 210 -11 q 159 2 172 -11 q 147 33 147 15 q 159 66 147 52 q 191 79 172 79 m 274 944 q 347 955 308 955 q 423 943 388 955 q 482 908 458 931 q 520 854 507 885 q 534 785 534 823 q 514 688 534 729 q 464 615 494 647 q 397 554 433 582 q 328 496 360 526 q 270 430 295 466 q 238 347 245 394 l 231 301 l 220 301 q 216 352 218 325 q 212 409 214 380 q 207 468 210 438 q 201 526 204 497 l 152 969 l 168 973 l 215 553 q 217 535 215 548 q 219 505 218 522 q 223 467 221 488 q 226 427 224 447 q 228 390 227 408 q 230 361 229 373 q 252 425 236 397 q 290 478 268 453 q 336 523 311 502 q 387 565 362 544 q 436 608 413 586 q 478 656 460 630 q 507 714 496 682 q 518 785 518 745 q 506 849 518 820 q 471 898 494 878 q 416 930 449 919 q 343 941 383 941 q 301 938 315 941 q 282 934 287 934 q 276 938 276 934 l 274 944 z "},",":{"ha":280,"x_min":49,"x_max":135,"o":"m 50 -162 q 49 -160 49 -161 q 49 -157 49 -158 q 60 -140 49 -154 q 84 -105 71 -126 q 109 -55 97 -83 q 121 8 120 -26 q 89 -6 110 -6 q 61 6 72 -6 q 50 36 50 17 q 61 66 50 53 q 92 79 73 79 q 123 65 110 79 q 135 25 135 51 q 111 -78 135 -28 q 53 -165 88 -128 l 50 -162 z "},";":{"ha":326,"x_min":76,"x_max":230,"o":"m 77 -162 q 76 -160 76 -161 q 76 -157 76 -158 q 87 -140 76 -154 q 111 -105 98 -126 q 136 -55 124 -83 q 148 8 147 -26 q 116 -6 137 -6 q 88 6 99 -6 q 77 36 77 17 q 89 66 77 53 q 119 79 100 79 q 150 65 138 79 q 162 25 162 51 q 139 -78 162 -28 q 80 -165 115 -128 l 77 -162 m 140 615 q 152 648 140 634 q 184 661 165 661 q 216 648 203 661 q 230 615 230 634 q 216 584 230 597 q 184 571 203 571 q 152 584 165 571 q 140 615 140 597 z "},".":{"ha":313,"x_min":67,"x_max":158,"o":"m 67 33 q 80 66 67 52 q 112 79 93 79 q 144 66 131 79 q 158 33 158 52 q 144 2 158 15 q 112 -11 131 -11 q 80 2 93 -11 q 67 33 67 15 z "},"…":{"ha":966,"x_min":67,"x_max":810,"o":"m 67 33 q 80 66 67 52 q 112 79 93 79 q 144 66 131 79 q 158 33 158 52 q 144 2 158 15 q 112 -11 131 -11 q 80 2 93 -11 q 67 33 67 15 m 394 33 q 407 66 394 52 q 438 79 419 79 q 470 66 457 79 q 484 33 484 52 q 470 2 484 15 q 438 -11 457 -11 q 407 2 419 -11 q 394 33 394 15 m 720 33 q 733 66 720 52 q 765 79 746 79 q 797 66 783 79 q 810 33 810 52 q 797 2 810 15 q 765 -11 783 -11 q 733 2 746 -11 q 720 33 720 15 z "},"‘":{"ha":261,"x_min":149,"x_max":247,"o":"m 162 761 q 151 829 149 795 q 166 894 153 863 q 199 956 178 926 q 243 1009 219 985 l 245 1007 q 247 1004 247 1006 q 241 995 247 1003 q 202 939 218 967 q 177 883 186 911 q 169 830 169 856 q 178 781 169 803 q 180 774 180 777 q 176 768 180 770 l 162 761 z "},"’":{"ha":269,"x_min":141,"x_max":239,"o":"m 226 1007 q 236 939 239 973 q 222 874 234 906 q 189 813 209 842 q 144 759 168 783 l 142 761 q 141 764 141 763 q 147 773 141 765 q 185 829 169 801 q 210 885 201 857 q 219 939 219 913 q 209 988 219 965 q 208 994 208 991 q 212 1000 208 998 l 226 1007 z "},"“":{"ha":415,"x_min":149,"x_max":400,"o":"m 162 761 q 151 829 149 795 q 166 894 153 863 q 199 956 178 926 q 243 1009 219 985 l 245 1007 q 247 1004 247 1006 q 241 995 247 1003 q 202 939 218 967 q 177 883 186 911 q 169 830 169 856 q 178 781 169 803 q 180 774 180 777 q 176 768 180 770 l 162 761 m 315 761 q 305 829 302 795 q 319 894 307 863 q 352 956 332 926 q 397 1009 373 985 l 399 1007 q 400 1004 400 1006 q 394 995 400 1003 q 356 939 372 967 q 331 883 340 911 q 322 830 322 856 q 332 781 322 803 q 333 774 333 777 q 329 768 333 770 l 315 761 z "},"”":{"ha":421,"x_min":141,"x_max":392,"o":"m 226 1007 q 236 939 239 973 q 222 874 234 906 q 189 813 209 842 q 144 759 168 783 l 142 761 q 141 764 141 763 q 147 773 141 765 q 185 829 169 801 q 210 885 201 857 q 219 939 219 913 q 209 988 219 965 q 208 994 208 991 q 212 1000 208 998 l 226 1007 m 379 1007 q 390 939 392 973 q 375 874 388 906 q 342 813 363 842 q 298 759 322 783 l 296 761 q 294 764 294 763 q 300 773 294 765 q 339 829 323 801 q 364 885 355 857 q 372 939 372 913 q 363 988 372 965 q 361 994 361 991 q 365 1000 361 998 l 379 1007 z "},"‚":{"ha":256,"x_min":15,"x_max":113,"o":"m 99 83 q 110 16 113 49 q 95 -50 108 -18 q 62 -111 83 -82 q 18 -165 42 -140 l 16 -162 q 15 -160 15 -161 q 20 -151 15 -158 q 59 -95 43 -123 q 84 -39 75 -67 q 92 15 92 -11 q 83 64 92 41 q 81 71 81 67 q 85 76 81 74 l 99 83 z "},"„":{"ha":409,"x_min":15,"x_max":266,"o":"m 99 83 q 110 16 113 49 q 95 -50 108 -18 q 62 -111 83 -82 q 18 -165 42 -140 l 16 -162 q 15 -160 15 -161 q 20 -151 15 -158 q 59 -95 43 -123 q 84 -39 75 -67 q 92 15 92 -11 q 83 64 92 41 q 81 71 81 67 q 85 76 81 74 l 99 83 m 253 83 q 264 16 266 49 q 249 -50 261 -18 q 216 -111 236 -82 q 172 -165 195 -140 l 169 -162 q 168 -160 168 -161 q 174 -151 168 -158 q 213 -95 197 -123 q 237 -39 228 -67 q 246 15 246 -11 q 236 64 246 41 q 235 71 235 67 q 239 76 235 74 l 253 83 z "},"‹":{"ha":337,"x_min":72,"x_max":262,"o":"m 99 369 q 85 354 90 356 q 89 349 87 353 q 95 339 92 346 l 198 115 q 200 105 201 109 q 195 99 199 101 l 190 96 l 72 353 l 72 356 l 253 613 l 258 610 q 261 603 260 608 q 256 593 262 599 l 99 369 z "},"›":{"ha":335,"x_min":57,"x_max":249,"o":"m 249 356 l 249 353 l 69 96 l 65 99 q 65 115 57 103 l 223 339 q 231 350 228 347 q 235 354 233 353 q 232 359 234 356 q 226 369 229 363 l 123 593 q 122 603 119 599 q 127 610 124 608 l 131 613 l 249 356 z "},"«":{"ha":476,"x_min":71,"x_max":401,"o":"m 99 369 q 85 354 90 356 q 89 349 86 353 q 94 339 91 346 l 197 115 q 199 105 201 109 q 194 99 198 101 l 189 96 l 71 353 l 71 356 l 253 613 l 257 610 q 260 603 259 608 q 256 593 261 599 l 99 369 m 239 369 q 225 354 230 356 q 229 349 226 353 q 235 339 231 346 l 338 115 q 340 105 341 109 q 335 99 338 101 l 329 96 l 211 353 l 211 356 l 393 613 l 397 610 q 400 603 399 608 q 396 593 401 599 l 239 369 z "},"»":{"ha":476,"x_min":58,"x_max":390,"o":"m 250 356 l 250 353 l 69 96 l 65 99 q 65 115 58 103 l 224 339 q 231 350 228 347 q 236 354 234 353 q 232 359 235 356 q 226 369 230 363 l 124 593 q 122 603 120 599 q 128 610 124 608 l 132 613 l 250 356 m 390 356 l 390 353 l 210 96 l 206 99 q 206 115 198 103 l 364 339 q 372 350 369 347 q 376 354 374 353 q 373 359 375 356 q 367 369 370 363 l 264 593 q 263 603 260 599 q 268 610 265 608 l 272 613 l 390 356 z "},"/":{"ha":545,"x_min":1,"x_max":559,"o":"m 22 -46 q 15 -53 19 -51 q 6 -54 10 -54 l 1 -54 l 538 992 q 552 1000 542 1000 l 559 1000 l 22 -46 z "},"|":{"ha":324,"x_min":153,"x_max":167,"o":"m 153 1043 l 167 1043 l 167 -250 l 153 -250 l 153 1043 z "},"¦":{"ha":325,"x_min":153,"x_max":167,"o":"m 153 1043 l 167 1043 l 167 514 l 153 514 l 153 1043 m 153 279 l 167 279 l 167 -250 l 153 -250 l 153 279 z "},"\\":{"ha":539,"x_min":127,"x_max":427,"o":"m 127 1000 l 134 1000 q 147 992 144 1000 l 427 -54 l 422 -54 q 413 -53 417 -54 q 408 -46 409 -51 l 127 1000 z "},"-":{"ha":500,"x_min":107,"x_max":390,"o":"m 110 415 l 390 415 l 389 401 l 107 401 l 110 415 z "},"–":{"ha":806,"x_min":151,"x_max":648,"o":"m 152 401 l 648 401 l 647 388 l 151 388 l 152 401 z "},"—":{"ha":1023,"x_min":102,"x_max":915,"o":"m 103 401 l 915 401 l 912 388 l 102 388 l 103 401 z "},"_":{"ha":615,"x_min":-17,"x_max":488,"o":"m 488 -167 l 485 -182 l -17 -182 l -16 -167 l 488 -167 z "},"•":{"ha":806,"x_min":244,"x_max":558,"o":"m 244 415 q 257 477 244 448 q 291 527 269 506 q 340 561 312 549 q 400 574 368 574 q 461 561 433 574 q 512 527 490 549 q 546 477 533 506 q 558 415 558 448 q 546 355 558 383 q 512 306 533 327 q 461 272 490 285 q 400 260 433 260 q 340 272 368 260 q 291 306 312 285 q 257 355 269 327 q 244 415 244 383 z "},"·":{"ha":302,"x_min":108,"x_max":192,"o":"m 108 410 q 120 440 108 428 q 149 453 133 453 q 179 440 167 453 q 192 410 192 428 q 179 382 192 394 q 149 369 167 369 q 120 382 133 369 q 108 410 108 394 z "},"(":{"ha":333,"x_min":86,"x_max":356,"o":"m 103 318 q 109 200 103 260 q 129 78 116 139 q 161 -40 142 18 q 207 -151 181 -99 q 209 -158 210 -156 q 206 -162 208 -161 l 199 -167 q 112 81 138 -42 q 86 313 86 204 q 89 420 86 367 q 101 527 92 474 q 127 638 110 581 q 173 757 144 694 q 245 891 202 820 q 347 1044 288 962 l 354 1040 q 356 1036 356 1039 q 353 1029 356 1033 q 243 864 290 943 q 165 701 196 784 q 118 524 133 617 q 103 318 103 431 z "},")":{"ha":333,"x_min":-18,"x_max":253,"o":"m 238 560 q 232 678 238 617 q 211 799 225 739 q 178 918 198 860 q 133 1029 158 976 q 134 1040 128 1038 l 142 1044 q 228 797 202 919 q 253 565 253 674 q 251 457 253 510 q 239 350 248 404 q 213 240 231 297 q 167 120 196 183 q 96 -14 138 58 q -6 -167 53 -85 l -13 -162 q -12 -151 -18 -160 q 98 19 51 -65 q 176 189 145 103 q 223 367 208 276 q 238 560 238 458 z "},"[":{"ha":376,"x_min":76,"x_max":400,"o":"m 400 1039 q 390 1031 398 1031 l 239 1031 l 92 -156 l 244 -156 q 253 -164 253 -156 l 251 -168 l 76 -168 l 225 1043 l 400 1043 l 400 1039 z "},"]":{"ha":378,"x_min":-17,"x_max":308,"o":"m 160 -168 l -17 -168 l -17 -164 q -6 -156 -15 -156 l 146 -156 l 292 1031 l 140 1031 q 132 1039 130 1031 l 132 1043 l 308 1043 l 160 -168 z "},"{":{"ha":376,"x_min":67,"x_max":398,"o":"m 398 1043 l 398 1038 q 388 1031 396 1031 l 360 1031 q 298 1017 328 1031 q 247 976 269 1003 q 211 908 224 949 q 198 815 198 868 q 200 763 198 790 q 204 707 202 735 q 208 652 206 679 q 210 601 210 625 q 200 531 210 560 q 172 482 189 501 q 136 451 156 462 q 99 438 116 440 q 127 427 113 435 q 152 407 141 419 q 171 376 164 394 q 178 335 178 358 q 165 249 178 292 q 136 164 152 207 q 108 77 121 122 q 95 -14 95 33 q 104 -72 95 -46 q 128 -117 113 -98 q 166 -145 144 -135 q 215 -156 188 -156 l 244 -156 q 251 -162 251 -156 l 249 -168 l 213 -168 q 158 -156 183 -168 q 116 -123 133 -144 q 89 -73 99 -101 q 80 -12 80 -45 q 93 79 80 36 q 122 164 106 122 q 151 247 138 206 q 165 333 165 288 q 138 403 165 376 q 67 431 110 431 l 69 444 q 117 454 94 444 q 158 484 140 464 q 185 533 175 503 q 195 603 195 563 q 193 655 195 628 q 189 709 191 682 q 185 763 187 736 q 183 815 183 790 q 197 909 183 867 q 235 981 210 951 q 292 1027 259 1010 q 362 1043 324 1043 l 398 1043 z "},"}":{"ha":378,"x_min":-15,"x_max":317,"o":"m 170 1043 q 225 1031 201 1043 q 267 998 250 1019 q 294 948 285 976 q 303 888 303 919 q 297 825 303 855 q 282 767 291 795 q 262 711 273 738 q 242 656 251 683 q 226 600 233 628 q 220 542 220 572 q 227 502 220 520 q 247 472 234 485 q 277 452 260 459 q 317 444 295 444 l 315 431 q 267 421 290 431 q 226 391 244 411 q 199 342 209 372 q 188 272 188 313 q 190 220 188 247 q 194 166 192 193 q 199 112 197 139 q 201 60 201 85 q 187 -34 201 8 q 149 -106 173 -76 q 92 -152 124 -135 q 22 -168 59 -168 l -15 -168 l -13 -162 q -5 -156 -13 -156 l 23 -156 q 85 -142 56 -156 q 137 -101 115 -128 q 172 -33 159 -74 q 185 60 185 7 q 184 112 185 85 q 180 168 182 140 q 176 223 178 196 q 174 274 174 249 q 185 344 174 315 q 212 393 196 374 q 248 424 228 413 q 285 438 267 434 q 257 448 271 440 q 231 468 242 456 q 212 499 219 481 q 205 540 205 517 q 218 626 205 583 q 246 711 231 668 q 275 798 262 753 q 288 889 288 842 q 280 947 288 921 q 255 992 271 973 q 217 1020 240 1010 q 169 1031 195 1031 l 141 1031 q 134 1038 132 1031 l 134 1043 l 170 1043 z "},"*":{"ha":545,"x_min":148,"x_max":492,"o":"m 353 847 q 342 841 347 843 q 326 835 337 838 q 341 831 336 832 q 351 825 345 829 l 472 743 l 463 731 l 344 813 q 334 819 337 817 q 323 830 331 821 q 324 814 323 818 q 323 801 324 809 l 303 643 l 290 643 l 309 801 q 312 814 310 809 q 318 831 313 819 q 304 819 308 822 q 292 813 300 817 l 153 731 l 148 743 l 287 825 q 299 831 294 829 q 315 835 303 832 q 300 842 304 840 q 290 847 295 843 l 170 929 l 178 942 l 298 860 q 307 852 304 856 q 319 839 309 848 q 317 857 317 851 q 317 871 316 863 l 337 1029 l 351 1029 l 331 871 q 328 857 330 863 q 324 840 327 851 q 337 852 333 849 q 349 860 342 856 l 488 942 l 492 929 l 353 847 z "},"†":{"ha":806,"x_min":187,"x_max":676,"o":"m 666 656 q 673 652 670 656 q 674 646 676 649 l 674 640 l 438 640 l 390 249 l 331 -251 q 322 -254 326 -254 q 316 -253 318 -254 q 312 -251 314 -253 l 376 249 l 424 640 l 187 640 l 188 646 q 192 652 188 649 q 199 656 195 656 l 425 651 l 463 983 q 467 985 465 985 q 473 986 469 986 q 478 985 476 986 q 483 983 481 985 l 439 651 l 666 656 z "},"‡":{"ha":806,"x_min":124,"x_max":681,"o":"m 671 656 q 678 652 675 656 q 679 646 681 649 l 679 640 l 442 640 l 411 382 l 374 92 l 611 92 l 611 86 q 607 80 610 83 q 600 76 604 76 l 373 81 l 336 -251 q 326 -254 331 -254 q 321 -253 323 -254 q 317 -251 319 -253 l 360 81 l 132 76 q 126 80 128 76 q 124 86 124 83 l 125 92 l 362 92 l 397 382 l 428 640 l 192 640 l 193 646 q 197 652 193 649 q 204 656 200 656 l 430 651 l 468 983 q 472 985 470 985 q 478 986 474 986 q 483 985 481 986 q 488 983 485 985 l 444 651 l 671 656 z "},"§":{"ha":615,"x_min":53,"x_max":559,"o":"m 513 432 q 501 491 513 465 q 469 537 490 517 q 423 573 449 557 q 369 604 397 590 q 313 633 341 619 q 260 664 284 647 q 190 627 218 647 q 143 586 161 608 q 118 542 126 565 q 110 492 110 518 q 124 436 110 460 q 160 393 138 413 q 212 357 183 373 q 272 324 241 340 q 334 292 303 308 q 390 256 365 275 q 485 331 457 287 q 513 432 513 375 m 58 -8 q 61 -5 60 -6 q 66 -4 63 -4 q 82 -16 72 -4 q 110 -42 92 -28 q 159 -69 129 -57 q 235 -81 190 -81 q 326 -64 286 -81 q 393 -20 365 -48 q 435 45 420 8 q 449 122 449 81 q 434 183 449 157 q 394 231 419 210 q 337 269 369 252 q 272 303 306 287 q 207 338 239 320 q 151 377 176 356 q 110 426 126 399 q 95 489 95 453 q 103 542 95 516 q 129 591 111 568 q 176 635 147 615 q 249 672 206 656 q 199 723 218 694 q 180 793 180 752 q 197 865 180 831 q 242 926 213 899 q 311 968 272 952 q 397 983 351 983 q 487 968 449 983 q 559 917 526 952 l 556 913 q 549 908 554 908 q 535 918 544 908 q 508 939 526 927 q 464 960 491 950 q 394 969 436 969 q 315 955 351 969 q 252 917 279 941 q 210 861 226 893 q 195 796 195 830 q 209 739 195 763 q 247 695 224 715 q 301 660 271 676 q 362 627 331 644 q 423 593 393 611 q 476 553 453 576 q 514 502 500 531 q 528 435 528 473 q 494 322 528 367 q 401 247 460 276 q 447 194 430 224 q 465 125 465 165 q 449 41 465 81 q 402 -29 433 1 q 330 -77 372 -59 q 234 -94 287 -94 q 175 -89 201 -94 q 127 -72 149 -83 q 88 -47 106 -62 q 53 -12 70 -31 l 58 -8 z "},"¶":{"ha":849,"x_min":89,"x_max":871,"o":"m 869 957 l 709 957 l 576 -125 l 560 -125 l 692 957 l 434 957 l 301 -125 l 285 -125 l 363 508 q 249 522 300 508 q 163 563 199 536 q 108 630 128 590 q 89 719 89 669 q 112 823 89 776 q 178 903 135 870 q 283 954 222 936 q 419 972 344 972 l 871 972 l 869 957 z "},"^":{"ha":806,"x_min":211,"x_max":672,"o":"m 672 564 l 663 564 q 649 574 653 564 l 454 925 q 447 939 451 932 q 442 953 444 945 q 436 939 440 945 q 429 925 433 932 l 235 574 q 230 567 233 570 q 221 564 226 564 l 211 564 l 438 972 l 446 972 l 672 564 z "},"~":{"ha":806,"x_min":112,"x_max":695,"o":"m 553 367 q 606 377 583 367 q 646 407 629 388 q 672 451 663 426 q 681 506 681 476 l 695 506 q 686 448 695 475 q 658 399 676 420 q 614 365 640 378 q 553 353 588 353 q 479 368 518 353 q 401 403 440 384 q 325 437 363 422 q 253 453 287 453 q 201 442 224 453 q 161 413 178 431 q 135 368 144 394 q 126 314 126 343 l 112 314 q 121 372 112 344 q 149 420 131 399 q 193 454 167 442 q 253 467 219 467 q 328 451 289 467 q 406 417 367 435 q 482 382 444 398 q 553 367 520 367 z "},"'":{"ha":245,"x_min":147,"x_max":197,"o":"m 197 972 l 172 768 l 158 663 q 153 657 158 657 q 147 663 147 657 l 158 768 l 185 972 l 197 972 z "},"\"":{"ha":408,"x_min":147,"x_max":360,"o":"m 197 972 l 172 768 l 158 663 q 153 657 158 657 q 147 663 147 657 l 158 768 l 185 972 l 197 972 m 360 972 l 335 768 l 321 663 q 315 657 321 657 q 310 663 310 657 l 321 768 l 347 972 l 360 972 z "},"&":{"ha":878,"x_min":59,"x_max":803,"o":"m 355 511 q 348 520 351 516 q 340 529 344 524 q 237 479 285 510 q 153 406 189 448 q 96 315 117 365 q 76 210 76 265 q 95 119 76 158 q 144 54 114 80 q 210 16 174 28 q 281 3 247 3 q 382 18 333 3 q 473 59 430 33 q 552 119 515 85 q 619 192 589 153 l 355 511 m 803 0 l 792 0 q 782 1 786 0 q 773 7 778 1 l 628 181 q 559 107 597 142 q 477 45 521 72 q 383 4 433 19 q 278 -11 333 -11 q 197 3 237 -11 q 127 46 158 18 q 78 115 97 74 q 59 208 59 156 q 81 319 59 267 q 140 414 103 372 q 227 489 177 457 q 332 540 276 521 q 271 639 292 592 q 251 740 251 687 q 269 839 251 794 q 319 916 287 883 q 394 966 351 948 q 490 983 438 983 q 559 971 526 983 q 615 934 591 958 q 653 876 639 910 q 667 800 667 842 l 660 800 q 655 802 657 800 q 652 811 652 805 q 643 860 652 833 q 616 912 635 888 q 565 953 597 936 q 490 969 534 969 q 400 953 440 969 q 330 906 359 936 q 284 835 300 876 q 267 746 267 794 q 293 634 267 690 q 366 522 319 578 l 630 207 q 695 319 670 262 q 731 424 721 376 q 741 432 733 432 l 748 432 q 713 318 740 381 q 640 196 685 256 l 803 0 z "},"@":{"ha":1056,"x_min":79,"x_max":990,"o":"m 740 601 q 703 611 721 608 q 658 614 685 614 q 568 599 610 614 q 490 560 526 585 q 425 501 453 535 q 375 430 396 467 q 344 352 355 392 q 333 274 333 312 q 339 225 333 248 q 358 186 345 203 q 389 160 370 169 q 435 150 408 150 q 490 160 460 150 q 548 195 519 169 q 606 264 577 220 q 658 376 634 308 l 740 601 m 861 -57 q 693 -137 781 -110 q 504 -164 605 -164 q 335 -134 413 -164 q 201 -45 258 -103 q 111 97 144 13 q 79 292 79 182 q 100 463 79 382 q 157 612 120 544 q 244 735 194 681 q 354 828 294 790 q 481 886 414 866 q 617 907 547 907 q 760 883 692 907 q 879 812 828 860 q 960 693 930 765 q 990 528 990 622 q 967 365 990 438 q 907 240 944 292 q 820 160 869 188 q 721 132 772 132 q 667 143 688 132 q 636 175 647 155 q 626 225 626 196 q 635 290 626 254 q 540 173 592 210 q 429 136 487 136 q 379 147 400 136 q 344 175 358 157 q 323 218 330 194 q 317 271 317 242 q 328 354 317 312 q 361 436 340 397 q 413 511 383 476 q 482 572 444 546 q 565 613 520 598 q 660 628 610 628 q 713 623 686 628 q 758 607 740 617 l 672 374 q 641 255 646 300 q 647 186 637 210 q 678 154 658 162 q 724 146 699 146 q 815 172 769 146 q 895 247 860 198 q 953 367 931 297 q 975 528 975 438 q 946 689 975 620 q 868 802 917 757 q 754 870 819 848 q 615 893 689 893 q 487 874 551 893 q 365 817 423 854 q 257 728 307 781 q 172 609 208 676 q 115 463 135 542 q 94 294 94 384 q 126 105 94 188 q 214 -34 158 22 q 344 -119 269 -90 q 506 -149 419 -149 q 684 -123 599 -149 q 849 -46 770 -98 q 856 -44 853 -42 q 860 -49 858 -45 l 861 -57 z "},"©":{"ha":1174,"x_min":100,"x_max":1092,"o":"m 819 267 q 825 268 822 268 l 833 261 q 789 228 813 243 q 738 201 766 213 q 676 184 710 190 q 603 178 643 178 q 482 199 537 178 q 386 261 426 221 q 324 358 347 301 q 301 486 301 415 q 324 613 301 556 q 388 710 347 669 q 486 773 428 751 q 613 796 543 796 q 676 791 648 796 q 730 778 705 787 q 776 756 754 769 q 821 725 799 742 l 818 721 q 811 718 817 718 q 795 728 807 718 q 760 750 783 738 q 701 772 738 762 q 613 782 665 782 q 493 761 547 782 q 400 702 439 741 q 340 609 361 664 q 318 486 318 554 q 340 362 318 417 q 399 270 361 308 q 489 212 437 232 q 603 192 541 192 q 673 197 642 192 q 730 211 704 201 q 776 234 755 220 q 819 267 798 249 m 100 486 q 139 679 100 589 q 245 837 178 769 q 403 943 313 904 q 596 982 493 982 q 789 943 699 982 q 947 837 879 904 q 1053 679 1014 769 q 1092 486 1092 589 q 1053 293 1092 383 q 947 135 1014 203 q 789 29 879 68 q 596 -10 699 -10 q 403 29 493 -10 q 245 135 313 68 q 139 293 178 203 q 100 486 100 383 m 117 486 q 154 299 117 387 q 257 147 192 212 q 409 44 322 82 q 596 7 497 7 q 723 24 662 7 q 838 72 785 41 q 935 147 892 103 q 1011 244 979 191 q 1059 358 1042 297 q 1076 486 1076 419 q 1059 614 1076 552 q 1011 728 1042 675 q 935 826 979 782 q 838 901 892 869 q 723 950 785 933 q 596 967 662 967 q 468 950 529 967 q 354 901 407 933 q 257 826 301 869 q 182 728 213 782 q 134 614 151 675 q 117 486 117 552 z "},"℗":{"ha":1174,"x_min":100,"x_max":1092,"o":"m 589 461 q 681 473 642 461 q 744 507 719 485 q 781 559 769 529 q 793 625 793 589 q 746 738 793 699 q 597 778 699 778 l 467 778 l 467 461 l 589 461 m 597 792 q 756 748 703 792 q 810 625 810 703 q 796 555 810 587 q 755 498 783 522 q 686 461 728 474 q 589 447 644 447 l 467 447 l 467 181 l 450 181 l 450 792 l 597 792 m 596 7 q 723 24 662 7 q 838 72 785 41 q 935 147 892 103 q 1011 244 979 191 q 1059 358 1042 297 q 1076 486 1076 419 q 1059 614 1076 552 q 1011 728 1042 675 q 935 826 979 782 q 838 901 892 869 q 723 950 785 933 q 596 967 662 967 q 468 950 529 967 q 354 901 407 933 q 257 826 301 869 q 182 728 213 782 q 134 614 151 675 q 117 486 117 552 q 154 299 117 387 q 257 147 192 212 q 409 44 322 82 q 596 7 497 7 m 596 982 q 789 943 699 982 q 947 837 879 904 q 1053 679 1014 769 q 1092 486 1092 589 q 1053 293 1092 383 q 947 135 1014 203 q 789 29 879 68 q 596 -10 699 -10 q 403 29 493 -10 q 245 135 313 68 q 139 293 178 203 q 100 486 100 383 q 139 679 100 589 q 245 837 178 769 q 403 943 313 904 q 596 982 493 982 z "},"®":{"ha":1174,"x_min":100,"x_max":1092,"o":"m 568 489 q 708 528 658 489 q 758 639 758 567 q 713 745 758 713 q 576 778 667 778 l 446 778 l 446 489 l 568 489 m 576 792 q 723 755 672 792 q 775 639 775 717 q 761 573 775 602 q 721 522 747 543 q 660 489 696 501 q 581 475 624 477 q 604 457 593 470 l 836 181 l 822 181 q 817 181 819 181 q 811 186 815 182 l 582 460 q 568 470 576 466 q 540 475 560 475 l 446 475 l 446 181 l 429 181 l 429 792 l 576 792 m 596 7 q 723 24 662 7 q 838 72 785 41 q 935 147 892 103 q 1011 244 979 191 q 1059 358 1042 297 q 1076 486 1076 419 q 1059 614 1076 552 q 1011 728 1042 675 q 935 826 979 782 q 838 901 892 869 q 723 950 785 933 q 596 967 662 967 q 468 950 529 967 q 354 901 407 933 q 257 826 301 869 q 182 728 213 782 q 134 614 151 675 q 117 486 117 552 q 154 299 117 387 q 257 147 192 212 q 409 44 322 82 q 596 7 497 7 m 596 982 q 789 943 699 982 q 947 837 879 904 q 1053 679 1014 769 q 1092 486 1092 589 q 1053 293 1092 383 q 947 135 1014 203 q 789 29 879 68 q 596 -10 699 -10 q 403 29 493 -10 q 245 135 313 68 q 139 293 178 203 q 100 486 100 383 q 139 679 100 589 q 245 837 178 769 q 403 943 313 904 q 596 982 493 982 z "},"™":{"ha":939,"x_min":126,"x_max":880,"o":"m 128 972 l 420 972 l 419 958 l 282 958 l 235 582 l 219 582 l 265 958 l 126 958 l 128 972 m 880 972 l 833 582 l 819 582 l 862 938 l 864 947 l 670 660 q 663 656 668 656 l 660 656 q 655 660 655 656 l 527 947 l 527 938 l 483 582 l 469 582 l 516 972 l 526 972 q 533 968 531 972 l 662 679 q 664 672 664 676 q 666 676 665 674 q 669 679 667 678 l 863 968 q 870 972 865 972 l 880 972 z "},"℠":{"ha":919,"x_min":140,"x_max":860,"o":"m 860 972 l 813 582 l 799 582 l 843 938 l 845 948 l 651 660 q 644 656 649 656 l 641 656 q 635 660 637 656 l 508 947 l 508 938 l 464 582 l 449 582 l 497 972 l 507 972 q 514 968 510 972 l 642 679 l 644 672 q 647 676 646 674 q 649 679 648 678 l 844 968 q 851 972 846 972 l 860 972 m 144 640 q 149 644 146 644 q 157 636 152 644 q 171 620 162 629 q 196 605 181 612 q 236 597 212 597 q 282 606 262 597 q 317 630 303 615 q 339 665 331 645 q 347 708 347 685 q 335 746 347 732 q 305 769 323 760 q 266 785 287 778 q 227 802 245 792 q 197 828 209 812 q 185 871 185 844 q 193 912 185 892 q 216 946 201 931 q 251 970 231 961 q 297 979 272 979 q 343 970 324 979 q 379 941 363 961 l 375 935 q 370 932 374 932 q 363 937 367 932 q 351 949 359 942 q 330 961 342 956 q 296 966 317 966 q 256 958 274 966 q 226 938 238 951 q 207 909 213 926 q 200 874 200 892 q 212 836 200 850 q 242 813 224 822 q 281 797 260 803 q 319 780 301 790 q 349 753 338 769 q 361 711 361 738 q 352 663 361 685 q 327 622 343 640 q 287 595 310 605 q 235 585 264 585 q 177 598 199 585 q 140 635 155 611 l 144 640 z "},"°":{"ha":562,"x_min":131,"x_max":519,"o":"m 131 792 q 147 867 131 832 q 189 927 163 901 q 250 968 215 953 q 324 983 285 983 q 400 968 365 983 q 462 927 436 953 q 503 867 488 901 q 519 792 519 832 q 503 716 519 751 q 462 655 488 681 q 400 614 436 629 q 324 599 365 599 q 250 614 285 599 q 189 655 215 629 q 147 716 163 681 q 131 792 131 751 m 145 792 q 159 722 145 755 q 198 666 174 690 q 255 628 222 642 q 324 614 288 614 q 394 628 361 614 q 450 666 426 642 q 488 722 474 690 q 502 792 502 755 q 488 861 502 828 q 450 918 474 894 q 394 956 426 942 q 324 969 361 969 q 255 956 288 969 q 198 918 222 942 q 159 861 174 894 q 145 792 145 828 z "},"¤":{"ha":806,"x_min":126,"x_max":679,"o":"m 188 465 q 205 382 188 421 q 251 313 222 342 q 319 267 280 284 q 403 250 358 250 q 487 267 447 250 q 556 313 526 284 q 602 382 585 342 q 619 465 619 421 q 602 549 619 510 q 556 618 585 589 q 487 665 526 648 q 403 682 447 682 q 319 665 358 682 q 251 618 280 648 q 205 549 222 589 q 188 465 188 510 m 571 624 q 617 552 600 592 q 633 465 633 511 q 616 379 633 419 q 570 308 599 339 l 679 199 l 669 189 l 560 298 q 489 252 529 269 q 403 236 449 236 q 317 253 357 236 q 246 299 277 269 l 136 189 l 126 199 l 236 308 q 190 380 207 340 q 174 465 174 419 q 190 551 174 511 q 235 623 206 592 l 126 732 l 136 742 l 245 633 q 317 679 276 662 q 403 696 357 696 q 489 679 449 696 q 561 633 530 663 l 669 742 l 679 732 l 571 624 z "},"€":{"ha":806,"x_min":12,"x_max":819,"o":"m 33 578 l 153 578 q 209 748 172 673 q 300 876 247 824 q 423 956 354 928 q 573 983 492 983 q 651 976 616 983 q 716 955 686 969 q 770 919 745 941 q 819 869 795 898 l 815 865 q 809 863 813 863 q 799 870 806 863 q 781 890 792 878 q 752 916 769 902 q 710 942 735 930 q 650 961 685 953 q 572 969 616 969 q 430 943 495 969 q 312 867 364 917 q 224 744 260 817 q 169 578 188 672 l 624 578 l 624 572 q 621 566 623 568 q 613 564 619 564 l 166 564 q 157 494 160 530 q 152 419 153 458 l 542 419 l 542 414 q 531 406 540 406 l 152 406 l 152 389 q 172 225 152 297 q 231 103 192 153 q 324 28 269 54 q 449 3 379 3 q 535 12 497 3 q 604 36 574 22 q 657 67 634 50 q 695 98 680 83 q 721 121 711 112 q 735 131 731 131 q 738 130 738 131 q 741 126 739 128 l 744 124 q 684 69 715 94 q 616 27 652 44 q 537 -1 579 9 q 447 -11 495 -11 q 315 16 373 -11 q 218 94 258 43 q 157 219 178 145 q 135 388 135 293 l 135 406 l 12 406 l 13 419 l 136 419 q 141 494 138 458 q 150 564 144 530 l 31 564 l 33 578 z "},"$":{"ha":806,"x_min":76,"x_max":708,"o":"m 483 969 q 370 947 420 968 q 286 892 320 926 q 233 814 251 858 q 215 722 215 770 q 231 646 215 677 q 275 592 248 615 q 339 554 303 570 q 413 525 374 538 l 483 969 m 346 3 q 472 30 416 5 q 568 95 528 55 q 629 187 608 135 q 651 297 651 240 q 631 380 651 347 q 580 435 612 413 q 508 474 549 458 q 425 503 467 489 l 346 3 m 501 983 q 618 959 569 982 q 708 888 667 936 l 705 883 q 698 879 703 879 q 687 886 693 879 q 672 902 681 892 q 648 923 662 912 q 613 945 633 935 q 564 962 592 955 q 499 969 536 969 l 428 520 q 515 488 472 505 q 592 448 558 472 q 647 388 626 424 q 667 300 667 353 q 645 183 667 238 q 580 85 622 127 q 478 17 538 43 q 344 -11 418 -9 l 317 -179 q 308 -190 317 -190 l 301 -190 l 329 -11 q 243 -2 281 -11 q 175 23 206 7 q 121 63 145 39 q 76 115 97 86 l 78 118 q 83 121 82 120 q 88 122 85 122 q 99 114 92 122 q 118 92 106 105 q 148 63 130 78 q 191 34 165 47 q 251 12 217 21 q 331 3 285 3 l 411 508 q 332 539 370 522 q 265 578 294 555 q 217 636 235 602 q 199 719 199 670 q 219 818 199 771 q 276 902 239 865 q 366 960 313 938 q 486 983 419 982 l 506 1113 q 516 1124 508 1124 l 523 1124 l 501 983 z "},"¢":{"ha":806,"x_min":117,"x_max":694,"o":"m 506 692 q 616 670 569 689 q 694 621 663 651 l 690 617 q 686 615 688 615 q 683 614 685 614 q 668 623 678 614 q 637 644 658 633 q 584 666 616 656 q 504 678 551 676 l 399 6 q 500 19 458 6 q 570 47 542 32 q 613 74 598 62 q 633 86 628 86 q 635 85 635 86 q 637 83 635 85 l 640 81 q 604 50 627 66 q 549 22 581 35 q 479 1 517 9 q 397 -8 440 -8 l 372 -175 q 362 -186 369 -186 l 355 -186 l 383 -8 q 271 14 320 -7 q 188 73 222 35 q 135 164 153 110 q 117 285 117 218 q 143 451 117 376 q 218 579 169 526 q 336 662 267 633 q 491 692 405 692 l 516 851 q 526 863 518 863 l 533 863 l 506 692 m 489 678 q 342 650 408 678 q 231 571 277 622 q 159 448 184 520 q 134 286 134 376 q 151 170 134 222 q 201 83 169 119 q 281 27 234 47 q 385 6 327 7 l 489 678 z "},"£":{"ha":806,"x_min":22,"x_max":758,"o":"m 576 458 q 565 450 574 450 l 206 450 l 174 188 q 160 125 169 152 q 135 77 150 98 q 98 41 119 57 q 49 13 77 26 q 74 15 63 15 q 99 15 85 15 l 711 15 l 711 8 q 708 2 711 5 q 700 0 704 0 l 22 0 l 24 15 q 72 40 49 26 q 111 72 94 53 q 140 119 128 92 q 157 188 151 147 l 189 450 l 60 450 l 60 456 q 71 464 61 464 l 190 464 l 218 689 q 251 807 226 753 q 316 900 276 861 q 411 961 356 940 q 532 983 465 983 q 625 971 586 983 q 690 938 663 958 q 733 889 717 917 q 758 829 749 860 l 751 828 q 740 835 744 826 q 716 884 730 860 q 678 927 701 908 q 619 958 655 946 q 531 969 583 969 q 417 949 468 969 q 328 891 366 928 q 266 802 290 853 q 235 689 242 750 l 207 464 l 576 464 l 576 458 l 576 458 z "},"¥":{"ha":806,"x_min":109,"x_max":784,"o":"m 414 422 l 678 422 l 677 408 l 408 408 l 397 319 l 666 319 l 665 306 l 395 306 l 358 0 l 341 0 l 378 306 l 109 306 l 110 319 l 380 319 l 391 408 l 122 408 l 123 422 l 388 422 l 153 972 l 167 972 q 176 967 174 972 l 394 446 q 398 436 396 440 q 401 427 400 433 q 407 436 405 433 q 413 446 410 440 l 759 967 q 770 972 765 972 l 784 972 l 414 422 z "},"℅":{"ha":1007,"x_min":101,"x_max":926,"o":"m 867 967 q 878 972 872 972 l 888 972 l 138 6 q 126 0 134 0 l 117 0 l 867 967 m 442 565 q 445 563 444 565 l 451 556 q 379 507 419 526 q 283 488 339 488 q 209 503 242 488 q 151 545 175 518 q 114 612 127 573 q 101 699 101 651 q 120 816 101 763 q 172 907 139 869 q 251 966 206 945 q 350 987 297 987 q 428 972 396 987 q 488 929 461 958 l 483 923 q 478 921 482 921 q 467 929 475 921 q 444 947 459 937 q 406 965 429 957 q 349 973 382 973 q 258 954 300 973 q 184 899 215 935 q 135 814 153 864 q 117 701 117 763 q 130 618 117 655 q 164 556 142 581 q 217 516 186 530 q 285 502 248 502 q 332 506 311 502 q 372 517 353 510 q 406 536 390 525 q 438 562 422 547 q 442 565 441 565 m 926 276 q 907 157 926 210 q 856 66 889 103 q 779 8 824 28 q 682 -12 734 -12 q 607 3 640 -12 q 550 45 574 18 q 514 111 526 73 q 501 198 501 150 q 519 316 501 263 q 570 407 538 369 q 647 466 603 445 q 743 486 692 486 q 819 471 785 486 q 876 428 853 456 q 913 362 900 401 q 926 276 926 324 m 908 276 q 897 357 908 321 q 863 419 885 394 q 811 458 842 444 q 742 472 780 472 q 653 453 694 472 q 582 399 612 434 q 534 313 551 363 q 517 199 517 262 q 529 117 517 153 q 563 55 541 81 q 616 16 585 29 q 684 2 647 2 q 773 21 732 2 q 844 75 815 40 q 891 161 874 110 q 908 276 908 212 z "},"№":{"ha":1433,"x_min":109,"x_max":1385,"o":"m 1226 971 q 1150 955 1185 971 q 1088 908 1115 938 q 1047 833 1062 877 q 1032 735 1032 790 q 1042 664 1032 695 q 1072 610 1053 633 q 1117 576 1090 588 q 1176 565 1143 565 q 1253 581 1217 565 q 1315 628 1289 597 q 1356 702 1341 658 q 1370 801 1370 746 q 1360 871 1370 840 q 1331 925 1350 903 q 1286 959 1313 947 q 1226 971 1259 971 m 1174 553 q 1109 566 1138 553 q 1060 602 1081 578 q 1029 659 1040 626 q 1018 734 1018 693 q 1034 836 1018 790 q 1078 915 1050 882 q 1144 965 1106 947 q 1227 983 1183 983 q 1293 970 1263 983 q 1343 933 1322 957 q 1374 876 1363 909 q 1385 801 1385 842 q 1369 698 1385 744 q 1325 620 1353 652 q 1258 570 1297 588 q 1174 553 1219 553 m 875 972 l 889 972 l 769 0 l 765 0 q 758 5 761 0 l 239 946 q 238 938 238 942 q 238 929 238 933 l 123 0 l 109 0 l 228 972 l 234 972 q 243 967 240 972 l 760 30 q 760 37 760 33 q 761 44 760 41 l 875 972 m 975 417 l 1342 417 l 1340 405 l 974 405 l 975 417 z "},"#":{"ha":806,"x_min":60,"x_max":763,"o":"m 582 640 l 344 640 l 238 332 l 475 332 l 582 640 m 763 653 l 762 649 q 752 640 762 640 l 597 640 l 490 332 l 674 332 q 684 324 684 332 l 683 319 l 488 319 l 377 0 l 373 0 q 365 2 367 0 q 366 11 363 3 l 472 319 l 235 319 l 128 11 q 116 0 125 0 l 109 0 l 219 319 l 70 319 q 63 322 66 319 q 62 328 60 324 l 62 332 l 222 332 l 329 640 l 140 640 l 140 644 q 143 651 140 649 q 151 653 147 653 l 331 653 l 438 961 q 452 972 442 972 l 458 972 l 347 653 l 584 653 l 695 972 l 702 972 q 708 969 706 972 q 706 958 710 966 l 599 653 l 763 653 z "},"₀":{"ha":464,"x_min":15,"x_max":369,"o":"m 369 136 q 351 3 369 60 q 305 -90 334 -53 q 239 -144 276 -126 q 162 -162 202 -162 q 103 -150 130 -162 q 57 -113 76 -138 q 26 -51 37 -88 q 15 36 15 -14 q 32 168 15 112 q 77 262 49 225 q 143 318 106 299 q 223 336 181 336 q 280 324 253 336 q 327 286 307 311 q 358 224 347 261 q 369 136 369 186 m 352 136 q 342 218 352 183 q 314 276 332 253 q 272 311 297 299 q 220 322 248 322 q 149 306 183 322 q 88 254 115 289 q 46 165 62 219 q 30 38 30 111 q 40 -45 30 -10 q 68 -103 51 -80 q 110 -137 86 -126 q 163 -149 135 -149 q 234 -132 199 -149 q 294 -80 268 -115 q 336 8 320 -45 q 352 136 352 62 z "},"₁":{"ha":464,"x_min":61,"x_max":308,"o":"m 308 -144 l 307 -157 l 61 -157 l 63 -144 l 179 -144 l 233 290 l 238 313 l 103 203 q 93 203 98 198 l 89 210 l 243 333 l 254 333 l 196 -144 l 308 -144 z "},"₂":{"ha":464,"x_min":6,"x_max":347,"o":"m 309 -143 q 315 -149 315 -143 l 313 -157 l 6 -157 l 6 -151 q 12 -143 9 -146 l 206 32 q 255 77 232 56 q 295 122 278 99 q 322 169 312 144 q 331 222 331 194 q 322 267 331 248 q 298 298 313 286 q 264 316 283 310 q 223 322 244 322 q 134 292 171 322 q 81 214 97 262 q 70 207 78 207 l 63 208 q 123 302 79 268 q 226 336 167 336 q 271 330 249 336 q 310 309 293 323 q 336 274 326 295 q 347 224 347 253 q 336 166 347 192 q 307 117 325 140 q 266 71 290 93 q 216 25 242 49 l 26 -146 q 70 -143 42 -143 l 309 -143 z "},"₃":{"ha":464,"x_min":16,"x_max":345,"o":"m 63 208 q 123 302 79 268 q 226 336 167 336 q 271 330 249 336 q 309 310 293 324 q 335 277 326 297 q 345 229 345 257 q 335 178 345 201 q 308 138 325 155 q 269 110 291 121 q 224 95 247 99 q 302 59 276 88 q 328 -11 328 31 q 315 -70 328 -42 q 278 -118 301 -97 q 224 -151 256 -139 q 158 -162 193 -162 q 88 -150 115 -162 q 47 -120 62 -138 q 25 -81 32 -102 q 16 -40 19 -59 l 23 -37 q 29 -36 25 -36 q 34 -43 33 -37 q 36 -55 35 -46 q 41 -76 38 -64 q 53 -101 45 -87 q 75 -125 61 -114 q 109 -143 88 -135 q 159 -150 129 -150 q 224 -137 195 -150 q 272 -105 252 -125 q 302 -61 292 -85 q 312 -14 312 -37 q 305 26 312 8 q 281 58 297 44 q 239 80 265 72 q 176 88 213 88 l 177 99 q 240 109 212 99 q 288 135 268 119 q 318 175 308 152 q 328 226 328 198 q 320 269 328 251 q 297 299 312 288 q 264 317 283 311 q 223 322 244 322 q 134 292 171 322 q 81 214 97 262 q 72 207 78 207 l 63 208 z "},"₄":{"ha":464,"x_min":-1,"x_max":360,"o":"m 247 3 l 283 292 q 284 300 283 296 q 285 308 284 304 l 18 3 l 247 3 m 360 3 l 360 -4 q 358 -9 359 -8 q 352 -10 356 -10 l 260 -10 l 242 -157 l 227 -157 l 245 -10 l 8 -10 q -1 -6 -1 -10 l -1 1 l 290 331 l 302 331 l 262 3 l 360 3 z "},"₅":{"ha":464,"x_min":19,"x_max":348,"o":"m 348 331 l 347 324 q 344 318 347 320 q 337 315 341 315 l 146 315 l 90 132 q 191 144 148 147 q 263 126 234 142 q 306 82 292 110 q 320 19 320 55 q 305 -58 320 -24 q 263 -115 289 -92 q 204 -150 238 -138 q 135 -162 171 -162 q 66 -151 97 -162 q 19 -125 35 -140 l 23 -118 q 26 -116 25 -117 q 30 -115 28 -115 q 41 -120 33 -115 q 61 -132 49 -126 q 93 -143 74 -138 q 137 -149 112 -149 q 200 -137 169 -149 q 253 -105 230 -126 q 290 -53 276 -84 q 303 19 303 -22 q 291 76 303 51 q 251 115 278 101 q 183 131 224 129 q 83 118 141 133 l 73 122 l 135 331 l 348 331 z "},"₆":{"ha":464,"x_min":31,"x_max":339,"o":"m 163 -150 q 228 -139 199 -150 q 278 -107 258 -127 q 310 -58 299 -86 q 321 3 321 -30 q 289 86 321 55 q 206 117 258 117 q 139 104 169 117 q 89 70 110 91 q 57 23 68 49 q 46 -31 46 -3 q 54 -78 46 -56 q 77 -116 62 -100 q 114 -141 92 -132 q 163 -150 135 -150 m 129 136 q 99 100 113 117 q 76 69 86 84 q 135 113 101 97 q 208 129 170 129 q 263 120 238 129 q 304 94 287 110 q 330 54 321 77 q 339 3 339 31 q 325 -65 339 -34 q 287 -117 311 -95 q 231 -151 263 -139 q 161 -162 199 -162 q 66 -127 101 -162 q 31 -29 31 -92 q 35 9 31 -10 q 50 49 40 28 q 76 91 60 69 q 114 139 92 113 l 276 326 q 285 331 278 331 l 297 331 l 129 136 z "},"₇":{"ha":464,"x_min":60,"x_max":383,"o":"m 383 331 l 381 319 l 80 -157 l 62 -157 l 358 307 q 360 312 359 310 q 363 315 362 314 l 66 315 q 60 322 60 315 l 62 331 l 383 331 z "},"₈":{"ha":464,"x_min":21,"x_max":344,"o":"m 164 -150 q 224 -141 196 -150 q 273 -114 252 -131 q 306 -71 294 -96 q 318 -15 318 -46 q 306 36 318 16 q 275 69 294 57 q 234 85 256 81 q 193 90 213 90 q 143 84 170 90 q 92 63 116 78 q 53 22 69 48 q 38 -44 38 -4 q 72 -121 38 -92 q 164 -150 106 -150 m 85 201 q 91 165 85 183 q 111 133 98 147 q 145 111 125 119 q 194 103 166 103 q 253 113 228 103 q 295 141 278 124 q 320 181 312 158 q 329 226 329 203 q 301 296 329 268 q 221 324 273 324 q 165 314 190 324 q 122 289 140 305 q 94 250 104 272 q 85 201 85 227 m 233 97 q 272 85 253 93 q 304 63 290 76 q 325 30 317 49 q 333 -15 333 10 q 320 -77 333 -50 q 284 -123 307 -104 q 230 -152 261 -142 q 163 -162 199 -162 q 104 -155 130 -162 q 59 -132 78 -147 q 31 -95 41 -117 q 21 -47 21 -74 q 32 12 21 -13 q 61 55 42 37 q 103 83 79 72 q 155 97 128 93 q 91 135 113 107 q 69 200 69 163 q 80 253 69 228 q 111 296 91 278 q 160 325 131 315 q 224 336 188 336 q 275 327 253 336 q 313 304 298 319 q 336 270 328 290 q 344 228 344 250 q 315 144 344 180 q 233 97 285 108 z "},"₉":{"ha":464,"x_min":52,"x_max":348,"o":"m 180 67 q 243 79 215 67 q 292 112 272 92 q 323 157 312 132 q 334 207 334 182 q 326 253 334 232 q 302 290 317 274 q 267 314 288 305 q 220 322 246 322 q 160 312 188 322 q 112 282 133 301 q 80 236 92 263 q 69 176 69 209 q 99 97 69 126 q 180 67 128 67 m 255 49 q 283 84 270 68 q 306 115 296 99 q 248 70 282 86 q 177 54 214 54 q 125 63 148 54 q 85 89 101 72 q 61 127 69 105 q 52 176 52 150 q 66 240 52 210 q 102 291 79 269 q 157 324 126 312 q 223 336 188 336 q 274 327 251 336 q 313 300 297 317 q 339 259 330 283 q 348 206 348 235 q 343 165 348 183 q 327 127 338 146 q 303 89 317 108 q 269 44 288 69 l 109 -154 q 102 -157 108 -157 l 88 -157 l 255 49 z "},"₊":{"ha":464,"x_min":29,"x_max":351,"o":"m 350 69 l 196 69 l 176 -93 l 164 -93 l 183 69 l 29 69 l 31 82 l 185 82 l 204 243 l 217 243 l 197 82 l 351 82 l 350 69 z "},"₋":{"ha":464,"x_min":47,"x_max":331,"o":"m 49 82 l 331 82 l 329 69 l 47 69 l 49 82 z "},"₌":{"ha":464,"x_min":42,"x_max":337,"o":"m 44 32 l 324 32 l 323 19 l 42 19 l 44 32 m 56 136 l 337 136 l 335 124 l 55 124 l 56 136 z "},"₍":{"ha":232,"x_min":25,"x_max":174,"o":"m 40 33 q 54 -88 40 -26 q 97 -203 68 -149 q 98 -208 99 -206 q 94 -211 97 -210 l 88 -215 q 40 -89 54 -151 q 25 31 25 -26 q 31 119 25 77 q 51 204 36 161 q 93 293 67 247 q 163 394 120 340 l 168 390 q 169 382 174 390 q 72 215 103 299 q 40 33 40 131 z "},"₎":{"ha":232,"x_min":-22,"x_max":125,"o":"m 111 131 q 96 252 111 190 q 53 368 81 314 q 54 376 51 376 l 63 381 q 110 255 96 317 q 125 136 125 192 q 120 52 125 93 q 101 -31 116 12 q 60 -123 87 -74 q -12 -229 33 -171 l -19 -225 q -21 -222 -21 -224 q -18 -217 -22 -220 q 38 -134 14 -175 q 78 -50 62 -93 q 103 37 94 -8 q 111 131 111 81 z "},"⁄":{"ha":194,"x_min":-215,"x_max":427,"o":"m -192 8 q -200 1 -196 3 q -208 0 -204 0 l -215 0 l 404 964 q 419 972 408 972 l 427 972 l -192 8 z "},"⅔":{"ha":949,"x_min":87,"x_max":860,"o":"m 192 8 q 185 1 189 3 q 176 0 181 0 l 169 0 l 789 964 q 803 972 793 972 l 812 972 l 192 8 m 390 499 q 395 493 395 499 l 394 485 l 87 485 l 87 490 q 92 499 90 496 l 287 674 q 335 719 313 697 q 375 764 358 741 q 402 811 392 786 q 412 864 412 835 q 403 909 412 890 q 379 940 394 928 q 344 958 364 952 q 303 964 325 964 q 215 934 251 964 q 162 856 178 903 q 151 849 158 849 l 144 850 q 203 944 160 910 q 306 978 247 978 q 352 971 330 978 q 390 951 374 965 q 417 916 407 937 q 427 865 427 894 q 416 808 427 834 q 388 758 406 782 q 346 713 370 735 q 297 667 322 690 l 107 496 q 151 499 123 499 l 390 499 m 578 365 q 638 459 594 425 q 740 493 681 493 q 786 487 764 493 q 824 467 808 481 q 850 434 840 454 q 860 386 860 414 q 850 335 860 358 q 823 295 840 312 q 784 267 806 278 q 739 252 762 256 q 817 216 791 245 q 843 146 843 188 q 830 87 843 115 q 793 39 816 60 q 739 6 770 18 q 672 -6 708 -6 q 603 7 629 -6 q 561 37 576 19 q 540 76 547 55 q 531 117 533 98 l 538 119 q 543 120 540 121 q 549 114 547 120 q 551 102 549 111 q 556 81 552 93 q 568 56 560 69 q 589 32 576 43 q 623 14 603 22 q 674 7 644 7 q 738 19 710 7 q 786 52 767 32 q 816 96 806 72 q 826 143 826 120 q 819 183 826 165 q 795 215 812 201 q 753 236 779 228 q 690 244 727 244 l 692 256 q 755 266 726 256 q 802 292 783 276 q 833 332 822 309 q 843 383 843 355 q 835 426 843 408 q 812 456 826 444 q 778 474 797 468 q 738 479 759 479 q 649 449 685 479 q 596 371 612 419 q 586 364 592 364 l 578 365 z "},"⅖":{"ha":946,"x_min":87,"x_max":861,"o":"m 192 8 q 185 1 189 3 q 176 0 181 0 l 169 0 l 789 964 q 803 972 793 972 l 812 972 l 192 8 m 390 499 q 395 493 395 499 l 394 485 l 87 485 l 87 490 q 92 499 90 496 l 287 674 q 335 719 313 697 q 375 764 358 741 q 402 811 392 786 q 412 864 412 835 q 403 909 412 890 q 379 940 394 928 q 344 958 364 952 q 303 964 325 964 q 215 934 251 964 q 162 856 178 903 q 151 849 158 849 l 144 850 q 203 944 160 910 q 306 978 247 978 q 352 971 330 978 q 390 951 374 965 q 417 916 407 937 q 427 865 427 894 q 416 808 427 834 q 388 758 406 782 q 346 713 370 735 q 297 667 322 690 l 107 496 q 151 499 123 499 l 390 499 m 861 488 l 860 481 q 857 475 860 477 q 850 472 854 472 l 659 472 l 603 289 q 704 301 661 303 q 776 283 747 299 q 819 239 805 267 q 833 176 833 212 q 818 99 833 133 q 776 42 802 65 q 717 7 751 19 q 649 -6 684 -6 q 579 6 610 -6 q 532 32 549 17 l 536 39 q 540 41 538 40 q 543 42 541 42 q 554 36 546 42 q 575 25 562 31 q 606 14 588 19 q 650 8 625 8 q 713 19 683 8 q 766 52 743 31 q 803 104 789 73 q 817 176 817 135 q 804 233 817 208 q 765 272 792 258 q 696 288 738 286 q 596 275 654 290 l 586 279 l 649 488 l 861 488 z "},"+":{"ha":806,"x_min":89,"x_max":731,"o":"m 729 458 l 415 458 l 375 131 l 361 131 l 401 458 l 89 458 l 90 472 l 403 472 l 443 799 l 457 799 l 417 472 l 731 472 l 729 458 z "},"−":{"ha":806,"x_min":128,"x_max":686,"o":"m 129 472 l 686 472 l 685 458 l 128 458 l 129 472 z "},"×":{"ha":806,"x_min":96,"x_max":722,"o":"m 420 465 l 656 196 l 646 186 l 409 455 l 104 185 l 96 194 l 400 465 l 163 735 l 175 746 l 411 476 l 713 744 l 722 733 l 420 465 z "},"÷":{"ha":806,"x_min":88,"x_max":729,"o":"m 89 472 l 729 472 l 728 458 l 88 458 l 89 472 m 393 706 q 408 742 393 726 q 443 757 423 757 q 472 744 461 757 q 483 715 483 732 q 468 681 483 694 q 432 667 452 667 q 403 678 414 667 q 393 706 393 690 m 332 211 q 347 247 332 232 q 382 263 362 263 q 411 250 400 263 q 422 221 422 238 q 407 186 422 200 q 371 172 392 172 q 343 184 354 172 q 332 211 332 195 z "},"=":{"ha":806,"x_min":115,"x_max":697,"o":"m 117 375 l 672 375 l 671 361 l 115 361 l 117 375 m 142 579 l 697 579 l 696 565 l 140 565 l 142 579 z "},"≠":{"ha":806,"x_min":239,"x_max":581,"o":"m 565 781 l 581 781 l 254 161 l 239 161 l 565 781 z "},"≈":{"ha":806,"x_min":143,"x_max":674,"o":"m 553 533 q 615 548 585 533 q 665 586 645 563 l 674 579 q 620 536 653 552 q 551 519 587 519 q 483 533 516 519 q 419 563 451 547 q 355 592 387 578 q 290 606 324 606 q 227 591 256 606 q 178 553 198 576 l 169 560 q 222 603 190 587 q 292 619 254 619 q 361 606 328 619 q 426 576 394 592 q 489 547 458 560 q 553 533 520 533 m 528 328 q 590 343 560 328 q 640 381 620 358 l 649 374 q 595 330 628 347 q 526 314 562 314 q 458 327 491 314 q 393 357 425 341 q 329 386 361 373 q 264 400 297 400 q 200 385 229 400 q 153 347 172 370 l 143 354 q 197 398 165 381 q 267 414 229 414 q 336 400 303 414 q 401 371 369 387 q 464 341 433 355 q 528 328 495 328 z "},"<":{"ha":806,"x_min":134,"x_max":674,"o":"m 674 728 l 673 720 q 658 706 672 713 l 183 479 q 167 472 175 475 q 149 465 158 468 q 165 459 158 463 q 180 451 172 456 l 599 225 q 610 210 611 218 l 609 203 l 134 461 l 134 463 l 134 464 l 135 468 l 135 468 l 135 469 l 674 728 z "},">":{"ha":806,"x_min":142,"x_max":682,"o":"m 681 464 l 681 461 l 142 203 l 143 210 q 147 218 144 215 q 158 225 150 222 l 632 451 q 649 459 641 456 q 666 465 658 463 q 651 471 658 467 q 635 479 643 475 l 217 706 q 207 712 210 709 q 206 720 205 715 l 206 728 l 682 469 l 681 464 z "},"±":{"ha":806,"x_min":42,"x_max":734,"o":"m 44 69 l 684 69 l 683 56 l 42 56 l 44 69 m 734 472 l 733 458 l 418 458 l 381 158 l 367 158 l 404 458 l 92 458 l 94 472 l 406 472 l 442 771 l 456 771 l 419 472 l 734 472 z "},"≤":{"ha":806,"x_min":106,"x_max":696,"o":"m 696 728 l 695 720 q 680 706 694 713 l 206 479 q 189 472 197 475 q 172 465 181 468 q 187 459 180 463 q 202 451 194 456 l 621 225 q 633 210 633 218 l 631 203 l 156 461 l 156 463 l 156 464 l 157 468 l 158 468 l 158 469 l 696 728 m 108 69 l 615 69 l 613 56 l 106 56 l 108 69 z "},"≥":{"ha":806,"x_min":110,"x_max":668,"o":"m 112 69 l 619 69 l 617 56 l 110 56 l 112 69 m 667 464 l 667 461 l 128 203 l 129 210 q 133 218 130 215 q 144 225 136 222 l 618 451 q 635 459 627 456 q 653 465 644 463 q 637 472 644 468 q 622 479 629 475 l 203 706 q 193 712 196 709 q 192 720 191 715 l 192 728 l 668 469 l 667 464 z "},"¬":{"ha":806,"x_min":132,"x_max":690,"o":"m 689 458 l 663 250 l 647 250 l 674 458 l 132 458 l 133 472 l 690 472 l 689 458 z "},"℮":{"ha":1158,"x_min":101,"x_max":1093,"o":"m 121 465 q 136 357 121 412 q 181 250 151 301 q 254 155 210 199 q 353 77 297 110 q 476 25 408 44 q 622 6 544 6 q 748 19 690 6 q 855 56 806 32 q 947 115 905 81 q 1024 193 989 150 l 1035 185 q 956 105 1000 140 q 860 44 913 69 q 748 6 808 19 q 621 -7 688 -7 q 405 35 501 -7 q 241 145 309 76 q 138 303 174 215 q 101 488 101 392 q 138 684 101 594 q 241 841 175 775 q 400 945 308 908 q 603 983 492 983 q 800 949 710 983 q 955 852 890 914 q 1057 704 1020 790 q 1093 517 1093 618 l 121 517 l 121 465 m 1076 534 q 1061 648 1076 592 q 1016 751 1045 703 q 945 840 987 799 q 850 909 903 881 q 735 955 798 938 q 603 971 673 971 q 413 936 500 971 q 263 841 326 901 q 161 700 199 781 q 121 528 124 619 l 1076 528 l 1076 534 z "},"ℓ":{"ha":599,"x_min":37,"x_max":585,"o":"m 473 968 q 368 927 419 968 q 275 813 317 885 q 205 643 234 741 q 165 433 176 545 q 332 504 257 463 q 459 597 406 546 q 541 708 513 649 q 570 835 570 768 q 543 935 570 903 q 473 968 517 968 m 37 399 q 94 412 66 405 q 149 427 122 419 q 190 649 159 547 q 265 825 220 751 q 363 941 309 899 q 473 983 417 983 q 526 971 504 983 q 560 938 547 958 q 580 891 574 917 q 585 838 585 865 q 556 705 585 767 q 473 588 527 642 q 341 491 419 535 q 165 417 263 448 q 160 319 160 369 q 168 171 160 232 q 192 72 176 110 q 232 17 208 34 q 288 0 256 0 q 345 11 316 0 q 401 49 374 23 q 455 115 428 74 q 503 215 481 156 l 516 211 q 483 131 504 172 q 433 59 462 91 q 367 6 403 26 q 290 -14 331 -14 q 225 3 253 -14 q 180 59 198 20 q 153 163 162 99 q 144 319 144 226 q 145 366 144 343 q 147 412 146 390 q 40 385 97 397 l 37 399 z "},"∞":{"ha":960,"x_min":94,"x_max":864,"o":"m 841 410 q 838 486 846 452 q 813 544 831 520 q 768 581 795 568 q 709 593 742 593 q 647 577 676 593 q 591 536 618 562 q 538 477 564 510 q 487 410 513 444 q 521 342 503 375 q 560 283 539 309 q 606 242 581 258 q 665 226 632 226 q 727 239 697 226 q 780 275 756 251 q 819 333 803 299 q 841 410 835 367 m 247 226 q 309 242 280 226 q 366 283 339 258 q 419 342 393 309 q 470 410 444 375 q 436 477 453 444 q 397 536 418 510 q 350 577 376 562 q 292 593 324 593 q 230 581 260 593 q 177 544 201 568 q 136 486 153 520 q 115 410 120 452 q 118 333 110 367 q 144 275 126 299 q 189 239 162 251 q 247 226 215 226 m 711 607 q 775 593 745 607 q 825 555 804 580 q 855 493 845 529 q 858 410 864 456 q 834 327 853 363 q 789 265 815 290 q 729 226 762 240 q 663 213 697 213 q 601 228 628 213 q 552 269 574 244 q 512 328 530 295 q 476 397 494 362 q 424 328 451 362 q 370 269 398 295 q 311 228 342 244 q 245 213 280 213 q 183 226 212 213 q 133 265 153 240 q 103 327 113 290 q 99 410 94 363 q 124 493 105 456 q 169 555 142 529 q 228 593 195 580 q 294 607 260 607 q 356 591 328 607 q 405 550 383 576 q 445 491 426 524 q 480 423 463 458 q 532 491 506 458 q 586 550 558 524 q 645 591 615 576 q 711 607 676 607 z "},"∂":{"ha":722,"x_min":52,"x_max":679,"o":"m 248 7 q 364 36 309 7 q 465 117 419 65 q 547 241 511 169 q 607 398 583 313 q 596 478 606 438 q 565 551 586 519 q 509 602 543 583 q 424 622 474 622 q 295 594 354 622 q 190 515 235 565 q 116 398 145 465 q 76 254 86 331 q 78 150 69 196 q 110 72 88 104 q 168 24 133 40 q 248 7 203 7 m 333 933 q 377 958 356 948 q 417 974 398 968 q 455 983 436 981 q 494 986 474 986 q 586 962 548 986 q 646 891 624 938 q 674 778 668 845 q 669 625 679 711 q 638 457 658 538 q 590 306 618 376 q 526 178 562 235 q 446 79 490 120 q 351 16 402 38 q 243 -7 300 -7 q 157 11 194 -7 q 95 63 119 29 q 62 144 72 96 q 60 253 52 192 q 100 401 69 331 q 179 523 131 471 q 289 606 226 575 q 423 636 351 636 q 490 625 457 636 q 550 590 524 614 q 595 526 577 565 q 617 433 613 488 q 630 489 624 460 q 640 544 636 518 q 648 592 644 570 q 652 626 651 613 q 632 881 672 791 q 492 971 592 971 q 431 964 458 971 q 386 948 405 956 q 356 932 367 940 q 340 925 344 925 q 335 929 335 925 l 333 933 z "},"∫":{"ha":569,"x_min":-58,"x_max":632,"o":"m 325 876 q 353 990 333 942 q 405 1068 374 1038 q 474 1112 435 1098 q 558 1126 513 1126 q 600 1123 581 1126 q 632 1113 619 1121 l 629 1108 q 622 1102 626 1102 q 610 1105 618 1103 q 590 1110 602 1107 q 558 1113 577 1113 q 481 1100 517 1113 q 416 1059 444 1087 q 369 985 388 1031 q 342 876 350 940 l 249 -6 q 220 -120 241 -72 q 169 -198 199 -167 q 99 -242 138 -228 q 15 -256 60 -256 q -26 -253 -7 -256 q -58 -243 -46 -251 l -56 -237 q -49 -233 -53 -233 q -36 -235 -44 -233 q -16 -240 -28 -237 q 15 -242 -3 -242 q 93 -230 57 -242 q 157 -189 129 -217 q 205 -115 185 -160 q 232 -6 224 -70 l 325 876 z "},"√":{"ha":878,"x_min":58,"x_max":947,"o":"m 947 1199 l 409 0 l 397 0 l 261 496 l 67 496 q 60 498 63 496 q 59 504 58 500 l 59 508 l 265 508 q 273 505 271 508 q 277 499 276 502 l 399 47 q 403 33 401 40 q 405 22 404 27 q 410 34 408 28 q 415 47 413 40 l 927 1189 q 941 1199 934 1199 l 947 1199 z "},"∏":{"ha":913,"x_min":110,"x_max":931,"o":"m 930 957 l 769 957 l 622 -250 l 605 -250 l 753 957 l 286 957 l 138 -250 l 122 -250 l 269 957 l 110 957 l 112 972 l 931 972 l 930 957 z "},"∑":{"ha":874,"x_min":-30,"x_max":874,"o":"m 873 957 l 144 957 l 523 363 l 522 360 l -2 -235 l 726 -235 l 724 -250 l -30 -250 l -28 -242 q -25 -235 -28 -237 l 501 361 l 121 956 q 119 964 118 959 l 120 972 l 874 972 l 873 957 z "},"◊":{"ha":806,"x_min":117,"x_max":700,"o":"m 682 457 l 418 994 q 412 1009 415 1002 q 408 1023 410 1015 q 405 1009 407 1015 q 399 994 402 1002 l 135 457 l 399 -81 q 405 -95 402 -88 q 408 -109 407 -101 q 412 -95 410 -101 q 418 -81 415 -88 l 682 457 m 700 457 l 414 -128 l 403 -128 l 117 457 l 403 1042 l 414 1042 l 700 457 z "},"←":{"ha":1389,"x_min":93,"x_max":1292,"o":"m 93 438 l 465 810 l 469 807 q 471 799 472 802 q 466 792 469 796 l 144 471 q 127 455 135 461 q 113 444 119 448 q 133 445 122 445 q 165 446 144 446 l 1292 446 l 1292 430 l 165 430 q 134 431 144 430 q 113 432 123 431 q 144 405 124 424 l 469 80 q 474 74 473 76 q 472 66 476 71 l 469 62 l 93 438 z "},"→":{"ha":1389,"x_min":97,"x_max":1296,"o":"m 1296 438 l 924 65 l 920 69 q 918 77 917 74 q 923 83 919 80 l 1244 405 q 1276 432 1265 424 q 1256 430 1267 431 q 1224 430 1245 430 l 97 430 l 97 446 l 1224 446 q 1255 445 1244 446 q 1276 444 1266 444 q 1262 455 1270 448 q 1244 471 1254 461 l 919 796 q 915 802 916 799 q 917 810 913 805 l 920 814 l 1296 438 z "},"↑":{"ha":1042,"x_min":146,"x_max":894,"o":"m 894 669 l 890 666 q 882 664 885 663 q 876 669 879 665 l 554 990 q 527 1022 535 1011 q 529 1002 528 1013 q 529 970 529 991 l 529 -157 l 513 -157 l 513 970 q 514 1001 513 990 q 515 1022 515 1012 q 505 1008 511 1016 q 488 990 498 1000 l 164 666 q 158 661 160 663 q 150 663 155 660 l 146 667 l 522 1042 l 894 669 z "},"↓":{"ha":1042,"x_min":149,"x_max":897,"o":"m 897 149 l 521 -226 l 149 146 l 152 149 q 160 151 157 153 q 167 147 163 150 l 488 -175 q 515 -207 508 -196 q 514 -186 514 -197 q 513 -155 513 -176 l 513 972 l 529 972 l 529 -155 q 528 -186 529 -175 q 527 -207 528 -197 q 538 -193 531 -201 q 554 -175 544 -185 l 879 150 q 885 155 883 153 q 893 153 888 156 l 897 149 z "},"↗":{"ha":1042,"x_min":50,"x_max":903,"o":"m 903 847 l 903 320 l 898 321 q 891 325 892 322 q 890 333 890 328 l 890 788 q 890 811 890 801 q 892 829 891 822 q 879 813 886 822 q 858 791 872 805 l 60 -6 l 50 5 l 847 802 q 869 823 860 816 q 885 837 877 831 q 867 835 877 835 q 843 834 857 834 l 383 834 q 375 835 378 835 q 372 842 372 836 l 371 847 l 903 847 z "},"↖":{"ha":1042,"x_min":139,"x_max":992,"o":"m 992 5 l 981 -6 l 184 791 q 163 813 170 805 q 149 829 156 822 q 151 811 151 822 q 152 788 152 801 l 152 333 q 151 325 152 328 q 144 321 150 322 l 139 320 l 139 847 l 671 847 l 670 842 q 667 835 669 836 q 658 834 664 835 l 199 834 q 175 835 185 834 q 157 837 165 835 q 173 823 165 831 q 195 802 181 816 l 992 5 z "},"↘":{"ha":1042,"x_min":50,"x_max":903,"o":"m 903 527 l 903 0 l 371 0 l 372 5 q 375 12 372 11 q 383 13 378 13 l 843 13 q 867 13 857 13 q 885 10 877 12 q 869 24 877 17 q 847 45 860 31 l 50 842 l 60 853 l 858 56 q 879 34 872 42 q 892 18 886 26 q 890 36 891 26 q 890 60 890 46 l 890 515 q 891 523 890 519 q 898 526 892 526 l 903 527 z "},"↙":{"ha":1042,"x_min":139,"x_max":992,"o":"m 139 0 l 139 527 l 144 526 q 151 523 150 526 q 152 515 152 519 l 152 60 q 149 19 152 32 q 163 34 156 26 q 184 56 170 42 l 981 853 l 992 842 l 195 45 q 173 24 181 31 q 158 10 165 17 q 175 13 165 12 q 199 13 185 13 l 658 13 q 667 12 664 13 q 670 5 669 11 l 671 0 l 139 0 z "},"↔":{"ha":1389,"x_min":93,"x_max":1296,"o":"m 1296 438 l 924 65 l 920 69 q 918 77 917 74 q 923 83 919 80 l 1244 405 q 1276 432 1265 424 q 1256 430 1267 431 q 1224 430 1245 430 l 116 430 q 144 405 128 421 l 469 80 q 474 74 473 76 q 472 66 476 71 l 469 62 l 93 438 l 465 810 l 469 807 q 471 799 472 802 q 466 792 469 796 l 144 471 q 115 446 126 454 l 1224 446 q 1255 445 1244 446 q 1276 444 1266 444 q 1262 455 1270 448 q 1244 471 1254 461 l 919 796 q 915 802 916 799 q 917 810 913 805 l 920 814 l 1296 438 z "},"↕":{"ha":1042,"x_min":145,"x_max":898,"o":"m 522 -226 l 149 146 l 153 149 q 161 151 158 153 q 167 147 164 150 l 489 -175 q 503 -190 497 -183 q 513 -203 509 -197 l 513 970 q 514 1001 513 990 q 515 1022 515 1012 q 488 990 507 1009 l 163 665 q 157 660 160 662 q 149 663 154 659 l 145 666 l 522 1042 l 894 669 l 890 666 q 882 664 885 663 q 876 669 879 665 l 554 990 q 538 1008 544 1000 q 527 1022 531 1016 q 529 1001 528 1012 q 529 970 529 990 l 529 -204 q 555 -175 538 -191 l 880 150 q 886 155 883 153 q 894 153 889 156 l 898 149 l 522 -226 z "},"Ơ":{"ha":1060,"x_min":95,"x_max":1083,"o":"m 455 4 q 638 43 553 4 q 785 154 723 81 q 882 331 847 226 q 917 565 917 435 q 893 733 917 658 q 824 861 869 808 q 716 941 779 913 q 574 969 652 969 q 450 952 510 969 q 340 901 391 935 q 246 819 288 868 q 174 708 204 770 q 128 570 144 646 q 112 408 112 495 q 136 240 112 315 q 206 113 161 165 q 315 32 251 60 q 455 4 378 4 m 1079 1063 q 1082 1041 1081 1053 q 1083 1019 1083 1028 q 1065 928 1083 965 q 1017 867 1047 891 q 949 833 987 844 q 873 820 911 822 q 919 705 903 769 q 935 565 935 641 q 899 326 935 433 q 797 145 862 220 q 644 31 733 71 q 453 -10 556 -10 q 306 20 372 -10 q 193 103 240 49 q 120 235 146 158 q 95 407 95 312 q 112 572 95 494 q 159 713 128 649 q 234 827 190 776 q 331 912 277 877 q 446 965 384 947 q 576 983 508 983 q 745 944 672 983 q 865 833 819 905 q 934 842 900 833 q 994 869 967 852 q 1038 910 1021 886 q 1054 963 1054 933 q 1050 985 1054 976 q 1041 999 1046 993 q 1031 1011 1035 1006 q 1027 1028 1027 1017 q 1036 1054 1027 1045 q 1060 1063 1046 1063 l 1079 1063 z "},"Ư":{"ha":1000,"x_min":125,"x_max":1060,"o":"m 1056 1063 q 1059 1041 1058 1053 q 1060 1019 1060 1028 q 1040 926 1060 964 q 989 864 1020 888 q 918 831 958 841 q 840 820 879 820 l 783 361 q 742 216 774 284 q 663 97 711 148 q 551 17 615 47 q 413 -12 488 -12 q 282 17 338 -12 q 190 97 226 47 q 140 216 154 148 q 135 361 125 284 l 210 972 l 226 972 l 151 363 q 156 223 142 288 q 202 108 169 157 q 289 31 235 59 q 415 3 343 3 q 547 31 487 3 q 653 108 608 59 q 728 222 699 156 q 767 361 757 287 l 842 972 l 858 972 l 841 833 q 910 842 876 833 q 970 868 944 851 q 1014 909 997 885 q 1031 963 1031 933 q 1026 985 1031 976 q 1017 999 1022 993 q 1008 1011 1012 1006 q 1003 1028 1003 1017 q 1013 1054 1003 1045 q 1036 1063 1022 1063 l 1056 1063 z "},"ơ":{"ha":750,"x_min":65,"x_max":774,"o":"m 299 6 q 425 41 368 6 q 522 133 481 76 q 584 265 562 191 q 606 415 606 338 q 591 525 606 476 q 547 608 576 574 q 478 660 519 642 q 388 678 438 678 q 302 662 342 678 q 227 618 261 646 q 166 551 193 590 q 120 467 139 513 q 91 371 101 422 q 81 268 81 320 q 97 158 81 207 q 140 76 112 110 q 208 24 168 42 q 299 6 249 6 m 771 783 q 773 764 772 774 q 774 745 774 753 q 758 664 774 697 q 717 610 742 631 q 658 578 691 589 q 592 567 626 568 q 623 415 623 502 q 613 310 623 363 q 582 211 602 258 q 534 124 563 164 q 470 54 506 83 q 391 8 434 25 q 298 -8 347 -8 q 200 11 244 -8 q 127 66 157 31 q 81 153 97 102 q 65 268 65 204 q 75 374 65 322 q 105 473 85 426 q 153 560 125 520 q 217 629 181 600 q 297 675 253 658 q 390 692 340 692 q 508 661 458 692 q 587 577 558 631 q 648 587 619 578 q 699 612 677 596 q 735 650 722 628 q 749 699 749 672 q 745 716 749 710 q 736 726 741 722 q 728 737 732 731 q 724 751 724 742 q 732 775 724 767 q 753 783 740 783 l 771 783 z "},"ư":{"ha":753,"x_min":85,"x_max":783,"o":"m 779 783 q 782 764 781 774 q 783 745 783 753 q 767 664 783 697 q 725 609 751 631 q 666 578 699 588 q 599 566 633 567 l 531 0 l 526 0 q 519 3 521 0 q 518 10 518 6 l 550 274 l 550 277 q 486 160 522 213 q 409 69 450 107 q 323 12 367 32 q 233 -8 278 -8 q 159 9 189 -8 q 111 59 128 26 q 90 139 94 92 q 93 247 85 187 l 144 681 l 160 681 l 108 247 q 105 145 101 190 q 124 69 109 101 q 167 22 140 38 q 235 6 194 6 q 322 27 278 6 q 407 88 366 48 q 486 183 449 127 q 553 309 523 240 l 597 681 l 613 681 l 600 578 q 660 589 631 579 q 710 614 688 598 q 744 651 731 629 q 757 699 757 672 q 753 716 757 710 q 744 726 749 722 q 736 737 740 731 q 732 751 732 742 q 740 775 732 767 q 761 783 749 783 l 779 783 z "},"₫":{"ha":740,"x_min":8,"x_max":724,"o":"m 10 -142 l 575 -142 l 573 -156 l 8 -156 l 10 -142 m 572 549 q 534 609 556 585 q 489 648 513 633 q 437 670 464 663 q 381 676 410 676 q 289 656 331 676 q 211 602 246 636 q 149 523 176 568 q 103 428 122 478 q 75 326 85 378 q 66 226 66 274 q 76 135 66 176 q 107 66 87 94 q 157 21 127 37 q 227 6 188 6 q 316 28 272 6 q 402 94 360 51 q 480 199 443 138 q 546 336 517 260 l 572 549 m 723 813 l 621 813 l 522 0 l 517 0 q 510 3 512 0 q 509 10 509 6 l 543 300 q 480 175 516 232 q 404 78 444 119 q 318 14 363 37 q 227 -8 273 -8 q 149 10 182 -8 q 93 59 115 28 q 61 133 72 90 q 51 226 51 176 q 61 330 51 276 q 91 435 71 383 q 139 533 110 487 q 205 614 168 579 q 286 670 242 649 q 383 690 331 690 q 441 683 413 690 q 494 661 469 676 q 540 624 519 647 q 575 572 560 602 l 605 813 l 448 813 q 441 816 442 813 q 441 822 440 820 l 442 826 l 607 826 l 628 1000 l 644 1000 l 622 826 l 724 826 l 723 813 z "},"○":{"ha":922,"x_min":85,"x_max":847,"o":"m 85 454 q 115 602 85 533 q 197 723 145 672 q 318 805 249 775 q 466 835 388 835 q 614 805 544 835 q 735 723 683 775 q 817 602 787 672 q 847 454 847 533 q 817 306 847 376 q 735 185 787 237 q 614 103 683 133 q 466 74 544 74 q 318 103 388 74 q 197 185 249 133 q 115 306 145 237 q 85 454 85 376 m 101 454 q 129 311 101 378 q 207 195 158 244 q 323 117 256 145 q 466 88 390 88 q 609 117 542 88 q 725 194 676 145 q 803 310 774 244 q 831 453 831 377 q 803 597 831 530 q 725 713 774 663 q 609 791 676 763 q 466 819 542 819 q 323 791 390 819 q 207 713 256 763 q 129 597 158 664 q 101 454 101 531 z "},"◌":{"ha":922,"x_min":111,"x_max":824,"o":"m 447 790 q 452 805 447 799 q 467 810 458 810 q 481 805 475 810 q 488 790 488 799 q 481 776 488 782 q 467 769 475 769 q 452 776 458 769 q 447 790 447 782 m 574 765 q 580 779 574 773 q 594 785 586 785 q 609 779 603 785 q 615 765 615 773 q 609 750 615 756 q 594 744 603 744 q 580 750 586 744 q 574 765 574 756 m 683 692 q 689 707 683 701 q 703 713 695 713 q 718 707 712 713 q 724 692 724 701 q 718 678 724 684 q 703 672 712 672 q 689 678 695 672 q 683 692 683 684 m 754 585 q 760 599 754 593 q 774 605 766 605 q 789 599 783 605 q 795 585 795 593 q 789 570 795 576 q 774 564 783 564 q 760 570 766 564 q 754 585 754 576 m 783 455 q 789 469 783 463 q 803 475 795 475 q 818 469 812 475 q 824 455 824 463 q 818 440 824 447 q 803 434 812 434 q 789 440 795 434 q 783 455 783 447 m 317 765 q 323 779 317 773 q 337 785 328 785 q 351 779 345 785 q 358 765 358 773 q 351 750 358 756 q 337 744 345 744 q 323 750 328 744 q 317 765 317 756 m 209 692 q 215 707 209 701 q 229 713 221 713 q 244 707 238 713 q 250 692 250 701 q 244 678 250 684 q 229 672 238 672 q 215 678 221 672 q 209 692 209 684 m 137 585 q 143 599 137 593 q 157 605 149 605 q 172 599 165 605 q 178 585 178 593 q 172 570 178 576 q 157 564 165 564 q 143 570 149 564 q 137 585 137 576 m 111 455 q 117 469 111 463 q 131 475 123 475 q 146 469 140 475 q 152 455 152 463 q 146 440 152 447 q 131 434 140 434 q 117 440 123 434 q 111 455 111 447 m 754 327 q 760 341 754 335 q 774 347 766 347 q 789 341 783 347 q 795 327 795 335 q 789 313 795 319 q 774 306 783 306 q 760 313 766 306 q 754 327 754 319 m 137 327 q 143 341 137 335 q 157 347 149 347 q 172 341 165 347 q 178 327 178 335 q 172 313 178 319 q 157 306 165 306 q 143 313 149 306 q 137 327 137 319 m 683 218 q 689 232 683 226 q 703 238 695 238 q 718 232 712 238 q 724 218 724 226 q 718 203 724 210 q 703 197 712 197 q 689 203 695 197 q 683 218 683 210 m 209 218 q 215 232 209 226 q 229 238 221 238 q 244 232 238 238 q 250 218 250 226 q 244 203 250 210 q 229 197 238 197 q 215 203 221 197 q 209 218 209 210 m 574 147 q 580 161 574 156 q 594 167 586 167 q 609 161 603 167 q 615 147 615 156 q 609 133 615 139 q 594 126 603 126 q 580 133 586 126 q 574 147 574 139 m 317 147 q 323 161 317 156 q 337 167 328 167 q 351 161 345 167 q 358 147 358 156 q 351 133 358 139 q 337 126 345 126 q 323 133 328 126 q 317 147 317 139 m 447 118 q 452 132 447 126 q 467 138 458 138 q 481 132 475 138 q 488 118 488 126 q 481 103 488 110 q 467 97 475 97 q 452 103 458 97 q 447 118 447 110 z "},"͏":{"ha":0,"x_min":0,"x_max":0,"o":""},"᷂":{"ha":0,"x_min":-85,"x_max":16,"o":"m -28 -324 q -31 -326 -28 -326 q -54 -313 -43 -323 q -65 -290 -65 -303 q -58 -271 -65 -280 q -42 -255 -51 -262 q -27 -240 -34 -247 q -20 -226 -20 -233 q -27 -212 -20 -219 q -43 -199 -35 -206 q -59 -184 -51 -192 q -66 -166 -66 -176 q -55 -145 -66 -154 q -32 -128 -44 -136 q -8 -112 -19 -120 q 3 -96 3 -105 q -6 -82 3 -87 q -28 -76 -14 -76 q -37 -77 -34 -76 q -41 -80 -40 -78 q -45 -82 -43 -81 q -51 -83 -47 -83 q -75 -75 -65 -83 q -85 -60 -85 -66 q -80 -54 -85 -57 q -69 -48 -76 -51 q -57 -44 -63 -46 q -47 -43 -51 -43 q -42 -45 -43 -43 q -38 -50 -40 -47 q -31 -57 -36 -53 q -15 -64 -26 -60 q 9 -77 2 -69 q 16 -94 16 -84 q 6 -117 16 -108 q -17 -134 -5 -126 q -40 -149 -30 -142 q -51 -164 -51 -156 q -44 -177 -51 -171 q -29 -191 -37 -183 q -14 -206 -21 -198 q -7 -224 -7 -214 q -14 -243 -7 -235 q -31 -258 -22 -251 q -47 -273 -40 -265 q -54 -290 -54 -280 q -45 -310 -54 -301 q -29 -323 -37 -318 l -28 -324 z "},"Ɓ":{"ha":948,"x_min":92,"x_max":858,"o":"m 519 14 q 647 31 590 14 q 743 83 703 49 q 804 167 783 117 q 825 283 825 217 q 808 367 825 329 q 759 431 791 404 q 681 472 727 457 q 578 486 635 486 l 326 486 l 268 14 l 519 14 m 328 500 l 551 500 q 683 524 628 500 q 774 587 738 549 q 826 672 809 625 q 842 764 842 719 q 783 907 842 855 q 601 958 724 958 l 384 958 l 328 500 m 603 972 q 795 918 732 972 q 858 766 858 865 q 840 668 858 715 q 788 584 821 621 q 712 524 756 548 q 620 496 669 501 q 713 475 672 492 q 783 431 754 458 q 826 367 811 404 q 842 285 842 331 q 819 164 842 217 q 755 75 797 111 q 653 19 713 38 q 517 0 593 0 l 250 0 l 368 958 l 332 958 q 234 945 276 958 q 164 906 192 931 q 121 845 135 881 q 106 765 106 809 q 107 739 106 754 q 110 711 108 723 q 111 702 112 706 q 106 697 110 698 l 99 695 q 93 731 95 712 q 92 763 92 749 q 108 850 92 811 q 155 916 124 889 q 231 958 185 943 q 333 972 276 972 l 603 972 z "},"Ƅ":{"ha":788,"x_min":115,"x_max":717,"o":"m 372 14 q 515 38 453 14 q 618 103 577 62 q 680 200 659 144 q 701 320 701 256 q 684 410 701 367 q 635 485 668 453 q 553 536 603 517 q 439 556 504 556 l 199 556 l 146 118 l 133 14 l 372 14 m 441 569 q 561 550 510 569 q 648 496 613 530 q 700 417 683 463 q 717 322 717 372 q 695 197 717 256 q 630 94 674 138 q 521 25 586 51 q 369 0 456 0 l 115 0 l 208 763 l 127 808 l 238 972 l 251 972 l 201 569 l 441 569 z "},"Ɔ":{"ha":890,"x_min":31,"x_max":813,"o":"m 42 131 q 47 128 45 131 q 101 75 73 98 q 162 35 128 51 q 237 11 195 19 q 333 3 278 3 q 512 41 428 3 q 660 152 597 80 q 760 328 723 224 q 797 560 797 431 q 771 729 797 653 q 699 858 746 804 q 586 940 652 911 q 439 969 520 969 q 318 953 370 969 q 230 916 266 936 q 174 879 194 896 q 149 863 153 863 q 142 865 144 863 l 140 869 q 209 918 174 897 q 280 954 243 940 q 356 976 317 969 q 440 983 396 983 q 595 952 526 983 q 713 865 664 922 q 787 731 761 809 q 813 560 813 653 q 775 324 813 429 q 672 144 738 218 q 519 29 607 69 q 331 -11 431 -11 q 231 -1 276 -11 q 150 27 186 9 q 85 69 114 44 q 31 124 56 94 l 38 129 q 42 131 40 131 z "},"Ƈ":{"ha":881,"x_min":94,"x_max":1106,"o":"m 789 124 q 722 69 757 94 q 645 27 686 44 q 558 -1 605 9 q 456 -11 510 -11 q 308 18 374 -11 q 194 103 241 48 q 120 235 147 158 q 94 410 94 313 q 132 643 94 538 q 237 825 170 749 q 394 942 303 900 q 590 983 485 983 q 673 977 636 983 q 741 958 710 971 q 799 925 772 944 q 852 880 826 906 q 855 918 853 901 q 859 954 857 936 q 912 1108 871 1053 q 1020 1163 953 1163 q 1106 1144 1062 1163 l 1104 1139 q 1099 1134 1103 1133 q 1090 1135 1095 1134 q 1054 1145 1072 1142 q 1020 1149 1036 1149 q 921 1097 958 1149 q 873 954 884 1044 l 863 869 l 860 865 q 851 863 857 863 q 831 879 846 863 q 787 916 817 896 q 710 953 758 936 q 589 969 662 969 q 401 930 488 969 q 249 818 314 891 q 148 642 185 745 q 111 410 111 538 q 136 241 111 316 q 208 113 162 165 q 317 31 253 60 q 457 3 381 3 q 556 12 512 3 q 635 36 601 22 q 696 67 670 51 q 739 98 722 83 q 766 122 756 113 q 780 131 776 131 q 783 130 781 131 l 789 124 z "},"Ɗ":{"ha":1128,"x_min":92,"x_max":1049,"o":"m 572 14 q 755 51 670 14 q 900 159 839 88 q 997 332 962 229 q 1031 565 1031 434 q 1007 730 1031 657 q 938 854 983 803 q 829 932 893 905 q 687 958 765 958 l 384 958 l 268 14 l 572 14 m 689 972 q 838 944 772 972 q 952 864 905 916 q 1024 735 999 811 q 1049 565 1049 660 q 1013 327 1049 432 q 913 150 976 222 q 760 39 849 77 q 569 0 672 0 l 250 0 l 368 958 l 332 958 q 234 945 276 958 q 164 906 192 931 q 121 845 135 881 q 106 765 106 809 q 107 739 106 754 q 110 711 108 723 q 111 702 112 706 q 106 697 110 698 l 99 695 q 93 731 95 712 q 92 763 92 749 q 108 850 92 811 q 155 916 124 889 q 231 958 185 943 q 333 972 276 972 l 689 972 z "},"Ƌ":{"ha":767,"x_min":56,"x_max":684,"o":"m 610 500 l 370 500 q 149 432 226 500 q 72 226 72 363 q 133 69 72 124 q 312 14 194 14 l 549 14 l 610 500 m 684 972 l 565 0 l 310 0 q 200 16 247 0 q 120 60 153 31 q 72 131 88 90 q 56 225 56 173 q 137 441 56 367 q 372 514 218 514 l 611 514 l 666 958 l 169 958 l 171 972 l 684 972 z "},"Ǝ":{"ha":749,"x_min":24,"x_max":666,"o":"m 547 0 l 24 0 l 24 15 l 532 15 l 590 486 l 160 486 l 162 501 l 592 501 l 647 957 l 141 957 l 143 972 l 666 972 l 547 0 z "},"Ə":{"ha":897,"x_min":72,"x_max":817,"o":"m 92 403 q 98 235 81 309 q 153 111 115 162 q 246 34 191 60 q 365 7 301 7 q 517 35 447 7 q 640 114 586 63 q 731 239 694 166 q 785 403 768 312 l 92 403 m 158 859 q 218 907 185 884 q 291 947 251 930 q 377 974 331 964 q 480 985 424 985 q 623 956 560 985 q 728 872 685 926 q 794 740 772 817 q 817 565 817 662 q 785 332 817 438 q 695 151 753 226 q 552 34 636 76 q 365 -7 469 -7 q 247 16 301 -7 q 154 84 192 40 q 94 194 115 129 q 72 342 72 259 q 74 384 72 369 q 78 407 75 399 q 86 416 81 415 q 96 418 90 418 l 788 418 q 797 489 794 453 q 800 565 800 526 q 777 736 800 660 q 713 864 755 811 q 613 943 672 916 q 480 971 553 971 q 385 962 427 971 q 309 940 342 953 q 251 912 276 927 q 209 883 226 897 q 182 861 192 870 q 167 853 172 853 q 161 856 163 853 l 158 859 z "},"Ɛ":{"ha":760,"x_min":72,"x_max":734,"o":"m 653 114 q 609 70 638 92 q 543 30 581 48 q 459 0 505 12 q 363 -11 414 -11 q 240 7 294 -11 q 149 59 186 26 q 91 137 111 92 q 72 237 72 183 q 90 337 72 288 q 145 428 108 387 q 238 499 183 469 q 369 538 294 528 q 272 562 312 544 q 206 604 231 579 q 169 659 181 628 q 158 722 158 689 q 181 824 158 776 q 246 907 203 872 q 349 962 289 942 q 483 982 408 982 q 634 955 574 982 q 734 883 695 927 l 730 879 q 724 876 727 876 q 704 891 718 876 q 663 922 690 905 q 591 954 635 940 q 481 968 547 968 q 350 948 408 968 q 254 894 293 928 q 194 816 215 860 q 174 723 174 772 q 194 644 174 678 q 251 589 215 611 q 335 556 288 567 q 438 544 383 544 l 580 544 l 578 531 l 435 531 q 290 507 354 531 q 181 443 226 483 q 113 351 136 403 q 89 240 89 298 q 108 145 89 188 q 163 70 127 101 q 250 20 199 38 q 365 3 301 3 q 482 21 431 3 q 568 61 533 39 q 620 100 602 83 q 638 118 638 118 q 644 122 642 122 q 648 119 647 122 l 653 114 z "},"Ƒ":{"ha":733,"x_min":-139,"x_max":744,"o":"m 235 957 l 178 488 l 621 488 l 619 472 l 176 472 l 122 32 l 112 -53 q 92 -140 106 -101 q 56 -206 78 -178 q 7 -247 35 -233 q -54 -261 -21 -261 q -96 -257 -76 -261 q -139 -243 -117 -252 l -136 -237 q -131 -232 -135 -232 q -122 -234 -127 -233 q -87 -244 -105 -241 q -53 -247 -69 -247 q 47 -195 10 -247 q 95 -53 83 -143 l 101 0 l 221 972 l 744 972 l 742 957 l 235 957 z "},"Ɠ":{"ha":955,"x_min":95,"x_max":1131,"o":"m 888 872 l 885 868 q 882 865 883 866 q 877 864 881 864 q 867 872 874 864 q 846 891 860 880 q 812 917 833 903 q 762 942 792 931 q 693 961 733 953 q 602 969 653 969 q 403 931 494 969 q 249 819 313 892 q 148 643 184 747 q 113 409 113 539 q 138 240 113 315 q 209 113 163 165 q 321 31 255 60 q 469 3 387 3 q 569 9 524 3 q 653 29 614 16 q 730 60 693 42 q 803 102 766 78 l 840 404 l 640 404 q 635 407 638 404 q 633 411 633 409 l 635 418 l 858 418 l 818 96 q 744 52 782 72 q 664 18 706 32 q 573 -3 621 4 q 467 -11 524 -11 q 312 18 381 -11 q 195 103 243 48 q 121 235 147 158 q 95 408 95 312 q 132 645 95 539 q 236 827 169 752 q 396 943 303 902 q 603 983 490 983 q 690 977 651 983 q 761 959 728 972 q 823 928 794 947 q 876 884 851 910 q 880 920 878 904 q 884 954 881 936 q 904 1041 890 1003 q 938 1107 917 1080 q 986 1148 959 1134 q 1047 1163 1014 1163 q 1089 1158 1069 1163 q 1131 1144 1109 1153 l 1129 1139 q 1124 1134 1128 1133 q 1115 1135 1120 1134 q 1080 1145 1098 1142 q 1045 1149 1062 1149 q 946 1097 983 1149 q 898 954 909 1044 l 888 872 z "},"Ɣ":{"ha":799,"x_min":66,"x_max":864,"o":"m 555 14 q 546 25 550 18 l 386 340 q 384 336 385 338 q 381 332 383 334 l 149 23 q 139 14 145 17 l 555 14 m 399 350 l 580 0 l 111 0 l 377 350 l 66 973 l 82 973 q 89 969 87 973 q 93 963 92 966 l 391 360 q 395 368 392 363 l 835 963 q 841 970 838 967 q 848 973 844 973 l 864 973 l 399 350 z "},"Ɩ":{"ha":353,"x_min":106,"x_max":290,"o":"m 216 972 l 233 972 l 134 168 q 154 46 124 87 q 252 5 184 5 l 290 5 l 289 -2 q 288 -5 289 -3 q 282 -7 286 -6 q 270 -8 278 -8 q 249 -9 262 -9 q 141 37 175 -9 q 117 168 106 83 l 216 972 z "},"Ƙ":{"ha":812,"x_min":101,"x_max":853,"o":"m 180 503 l 240 503 q 261 503 251 503 q 278 507 270 504 q 294 516 287 510 q 312 533 302 522 l 614 901 q 685 961 647 940 q 772 982 724 982 q 816 977 795 982 q 853 964 836 972 l 851 958 q 844 953 849 953 q 832 956 840 953 q 804 965 820 962 q 769 968 788 968 q 694 950 728 968 q 625 892 659 932 l 325 527 q 303 507 313 514 q 280 497 294 501 q 306 488 296 494 q 328 468 317 481 l 714 0 l 706 0 q 692 2 697 0 q 684 10 688 4 l 317 454 q 304 469 310 463 q 291 480 299 476 q 274 486 284 484 q 249 489 265 489 l 178 489 l 118 0 l 101 0 l 221 974 l 238 974 l 180 503 z "}}}
